<svg xmlns="http://www.w3.org/2000/svg" width="1600" height="1200"><defs><filter
            id="a"
            color-interpolation-filters="sRGB"
        ><feGaussianBlur stdDeviation="3.422" /></filter></defs><path
        fill-rule="evenodd"
        stroke="#000"
        stroke-width="37.267434200000004"
        d="m1132.676 262.123-25.68 7.336c-.351-.029-1.262.016-1.818 0-23.878-.71-48.022 1.605-72.451 7.34-48.272 11.322-94.452 38.721-133.904 84.374-46.956-18.27-91.229-15.333-106.387 10.09l-14.675 24.76c-150.663-31.055-311.137 33.759-394.36 173.336-105.116 176.285-46.972 403.889 129.313 509.017 176.285 105.112 403.889 47.891 509.017-128.398 83.288-139.688 64.311-311.423-34.854-429.205l14.676-24.76c13.826-23.168-.355-58.994-32.1-89.881 25.638-27.15 52.625-41.801 81.625-48.602 16.796-3.942 34.882-4.69 53.19-3.672l27.517 12.842 4.583-20.178 15.59-10.089-16.505-24.76 20.174-26.599-21.093-3.668-1.818-19.259-.04-.024z"
    /><path
        fill="#302d2e"
        fill-rule="evenodd"
        stroke="#000"
        stroke-width="5.3577773"
        d="M1022.165 949.994a371.64 371.64 0 1 1-638.393-380.651 371.64 371.64 0 1 1 638.393 380.651z"
    /><path
        fill="#333031"
        fill-rule="evenodd"
        stroke="#000"
        stroke-width="18.60512525"
        d="M930.899 376.736c-57.72-34.417-119.592-36.545-138.197-5.343l-36.324 60.627c-18.617 31.19 12.98 84.13 70.704 118.546 57.722 34.416 119.795 37.337 138.396 6.13l36.324-60.626c18.618-31.194-13.176-84.918-70.9-119.334h-.003z"
    /><path
        fill-opacity=".489"
        fill-rule="evenodd"
        d="m798.477 361.05-33.01 55.947c-3.056.118-6.352-.478-9.207-.119-18.777 2.3-33.314 9.464-41.165 21.293-20.957 31.541 14.852 85.347 80.045 120.278 57.029 30.56 117.689 36.573 145.962 16.44-14.921 4.861-34.633 4.142-55.82-.784 0-.175-.294-.404 0-.613l36.688-71.434c-10.583-2.802-21.652-7.01-32.636-11.972l-33.232 70.908-41.748-19.01 36.157-74.318c-45.564-33.84-68.498-79.008-52.034-106.64v.025zM499.337 471.96c-39.044 27.579-73.297 63.686-99.36 107.387-99.656 167.156-45.012 383.24 122.14 482.916 97.927 58.389 212.723 63.094 311.055 23.944-57.785-6.96-115.21-25.32-168.423-57.05-193.322-115.27-262.645-358.582-165.412-557.214z"
    /><path
        fill="#fff"
        fill-opacity=".92"
        fill-rule="evenodd"
        d="M968.06 631.592a98.834 75.578 50.416 1 1-116.495 96.317 98.834 75.578 50.416 1 1 116.495-96.317zM942.734 808.425a58.216 44.518 50.417 1 1-68.62 56.733 58.216 44.518 50.417 1 1 68.62-56.733z"
    /><path
        fill="none"
        stroke="#000"
        stroke-width="24.16304515"
        d="M930.902 376.733c-57.72-34.411-119.59-36.544-138.199-5.341l-36.321 60.627c-18.62 31.192 12.98 84.128 70.701 118.545 57.726 34.417 119.797 37.34 138.4 6.132l36.322-60.627c18.62-31.192-13.177-84.918-70.898-119.336h-.005z"
    /><path
        fill="#ccab7f"
        fill-rule="evenodd"
        stroke="#000"
        stroke-width="18.60512525"
        d="M1051.066 357.497c-42.802 10.04-81.47 35.434-117.39 96.298l-2.757 3.668c-8.08 7.85-27.885 6.122-45.857-4.587-18.303-10.91-28.474-26.815-24.76-37.599 1.024-1.752 3.667-6.42 3.667-6.42 45.212-75.001 105.525-117.231 168.75-132.066 24.43-5.731 48.573-8.047 72.451-7.336.584.016 1.201-.025 1.556.008l25.586-6.907 2.291 18.638 21.211 4.21-20.492 26.608 16.89 24.593-16.318 10.117-4.587 20.129-27.109-12.72c-18.311-1.016-36.348-.575-53.144 3.366h.012z"
    /><path
        fill="none"
        stroke="#000"
        stroke-linecap="round"
        stroke-opacity=".686"
        stroke-width="9.316858550000001"
        d="M897.12 365.911c-1.145 50.44 22.236 79.523 36.684 82.541M940.62 327.762c-7.672 49.864 11.742 81.736 25.679 86.6M990.86 292.92c-17.151 47.447-4.253 82.464 8.484 89.926M1045.634 273.519c-25.738 43.394-19.628 80.208-8.529 89.921"
    /><path
        fill-opacity=".686"
        d="m1132.676 262.123-24.765 7.336a4.66 4.66 0 0 0 0-.915 4.66 4.66 0 0 0 0-.915 4.66 4.66 0 0 0 0-.915 4.66 4.66 0 0 0-.911-.915 4.66 4.66 0 0 0-.907-.919 4.66 4.66 0 0 0-.91-.915 4.66 4.66 0 0 0-.911 0 4.66 4.66 0 0 0-.907 0 4.66 4.66 0 0 0-.911 0 4.66 4.66 0 0 0-.911.915 4.66 4.66 0 0 0-.91 0 4.66 4.66 0 0 0-.908.92c-1.086 1.208-1.731 2.458-2.76 3.667-4.882.204-9.73.658-14.672.915l2.757 7.336c-4.02.36-6.703 1.952-10.09 3.668-13.4 6.805 2.435 4.995 4.588 9.174.408.592-10.628 4.325-11.008 5.502-1.172 3.557 3.725 10.505 2.761 13.756-1.234 3.84-9.04 5.045-10.089 8.255-1.054 3.268 3.656 7.381 8.26 11.004-1.586 12.642-.413 22.873 4.582 29.347a4.66 4.66 0 0 0 .91.915 4.66 4.66 0 0 0 .908 0 4.66 4.66 0 0 0 .91.92 4.66 4.66 0 0 0 .911 0 4.66 4.66 0 0 0 .911 0 4.66 4.66 0 0 0 .907-.92 4.66 4.66 0 0 0 .91 0 4.66 4.66 0 0 0 .912-.915 4.66 4.66 0 0 0 .906-.914 4.66 4.66 0 0 0 0-.915 4.66 4.66 0 0 0 0-.915 4.66 4.66 0 0 0 0-.92 4.66 4.66 0 0 0 0-.914 4.66 4.66 0 0 0-.906-.915c-1.177-1.516-2.145-4.62-2.761-8.255 2.32.788 9.615 3.66 10.092 4.587.879 1.724 1.908 2.916 2.758 4.587 4.227.057 8.569-.237 12.837 0l27.514 12.838 4.587-20.174 15.586-10.089-16.501-24.765 20.17-26.594-21.09-3.668-1.82-19.263-.03-.012z"
    /><g fill-rule="evenodd"><path
            fill="#a00"
            stroke="maroon"
            stroke-width="3"
            d="m718.8-1014.3-59.895-64.69 6.769 45.1-31.846-60.99-18.293 51.55-2.229-54.04-91.399 119.198 60.136-118.518-64.72 17.52 62.54-49.84-44.982-9.94 45.245-10.66-97.426-43.93 104.79 23.43-32.361-39.29 41.462 17.33-4.566-48.69 30.643 48.5 17.89-98.7 5.758 98.68 36.338-39.11-3.998 29.42 50.732-30.04-53.552 71.36 79.291-1.3-57.554 25.9 100.93 60.74-129.49-41.73L718.8-1014.3z"
            transform="matrix(.74039 1.59494 -1.55798 .73396 -1061.893 131.694)"
        /><path
            fill="#e44f30"
            d="m641.12-1257.8-13.562 66.56a5.005 5.005 0 0 1-9.125 1.69l-19.5-30.87 2.625 27.9a5.005 5.005 0 0 1-7.188 4.94l-28.5-14.22 25.344 28.37a5.005 5.005 0 0 1-4.812 8.22l-70.375-15.56 65.969 26.53a5.005 5.005 0 0 1-.531 9.47l-29.531 8.22 28.406 2.59a5.005 5.005 0 0 1 2.656 8.88l-43.625 34.75 41.344-11.19a5.005 5.005 0 0 1 5.781 7.09l-35.719 70.41 58.562-76.37a5.005 5.005 0 0 1 8.969 2.81l1.156 28.22 9.656-27.19a5.005 5.005 0 0 1 9.157-.63l18.031 34.54-2.344-15.6a5.005 5.005 0 0 1 8.594-4.16l37.094 40.07-35.156-72.5a5.005 5.005 0 0 1 5.562-7.07l91.531 19.88-66.062-29.47a5.005 5.005 0 0 1-.031-9.12l35.406-15.91-54.969.91a5.005 5.005 0 0 1-3.969-8.19l53.562-65.28-43.969 31.22a5.005 5.005 0 0 1-7.875-4.79l1.875-13.75-25.594 27.54a5.005 5.005 0 0 1-8.656-3.41l-.188-65.53h.001z"
            filter="url(#a)"
            transform="matrix(.74039 1.59494 -1.55798 .73396 -1061.893 131.694)"
        /><path
            fill="#fc0"
            d="m637.72-1223.6-6.719 33a8.514 8.514 0 0 1-15.531 2.84l-11.656-18.47 1.25 13.35a8.514 8.514 0 0 1-12.281 8.41l-12.031-6 13.094 14.65a8.514 8.514 0 0 1-8.187 14l-28.844-6.37 26.5 10.65a8.514 8.514 0 0 1-.907 16.1l-11.094 3.09 9.344.84a8.514 8.514 0 0 1 4.531 15.13l-30.406 24.22 25.031-6.78a8.514 8.514 0 0 1 9.813 12.06l-18.531 36.56 35.469-46.28a8.514 8.514 0 0 1 15.25 4.84l.406 10.1 3.594-10.1a8.514 8.514 0 0 1 15.562-1.09l9.281 17.75a8.514 8.514 0 0 1 14.5-3.72l21.031 22.72-24.844-51.25a8.514 8.514 0 0 1 9.469-12.03l58.219 12.65-34.938-15.59a8.514 8.514 0 0 1-.031-15.53l19.875-8.94-37.938.63a8.514 8.514 0 0 1-6.75-13.91l36.969-45.06-22.625 16.06a8.514 8.514 0 0 1-13.375-8.09l.375-2.78-18.031 19.4a8.514 8.514 0 0 1-14.75-5.75l-.094-31.31z"
            filter="url(#a)"
            transform="matrix(.74039 1.59494 -1.55798 .73396 -1061.893 131.694)"
        /><path
            fill="#fc0"
            d="m667-1190-8.438 9.06a16.742 16.742 0 0 1-24.062.44 16.742 16.742 0 0 1-24.812-1.25 16.742 16.742 0 0 1-6.781 5.13 16.742 16.742 0 0 1-7.156 21 16.742 16.742 0 0 1-2.594 16.4 16.742 16.742 0 0 1-2.844 23.25l-3.875 3.09a16.742 16.742 0 0 1 10.75 8.97l2.844-3.72a16.742 16.742 0 0 1 25.125-1.62 16.742 16.742 0 0 1 23.531 6.56l4.188 8.03a16.742 16.742 0 0 1 7.906-1.03l-6.844-14.09a16.742 16.742 0 0 1 18.625-23.66l8.938 1.94a16.742 16.742 0 0 1 1.343-12.56l-6.718.12a16.742 16.742 0 0 1-13.219-27.37l11.875-14.47a16.742 16.742 0 0 1-7.8-4.1l.018-.12z"
            filter="url(#a)"
            transform="matrix(.74039 1.59494 -1.55798 .73396 -1061.893 131.694)"
        /></g></svg>
