<svg
    xmlns="http://www.w3.org/2000/svg"
    xml:space="preserve"
    style="fill-rule:evenodd;clip-rule:evenodd;stroke-linejoin:round;stroke-miterlimit:2"
    viewBox="0 0 169 180"
><path d="M335.999 0H504v179.973H335.999z" style="fill:#1b59b2" transform="translate(-335.999)" /><path
        d="M-2.839-2.84a2.84 2.84 0 1 0 .001 5.681 2.84 2.84 0 0 0-.001-5.681"
        style="fill:#134a8c;fill-rule:nonzero"
        transform="matrix(0 -1 -1 0 34.483 90.824)"
    /><path
        d="M0-10.963s1.654-2.485 5.948-1.93c4.295.552 7.275 8.38-1.453 14.964L0 2.485-1.323.269.061-1.118l2.285.139s1.748-.624 2.052-3.463c.303-2.842-.989-1.871-2.052-2.08C1.283-6.731 0-10.963 0-10.963"
        style="fill:#134a8c;fill-rule:nonzero"
        transform="translate(32.138 103.025)"
    /><path
        d="M0-36.712s6.514 2.839 6.514 7.411c0 4.572.831 9.422.831 9.422H-.344s-6.651.139-9.494-6.789c0 0-.969.274-.831 2.008.141 1.732 1.247 4.436 2.703 5.264 1.454.833 2.701 1.943 1.939 2.772-.76.832-1.87 2.081-1.523 4.018.348 1.939 2.701 2.217 2.632 3.326-.068 1.109-3.255 2.146-4.986 1.592-1.734-.553-.973-2.355.207-2.148 1.177.209.553-2.977-2.908-2.701-3.465.277-4.712 4.088-3.951 6.72.763 2.632 7.552 7.135 13.16.278 0 0 1.594-1.593 1.734-.418.139 1.177.139 2.98 1.455 3.187 1.315.209 3.742-.277 3.464-1.384-.277-1.108-.622-.761-1.664-.626-1.039.142-1.593-2.173.28-3.822 1.868-1.649 5.679-4.488 9.903-.956 4.228 3.533 3.811 4.643 7.552 5.333v2.309h3.878v-2.1h2.233v-3.256h-1.262s-1.039-.071-1.594-1.664c-.554-1.59-2.493-4.429-4.225-5.401-1.732-.973-3.462-5.475-2.077-8.869 1.384-3.396 4.987-3.808 5.68-3.462.692.344-.069 2.424 1.455 2.562 1.522.137 2.077-2.771.899-3.601-1.177-.831-4.006-1.289-3.25-1.995.757-.706-2.62-2.558-2.62-2.558s-1.196.396-2.026-1.336c-.832-1.732-4.988-1.872-6.028.347 0 0-1.108.483-1.593-.555-.485-1.04-3.255-4.226-6.441-3.95C-.831-37.477 0-36.712 0-36.712"
        style="fill:#134a8c;fill-rule:nonzero"
        transform="translate(16.818 133.771)"
    /><path
        d="M2.84-2.841a2.84 2.84 0 1 1 0 5.68 2.84 2.84 0 0 1 0-5.68"
        style="fill:#134a8c;fill-rule:nonzero"
        transform="matrix(0 1 1 0 49.203 90.823)"
    /><path
        d="M0-10.963s-1.653-2.485-5.947-1.93c-4.297.552-7.274 8.38 1.454 14.964L0 2.485 1.325.269-.061-1.118l-2.286.139s-1.747-.624-2.049-3.463c-.305-2.842.987-1.871 2.049-2.08C-1.282-6.731 0-10.963 0-10.963"
        style="fill:#134a8c;fill-rule:nonzero"
        transform="translate(51.548 103.025)"
    /><path
        d="M0-36.712s-6.512 2.839-6.512 7.411c0 4.572-.83 9.422-.83 9.422H.345s6.651.139 9.492-6.789c0 0 .971.274.831 2.008-.139 1.732-1.249 4.436-2.701 5.264-1.456.833-2.703 1.943-1.942 2.772.764.832 1.871 2.081 1.527 4.018-.348 1.939-2.702 2.217-2.633 3.326.068 1.109 3.255 2.146 4.988 1.592 1.73-.553.967-2.355-.211-2.148-1.177.209-.554-2.977 2.911-2.701 3.464.277 4.709 4.088 3.948 6.72-.76 2.632-7.548 7.135-13.162.278 0 0-1.592-1.593-1.732-.418-.14 1.177-.14 2.98-1.454 3.187-1.315.209-3.741-.277-3.464-1.384.278-1.108.624-.761 1.663-.626C-.557-4.638 0-6.953-1.87-8.602c-1.871-1.649-5.682-4.488-9.906-.956-4.226 3.533-3.81 4.643-7.551 5.333v2.309h-3.879v-2.1h-2.233v-3.256h1.261s1.04-.071 1.594-1.664c.555-1.59 2.493-4.429 4.227-5.401 1.731-.973 3.461-5.475 2.077-8.869-1.386-3.396-4.987-3.808-5.68-3.462-.693.344.068 2.424-1.455 2.562-1.522.137-2.077-2.771-.899-3.601 1.176-.831 4.004-1.289 3.249-1.995-.755-.706 2.617-2.558 2.617-2.558s1.2.396 2.031-1.336c.831-1.732 4.984-1.872 6.026.347 0 0 1.107.483 1.594-.555.484-1.04 3.255-4.226 6.442-3.95C.831-37.477 0-36.712 0-36.712"
        style="fill:#134a8c;fill-rule:nonzero"
        transform="translate(66.867 133.771)"
    /><path
        d="M-2.839-2.84a2.84 2.84 0 1 1 0 5.678 2.84 2.84 0 0 1 0-5.678"
        style="fill:#134a8c;fill-rule:nonzero"
        transform="matrix(0 -1 -1 0 34.483 166.437)"
    /><path
        d="M0 10.967s1.654 2.482 5.948 1.928c4.295-.553 7.275-8.38-1.453-14.963L0-2.482-1.323-.268.061 1.119 2.346.981s1.748.622 2.052 3.463c.303 2.841-.989 1.871-2.052 2.08C1.283 6.73 0 10.967 0 10.967"
        style="fill:#134a8c;fill-rule:nonzero"
        transform="translate(32.138 159.913)"
    /><path
        d="M0 36.714s6.514-2.841 6.514-7.412c0-4.572.831-9.42.831-9.42H-.344s-6.651-.141-9.494 6.786c0 0-.969-.275-.831-2.009.141-1.729 1.247-4.432 2.703-5.264 1.454-.831 2.701-1.94 1.939-2.769-.76-.832-1.87-2.08-1.523-4.019.348-1.94 2.701-2.218 2.632-3.325-.068-1.108-3.255-2.148-4.986-1.592-1.734.552-.973 2.354.207 2.146 1.177-.206.553 2.979-2.908 2.701-3.465-.275-4.712-4.084-3.951-6.718.763-2.632 7.552-7.138 13.16-.278 0 0 1.594 1.591 1.734.415.139-1.177.139-2.978 1.455-3.184 1.315-.209 3.742.276 3.464 1.384-.277 1.108-.622.761-1.664.623C.554 4.64 0 6.953 1.873 8.602c1.868 1.65 5.679 4.489 9.903.958 4.228-3.534 3.811-4.643 7.552-5.334v-2.31h3.878v2.1h2.233v3.257h-1.262s-1.039.069-1.594 1.663c-.554 1.593-2.493 4.432-4.225 5.404-1.732.97-3.462 5.475-2.077 8.869 1.384 3.392 4.987 3.806 5.68 3.459.692-.343-.069-2.421 1.455-2.56 1.522-.14 2.077 2.769.899 3.602-1.177.831-4.006 1.286-3.25 1.991.757.709-2.62 2.562-2.62 2.562s-1.196-.397-2.026 1.335c-.832 1.732-4.988 1.87-6.028-.347 0 0-1.108-.482-1.593.556-.485 1.039-3.255 4.226-6.441 3.946C-.831 37.476 0 36.714 0 36.714"
        style="fill:#134a8c;fill-rule:nonzero"
        transform="translate(16.818 129.167)"
    /><path
        d="M2.84-2.841A2.838 2.838 0 0 0 .001-.002 2.84 2.84 0 1 0 2.84-2.841"
        style="fill:#134a8c;fill-rule:nonzero"
        transform="matrix(0 1 1 0 49.203 166.436)"
    /><path
        d="M0 10.967s-1.653 2.482-5.947 1.928c-4.297-.553-7.274-8.38 1.454-14.963L0-2.482 1.325-.268-.061 1.119-2.347.981s-1.747.622-2.049 3.463c-.305 2.841.987 1.871 2.049 2.08C-1.282 6.73 0 10.967 0 10.967"
        style="fill:#134a8c;fill-rule:nonzero"
        transform="translate(51.548 159.913)"
    /><path
        d="M0 36.714s-6.512-2.841-6.512-7.412c0-4.572-.83-9.42-.83-9.42H.345s6.651-.141 9.492 6.786c0 0 .971-.275.831-2.009-.139-1.729-1.249-4.432-2.701-5.264-1.456-.831-2.703-1.94-1.942-2.769.764-.832 1.871-2.08 1.527-4.019-.348-1.94-2.702-2.218-2.633-3.325.068-1.108 3.255-2.148 4.988-1.592 1.73.552.967 2.354-.211 2.146-1.177-.206-.554 2.979 2.911 2.701 3.464-.275 4.709-4.084 3.948-6.718-.76-2.632-7.548-7.138-13.162-.278 0 0-1.592 1.591-1.732.415-.14-1.177-.14-2.978-1.454-3.184-1.315-.209-3.741.276-3.464 1.384.278 1.108.624.761 1.663.623C-.557 4.64 0 6.953-1.87 8.602c-1.871 1.65-5.682 4.489-9.906.958-4.226-3.534-3.81-4.643-7.551-5.334v-2.31h-3.879v2.1h-2.233v3.257h1.261s1.04.069 1.594 1.663c.555 1.593 2.493 4.432 4.227 5.404 1.731.97 3.461 5.475 2.077 8.869-1.386 3.392-4.987 3.806-5.68 3.459-.693-.343.068-2.421-1.455-2.56-1.522-.14-2.077 2.769-.899 3.602 1.176.831 4.004 1.286 3.249 1.991-.755.709 2.617 2.562 2.617 2.562s1.2-.397 2.031 1.335c.831 1.732 4.984 1.87 6.026-.347 0 0 1.107-.482 1.594.556.484 1.039 3.255 4.226 6.442 3.946C.831 37.476 0 36.714 0 36.714"
        style="fill:#134a8c;fill-rule:nonzero"
        transform="translate(66.867 129.167)"
    /><path
        d="M-2.563-2.563a2.563 2.563 0 1 0 0 5.126 2.562 2.562 0 1 0 0-5.126"
        style="fill:#ffce00;fill-rule:nonzero"
        transform="matrix(0 -1 -1 0 4.351 145.549)"
    /><path
        d="M0-19.991s-1.851 2.049-2.397 8.146C-2.946-5.748 1.421 0 5.715-.762c4.296-.761 2.908-4.986 1.594-5.056 0 0 .705 2.216-.278 3.601C6.046-.83 1.696-1.661.589-4.711-.519-7.759.543-13.358 3.44-16.239L0-19.991Z"
        style="fill:#ffce00;fill-rule:nonzero"
        transform="translate(2.445 166.399)"
    /><path
        d="M0-1.87S.979 0 2.358 0H-.484s-.76-1.87.484-1.87"
        style="fill:#ffce00;fill-rule:nonzero"
        transform="translate(3.171 172.151)"
    /><path
        d="M0 17.597s6.097-4.016 6.786-8.363C7.48 4.885 4.709 3.984 2.77 4.4c-1.939.415-2.519 4.907.677 5.194l-1.163 1.049S-.417 9.732-.625 6.477c-.208-3.253 6.234-6.512 9.629-.831 3.394 5.68-6.372 11.986-6.372 11.986L0 17.597Z"
        style="fill:#ffce00;fill-rule:nonzero"
        transform="translate(6.637 154.519)"
    /><path
        d="M0 1.87s1.439 1.662 5.296 1.176c3.857-.484 7.182-5.54 10.298-4.71 3.119.831 2.495 6.028-2.701 6.028H1.738s-1.731-.14-2.768-1.87L0 1.87Z"
        style="fill:#ffce00;fill-rule:nonzero"
        transform="translate(11.061 167.787)"
    /><path
        d="M-2.7-2.704A2.702 2.702 0 1 0-2.702 2.7 2.702 2.702 0 0 0-2.7-2.704"
        style="fill:#fcfae6;fill-rule:nonzero"
        transform="matrix(0 -1 -1 0 79.093 144.718)"
    /><path
        d="M0-13.755s1.33 2.443 2.854 4.177c1.524 1.732 1.941 4.017 1.317 7.343C3.549 1.09.707 3.167-1.095 1.227l-1.729.07s.275 1.454 2.492 1.662c2.217.208 5.681-1.732 6.374-6.026.691-4.296.423-11.988-1.729-13.855L0-13.755Z"
        style="fill:#fcfae6;fill-rule:nonzero"
        transform="translate(76.726 162.471)"
    /><path
        d="M0-6.026s-.764.206-.693 1.384c.068 1.179 3.046 2.146 3.185-.693.138-2.838-4.087-4.016-5.82-1.939-1.729 2.077-.483 9.906 6.929 12.539H.899s-4.99-2.147-6.719-8.658c-1.732-6.514 5.611-7.898 8.036-6.062 2.424 1.836 1.385 6.406-.141 7.376 0 0-3.117.902-3.948-1.246-.83-2.148.902-3.116 1.873-2.701"
        style="fill:#fcfae6;fill-rule:nonzero"
        transform="translate(73.901 166.886)"
    /><path
        d="M0 .307s-5.404 3.048-9.248 0c-3.844-3.05-4.986-3.355-6.86-2.839-1.868.517-1.868 4.504 2.496 5.679h10.597s4.12.035 4.713-1.317L0 .307Z"
        style="fill:#fcfae6;fill-rule:nonzero"
        transform="translate(72.203 168.969)"
    /><path
        d="M0-2.391V0h-2.701S0-.938 0-2.391"
        style="fill:#fcfae6;fill-rule:nonzero"
        transform="translate(80.723 172.151)"
    /><path
        d="M0-19.19s5.127-.138 5.611 4.712c.485 4.848-2.493 8.449-3.809 9.837C.486-3.257.555-.764 1.731.138c1.178.9 6.167.691 5.891-9.663C7.344-19.883 2.701-20.228 0-19.19"
        style="fill:#ffce00;fill-rule:nonzero"
        transform="translate(75.354 117.633)"
    /><path
        d="M0 5.61s-1.316 0-.971-1.388c.347-1.384 2.287-1.662 3.049 0 .761 1.665-2.633 5.127-5.335 2.773-2.701-2.358.07-8.657 4.364-11.013s4.92.692 4.92.692v-1.939s-3.049-1.386-6.235.414C-3.396-3.05-5.889 1.038-6.306 5.055-6.722 9.074.97 12.261 3.186 6.372 5.401.485-.277.553-1.87 2.424-3.465 4.292-1.595 7.063 0 5.61"
        style="fill:#ffce00;fill-rule:nonzero"
        transform="translate(74.247 96.09)"
    /><path
        d="M0-1.8s-.142-2.449-3.394-2.449h-5.127s-6.927-.114-8.938 3.348c-2.008 3.464 5.404 3.257 7.898.278 2.497-2.98 7.9-2.841 8.731-.278L0-1.8Z"
        style="fill:#ffce00;fill-rule:nonzero"
        transform="translate(72.792 94.564)"
    /><path
        d="M0 5.402A2.702 2.702 0 1 1 .002-.002 2.702 2.702 0 0 1 0 5.402"
        style="fill:#fcfae6;fill-rule:nonzero"
        transform="translate(24.73 82.485)"
    /><path
        d="M0-3.903s-2.444 1.327-4.175 2.852C-5.907.475-8.193.89-11.518.266-14.842-.358-16.922-3.198-14.982-5l-.068-1.73s-1.458.276-1.664 2.495c-.208 2.215 1.734 5.68 6.026 6.372 4.296.69 11.991.422 13.857-1.728L0-3.903Z"
        style="fill:#fcfae6;fill-rule:nonzero"
        transform="translate(23.434 86.72)"
    /><path
        d="M0 2.913s-.207-.762-1.387-.693c-1.176.07-2.145 3.048.697 3.188 2.836.137 4.016-4.092 1.938-5.822-2.081-1.731-9.905-.483-12.54 6.929V3.812s2.148-4.986 8.659-6.719c6.512-1.734 7.898 5.612 6.061 8.038C1.593 7.554-2.979 6.515-3.95 4.99c0 0-.9-3.116 1.25-3.946C-.556.21.416 1.943 0 2.913"
        style="fill:#fcfae6;fill-rule:nonzero"
        transform="translate(11.292 77.077)"
    /><path
        d="M0 16.278s-3.05-5.402 0-9.246C3.05 3.186 3.356 2.044 2.84.173c-.518-1.871-4.506-1.871-5.679 2.495v10.597s-.035 4.121 1.315 4.711L0 16.278Z"
        style="fill:#fcfae6;fill-rule:nonzero"
        transform="translate(2.874 62.013)"
    /><path
        d="M0 2.701h-2.392V0S-1.455 2.701 0 2.701"
        style="fill:#fcfae6;fill-rule:nonzero"
        transform="translate(2.392 84.11)"
    /><path
        d="M0-5.402A2.7 2.7 0 1 1 0 0a2.7 2.7 0 1 1 0-5.402"
        style="fill:#fcfae6;fill-rule:nonzero"
        transform="matrix(-1 0 0 1 24.73 96.762)"
    /><path
        d="M0 3.906s-2.444-1.33-4.175-2.854C-5.907-.472-8.193-.887-11.518-.265c-3.324.623-5.404 3.465-3.464 5.267l-.068 1.731s-1.458-.278-1.664-2.496c-.208-2.216 1.734-5.68 6.026-6.372 4.296-.692 11.991-.422 13.857 1.728L0 3.906Z"
        style="fill:#fcfae6;fill-rule:nonzero"
        transform="translate(23.434 92.525)"
    /><path
        d="M0-2.906s-.207.759-1.387.69c-1.176-.068-2.145-3.047.697-3.186C2.146-5.54 3.326-1.313 1.248.418-.833 2.15-8.657.904-11.292-6.51v2.702s2.148 4.988 8.659 6.719c6.512 1.732 7.898-5.61 6.061-8.037-1.835-2.423-6.407-1.384-7.378.14 0 0-.9 3.119 1.25 3.948C-.556-.206.416-1.936 0-2.906"
        style="fill:#fcfae6;fill-rule:nonzero"
        transform="translate(11.292 102.164)"
    /><path
        d="M0-16.279s-3.05 5.401 0 9.247C3.05-3.188 3.356-2.043 2.84-.174c-.518 1.87-4.506 1.87-5.679-2.493v-10.598s-.035-4.122 1.315-4.71L0-16.279Z"
        style="fill:#fcfae6;fill-rule:nonzero"
        transform="translate(2.874 117.233)"
    /><path
        d="M0-2.702h-2.392V0S-1.455-2.702 0-2.702"
        style="fill:#fcfae6;fill-rule:nonzero"
        transform="translate(2.392 95.136)"
    /><path
        d="M2.839-2.841a2.84 2.84 0 0 1 0 5.68 2.84 2.84 0 0 1 0-5.68"
        style="fill:#134a8c;fill-rule:nonzero"
        transform="matrix(0 1 1 0 132.793 90.824)"
    /><path
        d="M0-10.963s-1.653-2.485-5.948-1.93c-4.293.552-7.275 8.38 1.455 14.964L0 2.485 1.325.269-.059-1.118l-2.287.139s-1.748-.624-2.051-3.463c-.304-2.842.988-1.871 2.051-2.08C-1.281-6.731 0-10.963 0-10.963"
        style="fill:#134a8c;fill-rule:nonzero"
        transform="translate(135.139 103.025)"
    /><path
        d="M0-36.712s-6.512 2.839-6.512 7.411c0 4.572-.831 9.422-.831 9.422H.344s6.651.139 9.494-6.789c0 0 .969.274.831 2.008-.141 1.732-1.249 4.436-2.703 5.264-1.454.833-2.701 1.943-1.939 2.772.762.832 1.869 2.081 1.523 4.018-.345 1.939-2.7 2.217-2.633 3.326.069 1.109 3.256 2.146 4.988 1.592 1.734-.553.97-2.355-.208-2.148-1.177.209-.553-2.977 2.91-2.701 3.464.277 4.71 4.088 3.949 6.72-.761 2.632-7.552 7.135-13.162.278 0 0-1.594-1.593-1.731-.418-.142 1.177-.14 2.98-1.456 3.187-1.315.209-3.742-.277-3.463-1.384.277-1.108.621-.761 1.661-.626C-.556-4.638 0-6.953-1.871-8.602c-1.87-1.649-5.681-4.488-9.907-.956-4.224 3.533-3.809 4.643-7.55 5.333v2.309h-3.88v-2.1h-2.231v-3.256h1.262s1.038-.071 1.594-1.664c.554-1.59 2.491-4.429 4.225-5.401 1.731-.973 3.462-5.475 2.079-8.869-1.386-3.396-4.989-3.808-5.681-3.462-.693.344.068 2.424-1.456 2.562-1.521.137-2.076-2.771-.898-3.601 1.175-.831 4.007-1.289 3.249-1.995-.755-.706 2.62-2.558 2.62-2.558s1.194.396 2.027-1.336c.831-1.732 4.987-1.872 6.027.347 0 0 1.108.483 1.593-.555.485-1.04 3.253-4.226 6.443-3.95C.831-37.477 0-36.712 0-36.712"
        style="fill:#134a8c;fill-rule:nonzero"
        transform="translate(150.458 133.771)"
    /><path
        d="M-2.84-2.841a2.84 2.84 0 1 0 0 5.68 2.84 2.84 0 0 0 0-5.68"
        style="fill:#134a8c;fill-rule:nonzero"
        transform="matrix(0 -1 -1 0 118.073 90.823)"
    /><path
        d="M0-10.963s1.653-2.485 5.947-1.93c4.295.552 7.275 8.38-1.454 14.964L0 2.485-1.325.269.059-1.118l2.288.139s1.747-.624 2.05-3.463c.304-2.842-.988-1.871-2.05-2.08C1.282-6.731 0-10.963 0-10.963"
        style="fill:#134a8c;fill-rule:nonzero"
        transform="translate(115.728 103.025)"
    /><path
        d="M0-36.712s6.512 2.839 6.512 7.411c0 4.572.83 9.422.83 9.422H-.346s-6.65.139-9.489-6.789c0 0-.972.274-.833 2.008.14 1.732 1.247 4.436 2.701 5.264 1.456.833 2.703 1.943 1.94 2.772-.762.832-1.869 2.081-1.523 4.018.346 1.939 2.702 2.217 2.631 3.326-.068 1.109-3.255 2.146-4.987 1.592-1.733-.553-.968-2.355.21-2.148 1.175.209.552-2.977-2.911-2.701-3.462.277-4.711 4.088-3.948 6.72.76 2.632 7.55 7.135 13.162.278 0 0 1.594-1.593 1.732-.418.14 1.177.138 2.98 1.452 3.187 1.317.209 3.743-.277 3.466-1.384-.278-1.108-.624-.761-1.661-.626C.556-4.638 0-6.953 1.87-8.602c1.871-1.649 5.681-4.488 9.906-.956 4.226 3.533 3.81 4.643 7.551 5.333v2.309h3.881v-2.1h2.231v-3.256h-1.263s-1.038-.071-1.592-1.664c-.555-1.59-2.493-4.429-4.227-5.401-1.731-.973-3.462-5.475-2.077-8.869 1.386-3.396 4.987-3.808 5.682-3.462.689.344-.069 2.424 1.453 2.562 1.522.137 2.077-2.771.9-3.601-1.177-.831-4.005-1.289-3.252-1.995.757-.706-2.617-2.558-2.617-2.558s-1.197.396-2.029-1.336c-.831-1.732-4.987-1.872-6.026.347 0 0-1.107.483-1.593-.555-.485-1.04-3.256-4.226-6.441-3.95C-.833-37.477 0-36.712 0-36.712"
        style="fill:#134a8c;fill-rule:nonzero"
        transform="translate(100.409 133.771)"
    /><path
        d="M2.839-2.841A2.84 2.84 0 0 0 .001 0a2.836 2.836 0 0 0 2.838 2.839 2.84 2.84 0 0 0 0-5.68"
        style="fill:#134a8c;fill-rule:nonzero"
        transform="matrix(0 1 1 0 132.793 166.436)"
    /><path
        d="M0 10.967s-1.653 2.482-5.948 1.928c-4.293-.553-7.275-8.38 1.455-14.963L0-2.482 1.325-.268-.059 1.119-2.346.981s-1.748.622-2.051 3.463c-.304 2.841.988 1.871 2.051 2.08C-1.281 6.73 0 10.967 0 10.967"
        style="fill:#134a8c;fill-rule:nonzero"
        transform="translate(135.139 159.913)"
    /><path
        d="M0 36.714s-6.512-2.841-6.512-7.412c0-4.572-.831-9.42-.831-9.42H.344s6.651-.141 9.494 6.786c0 0 .969-.275.831-2.009-.141-1.729-1.249-4.432-2.703-5.264-1.454-.831-2.701-1.94-1.939-2.769.762-.832 1.869-2.08 1.523-4.019-.345-1.94-2.7-2.218-2.633-3.325.069-1.108 3.256-2.148 4.988-1.592 1.734.552.97 2.354-.208 2.146-1.177-.206-.553 2.979 2.91 2.701 3.464-.275 4.71-4.084 3.949-6.718-.761-2.632-7.552-7.138-13.162-.278 0 0-1.594 1.591-1.731.415-.142-1.177-.14-2.978-1.456-3.184-1.315-.209-3.742.276-3.463 1.384.277 1.108.621.761 1.661.623C-.556 4.64 0 6.953-1.871 8.602c-1.87 1.65-5.681 4.489-9.907.958-4.224-3.534-3.809-4.643-7.55-5.334v-2.31h-3.88v2.1h-2.231v3.257h1.262s1.038.069 1.594 1.663c.554 1.593 2.491 4.432 4.225 5.404 1.731.97 3.462 5.475 2.079 8.869-1.386 3.392-4.989 3.806-5.681 3.459-.693-.343.068-2.421-1.456-2.56-1.521-.14-2.076 2.769-.898 3.602 1.175.831 4.007 1.286 3.249 1.991-.755.709 2.62 2.562 2.62 2.562s1.194-.397 2.027 1.335c.831 1.732 4.987 1.87 6.027-.347 0 0 1.108-.482 1.593.556.485 1.039 3.253 4.226 6.443 3.946C.831 37.476 0 36.714 0 36.714"
        style="fill:#134a8c;fill-rule:nonzero"
        transform="translate(150.458 129.167)"
    /><path
        d="M-2.84-2.841A2.838 2.838 0 0 1-.001-.002 2.84 2.84 0 1 1-2.84-2.841"
        style="fill:#134a8c;fill-rule:nonzero"
        transform="matrix(0 -1 -1 0 118.073 166.436)"
    /><path
        d="M0 10.967s1.653 2.482 5.947 1.928c4.295-.553 7.275-8.38-1.454-14.963L0-2.482-1.325-.268.059 1.119 2.347.981s1.747.622 2.05 3.463c.304 2.841-.988 1.871-2.05 2.08C1.282 6.73 0 10.967 0 10.967"
        style="fill:#134a8c;fill-rule:nonzero"
        transform="translate(115.728 159.913)"
    /><path
        d="M0 36.714s6.512-2.841 6.512-7.412c0-4.572.83-9.42.83-9.42H-.346s-6.65-.141-9.489 6.786c0 0-.972-.275-.833-2.009.14-1.729 1.247-4.432 2.701-5.264 1.456-.831 2.703-1.94 1.94-2.769-.762-.832-1.869-2.08-1.523-4.019.346-1.94 2.702-2.218 2.631-3.325-.068-1.108-3.255-2.148-4.987-1.592-1.733.552-.968 2.354.21 2.146 1.175-.206.552 2.979-2.911 2.701-3.462-.275-4.711-4.084-3.948-6.718.76-2.632 7.55-7.138 13.162-.278 0 0 1.594 1.591 1.732.415.14-1.177.138-2.978 1.452-3.184 1.317-.209 3.743.276 3.466 1.384-.278 1.108-.624.761-1.661.623C.556 4.64 0 6.953 1.87 8.602c1.871 1.65 5.681 4.489 9.906.958 4.226-3.534 3.81-4.643 7.551-5.334v-2.31h3.881v2.1h2.231v3.257h-1.263s-1.038.069-1.592 1.663c-.555 1.593-2.493 4.432-4.227 5.404-1.731.97-3.462 5.475-2.077 8.869 1.386 3.392 4.987 3.806 5.682 3.459.689-.343-.069-2.421 1.453-2.56 1.522-.14 2.077 2.769.9 3.602-1.177.831-4.005 1.286-3.252 1.991.757.709-2.617 2.562-2.617 2.562s-1.197-.397-2.029 1.335c-.831 1.732-4.987 1.87-6.026-.347 0 0-1.107-.482-1.593.556-.485 1.039-3.256 4.226-6.441 3.946C-.833 37.476 0 36.714 0 36.714"
        style="fill:#134a8c;fill-rule:nonzero"
        transform="translate(100.409 129.167)"
    /><path
        d="M2.563-2.563a2.563 2.563 0 1 1 0 5.127 2.563 2.563 0 0 1 0-5.127"
        style="fill:#ffce00;fill-rule:nonzero"
        transform="matrix(0 1 1 0 162.926 145.55)"
    /><path
        d="M0-19.991s1.851 2.049 2.397 8.146C2.944-5.748-1.421 0-5.715-.762c-4.296-.761-2.908-4.986-1.592-5.056 0 0-.707 2.216.276 3.601.985 1.387 5.337.556 6.442-2.494 1.108-3.048.046-8.647-2.85-11.528L0-19.991Z"
        style="fill:#ffce00;fill-rule:nonzero"
        transform="translate(164.831 166.399)"
    /><path
        d="M0-1.87S-.979 0-2.361 0H.483S1.243-1.87 0-1.87"
        style="fill:#ffce00;fill-rule:nonzero"
        transform="translate(164.107 172.151)"
    /><path
        d="M0 17.597s-6.096-4.016-6.787-8.363c-.694-4.349 2.075-5.25 4.016-4.834 1.941.415 2.519 4.907-.677 5.194l1.163 1.049S.414 9.732.624 6.477C.832 3.224-5.61-.035-9.005 5.646c-3.394 5.68 6.373 11.986 6.373 11.986L0 17.597Z"
        style="fill:#ffce00;fill-rule:nonzero"
        transform="translate(160.641 154.519)"
    /><path
        d="M0 1.87s-1.439 1.662-5.295 1.176c-3.855-.484-7.182-5.54-10.298-4.71-3.119.831-2.494 6.028 2.701 6.028h11.155s1.731-.14 2.77-1.87L0 1.87Z"
        style="fill:#ffce00;fill-rule:nonzero"
        transform="translate(156.214 167.787)"
    /><path
        d="M2.699-2.703A2.702 2.702 0 1 1 2.702 2.7a2.702 2.702 0 0 1-.003-5.403"
        style="fill:#fcfae6;fill-rule:nonzero"
        transform="matrix(0 1 1 0 88.182 144.718)"
    /><path
        d="M0-13.755s-1.33 2.443-2.854 4.177C-4.38-7.846-4.795-5.561-4.171-2.235c.624 3.325 3.466 5.402 5.266 3.462l1.731.07S2.549 2.751.331 2.959c-2.216.208-5.68-1.732-6.373-6.026-.691-4.296-.423-11.988 1.729-13.855L0-13.755Z"
        style="fill:#fcfae6;fill-rule:nonzero"
        transform="translate(90.551 162.471)"
    /><path
        d="M0-6.026s.76.206.691 1.384c-.068 1.179-3.045 2.146-3.186-.693-.137-2.838 4.088-4.016 5.819-1.939 1.733 2.077.487 9.906-6.927 12.539h2.702s4.99-2.147 6.719-8.658C7.55-9.907.207-11.291-2.218-9.455c-2.425 1.836-1.385 6.406.139 7.376 0 0 3.117.902 3.948-1.246C2.701-5.473.969-6.441 0-6.026"
        style="fill:#fcfae6;fill-rule:nonzero"
        transform="translate(93.377 166.886)"
    /><path
        d="M0 .307s5.402 3.048 9.25 0c3.844-3.05 4.987-3.355 6.856-2.839 1.872.517 1.872 4.504-2.494 5.679H3.015s-4.122.035-4.711-1.317L0 .307Z"
        style="fill:#fcfae6;fill-rule:nonzero"
        transform="translate(95.073 168.969)"
    /><path
        d="M0-2.391V0h2.701S0-.938 0-2.391"
        style="fill:#fcfae6;fill-rule:nonzero"
        transform="translate(86.554 172.151)"
    /><path
        d="M0-19.19s-5.125-.138-5.609 4.712C-6.093-9.63-3.116-6.029-1.8-4.641-.482-3.257-.553-.764-1.729.138c-1.18.9-6.167.691-5.889-9.663C-7.34-19.883-2.701-20.228 0-19.19"
        style="fill:#ffce00;fill-rule:nonzero"
        transform="translate(91.92 117.633)"
    /><path
        d="M0 5.61s1.314 0 .969-1.388c-.347-1.384-2.288-1.662-3.049 0-.76 1.665 2.633 5.127 5.335 2.773 2.701-2.358-.069-8.657-4.366-11.013-4.294-2.356-4.916.692-4.916.692v-1.939s3.048-1.386 6.233.414C3.395-3.05 5.887 1.038 6.304 5.055c.416 4.019-7.276 7.206-9.49 1.317C-5.405.485.275.553 1.869 2.424 3.463 4.292 1.593 7.063 0 5.61"
        style="fill:#ffce00;fill-rule:nonzero"
        transform="translate(93.031 96.09)"
    /><path
        d="M0-1.8s.14-2.449 3.394-2.449h5.127s6.927-.114 8.936 3.348c2.008 3.464-5.403 3.257-7.896.278C7.066-3.603 1.663-3.464.832-.901L0-1.8Z"
        style="fill:#ffce00;fill-rule:nonzero"
        transform="translate(94.484 94.564)"
    /><path
        d="M-2.841-2.838a2.84 2.84 0 1 1 .004 5.678 2.84 2.84 0 0 1-.004-5.678"
        style="fill:#134a8c;fill-rule:nonzero"
        transform="matrix(0 -1 -1 0 34.485 82.767)"
    /><path
        d="M0 10.963s1.654 2.485 5.948 1.932c4.295-.553 7.275-8.382-1.453-14.964L0-2.485-1.323-.269.061 1.118l2.285-.14s1.748.625 2.052 3.464c.303 2.841-.989 1.871-2.052 2.08C1.283 6.731 0 10.963 0 10.963"
        style="fill:#134a8c;fill-rule:nonzero"
        transform="translate(32.138 76.244)"
    /><path
        d="M0 36.71s6.514-2.839 6.514-7.411c0-4.572.831-9.42.831-9.42H-.344s-6.651-.14-9.494 6.788c0 0-.969-.275-.831-2.009.141-1.732 1.247-4.436 2.703-5.264 1.454-.833 2.701-1.943 1.939-2.772-.76-.832-1.87-2.079-1.523-4.018.348-1.94 2.701-2.218 2.632-3.326-.068-1.106-3.255-2.145-4.986-1.59-1.734.553-.973 2.351.207 2.146 1.177-.21.553 2.977-2.908 2.701-3.465-.277-4.712-4.088-3.951-6.72.763-2.632 7.552-7.135 13.16-.278 0 0 1.594 1.594 1.734.416.139-1.176.139-2.976 1.455-3.186 1.315-.209 3.742.278 3.464 1.384-.277 1.109-.622.764-1.664.626C.554 4.638 0 6.953 1.873 8.6c1.868 1.649 5.679 4.489 9.903.956 4.228-3.533 3.811-4.643 7.552-5.333V1.912h3.878v2.104h2.233v3.253h-1.262s-1.039.072-1.594 1.665c-.554 1.594-2.493 4.433-4.225 5.403-1.732.97-3.462 5.474-2.077 8.867 1.384 3.396 4.987 3.81 5.68 3.465.692-.348-.069-2.427 1.455-2.566 1.522-.138 2.077 2.77.899 3.603-1.177.83-4.006 1.288-3.25 1.994.757.706-2.62 2.56-2.62 2.56s-1.196-.396-2.026 1.336c-.832 1.732-4.988 1.869-6.028-.349 0 0-1.108-.485-1.593.554-.485 1.041-3.255 4.229-6.441 3.951C-.831 37.475 0 36.71 0 36.71"
        style="fill:#134a8c;fill-rule:nonzero"
        transform="translate(16.818 45.5)"
    /><path
        d="M2.842-2.839a2.84 2.84 0 1 0-.004 5.68 2.84 2.84 0 0 0 .004-5.68"
        style="fill:#134a8c;fill-rule:nonzero"
        transform="matrix(0 1 1 0 49.201 82.766)"
    /><path
        d="M0 10.963s-1.653 2.485-5.947 1.932c-4.297-.553-7.274-8.382 1.454-14.964L0-2.485 1.325-.269-.061 1.118l-2.286-.14s-1.747.625-2.049 3.464c-.305 2.841.987 1.871 2.049 2.08C-1.282 6.731 0 10.963 0 10.963"
        style="fill:#134a8c;fill-rule:nonzero"
        transform="translate(51.548 76.244)"
    /><path
        d="M0 36.71s-6.512-2.839-6.512-7.411c0-4.572-.83-9.42-.83-9.42H.345s6.651-.14 9.492 6.788c0 0 .971-.275.831-2.009-.139-1.732-1.249-4.436-2.701-5.264-1.456-.833-2.703-1.943-1.942-2.772.764-.832 1.871-2.079 1.527-4.018-.348-1.94-2.702-2.218-2.633-3.326.068-1.106 3.255-2.145 4.988-1.59 1.73.553.967 2.351-.211 2.146-1.177-.21-.554 2.977 2.911 2.701 3.464-.277 4.709-4.088 3.948-6.72-.76-2.632-7.548-7.135-13.162-.278 0 0-1.592 1.594-1.732.416-.14-1.176-.14-2.976-1.454-3.186-1.315-.209-3.741.278-3.464 1.384.278 1.109.624.764 1.663.626C-.557 4.638 0 6.953-1.87 8.6c-1.871 1.649-5.682 4.489-9.906.956-4.226-3.533-3.81-4.643-7.551-5.333V1.912h-3.879v2.104h-2.233v3.253h1.261s1.04.072 1.594 1.665c.555 1.594 2.493 4.433 4.227 5.403 1.731.97 3.461 5.474 2.077 8.867-1.386 3.396-4.987 3.81-5.68 3.465-.693-.348.068-2.427-1.455-2.566-1.522-.138-2.077 2.77-.899 3.603 1.176.83 4.004 1.288 3.249 1.994-.755.706 2.617 2.56 2.617 2.56s1.2-.396 2.031 1.336c.831 1.732 4.984 1.869 6.026-.349 0 0 1.107-.485 1.594.554.484 1.041 3.255 4.229 6.442 3.951C.831 37.475 0 36.71 0 36.71"
        style="fill:#134a8c;fill-rule:nonzero"
        transform="translate(66.867 45.5)"
    /><path
        d="M-2.839-2.84A2.843 2.843 0 0 0-5.68 0a2.842 2.842 0 0 0 2.841 2.839 2.84 2.84 0 1 0 0-5.679"
        style="fill:#134a8c;fill-rule:nonzero"
        transform="matrix(0 -1 -1 0 34.483 7.155)"
    /><path
        d="M0-10.961s1.654-2.486 5.948-1.933c4.295.556 7.275 8.386-1.453 14.964L0 2.486-1.323.271.061-1.116l2.285.138S4.094-1.6 4.398-4.44c.303-2.839-.989-1.872-2.052-2.079C1.283-6.727 0-10.961 0-10.961"
        style="fill:#134a8c;fill-rule:nonzero"
        transform="translate(32.138 19.353)"
    /><path
        d="M0-36.716s6.514 2.841 6.514 7.414c0 4.57.831 9.42.831 9.42H-.344s-6.651.139-9.494-6.79c0 0-.969.277-.831 2.011.141 1.729 1.247 4.432 2.703 5.264 1.454.831 2.701 1.939 1.939 2.771-.76.83-1.87 2.079-1.523 4.018.348 1.938 2.701 2.217 2.632 3.326-.068 1.108-3.255 2.144-4.986 1.593-1.734-.554-.973-2.357.207-2.149 1.177.207.553-2.98-2.908-2.701-3.465.277-4.712 4.087-3.951 6.719.763 2.631 7.552 7.137 13.16.279 0 0 1.594-1.595 1.734-.418.139 1.178.139 2.978 1.455 3.188 1.315.206 3.742-.277 3.464-1.388-.277-1.107-.622-.76-1.664-.622-1.039.139-1.593-2.175.28-3.825 1.868-1.648 5.679-4.489 9.903-.954 4.228 3.532 3.811 4.643 7.552 5.332v2.31h3.878V-4.02h2.233v-3.257h-1.262s-1.039-.068-1.594-1.661c-.554-1.592-2.493-4.434-4.225-5.403-1.732-.971-3.462-5.474-2.077-8.867 1.384-3.394 4.987-3.809 5.68-3.464.692.346-.069 2.426 1.455 2.562 1.522.138 2.077-2.771.899-3.6-1.177-.833-4.006-1.288-3.25-1.993.757-.707-2.62-2.562-2.62-2.562s-1.196.396-2.026-1.335c-.832-1.732-4.988-1.87-6.028.347 0 0-1.108.482-1.593-.556-.485-1.037-3.255-4.224-6.441-3.946C-.831-37.478 0-36.716 0-36.716"
        style="fill:#134a8c;fill-rule:nonzero"
        transform="translate(16.818 50.104)"
    /><path
        d="M2.84-2.841A2.842 2.842 0 0 1 5.681-.002 2.84 2.84 0 1 1 2.84-2.841"
        style="fill:#134a8c;fill-rule:nonzero"
        transform="matrix(0 1 1 0 49.203 7.154)"
    /><path
        d="M0-10.965s-1.652-2.484-5.944-1.929c-4.296.556-7.276 8.38 1.453 14.963L0 2.484 1.327.267-.057-1.117l-2.286.138s-1.747-.625-2.053-3.464c-.301-2.84.988-1.873 2.053-2.079C-1.28-6.729 0-10.965 0-10.965"
        style="fill:#134a8c;fill-rule:nonzero"
        transform="translate(52.983 20.098)"
    /><path
        d="M0-36.716s-6.512 2.841-6.512 7.414c0 4.57-.83 9.42-.83 9.42H.345s6.651.139 9.492-6.79c0 0 .971.277.831 2.011-.139 1.729-1.249 4.432-2.701 5.264-1.456.831-2.703 1.939-1.942 2.771.764.83 1.871 2.079 1.527 4.018-.348 1.938-2.702 2.217-2.633 3.326.068 1.108 3.255 2.144 4.988 1.593 1.73-.554.967-2.357-.211-2.149-1.177.207-.554-2.98 2.911-2.701 3.464.277 4.709 4.087 3.948 6.719-.76 2.631-7.548 7.137-13.162.279 0 0-1.592-1.595-1.732-.418-.14 1.178-.14 2.978-1.454 3.188-1.315.206-3.741-.277-3.464-1.388.278-1.107.624-.76 1.663-.622C-.557-4.642 0-6.956-1.87-8.606c-1.871-1.648-5.682-4.489-9.906-.954-4.226 3.532-3.81 4.643-7.551 5.332v2.31h-3.879V-4.02h-2.233v-3.257h1.261s1.04-.068 1.594-1.661c.555-1.592 2.493-4.434 4.227-5.403 1.731-.971 3.461-5.474 2.077-8.867-1.386-3.394-4.987-3.809-5.68-3.464-.693.346.068 2.426-1.455 2.562-1.522.138-2.077-2.771-.899-3.6 1.176-.833 4.004-1.288 3.249-1.993-.755-.707 2.617-2.562 2.617-2.562s1.2.396 2.031-1.335c.831-1.732 4.984-1.87 6.026.347 0 0 1.107.482 1.594-.556.484-1.037 3.255-4.224 6.442-3.946C.831-37.478 0-36.716 0-36.716"
        style="fill:#134a8c;fill-rule:nonzero"
        transform="translate(66.867 50.104)"
    /><path
        d="M-2.563-2.563a2.562 2.562 0 1 1 0 5.126 2.564 2.564 0 1 1 0-5.126"
        style="fill:#ffce00;fill-rule:nonzero"
        transform="matrix(0 -1 -1 0 4.351 28.594)"
    /><path
        d="M0 19.989s-1.851-2.051-2.397-8.145C-2.946 5.746 1.421 0 5.715.76c4.296.76 2.908 4.986 1.594 5.056 0 0 .705-2.216-.278-3.601C6.046.829 1.696 1.661.589 4.709-.519 7.755.543 13.358 3.44 16.237L0 19.989Z"
        style="fill:#ffce00;fill-rule:nonzero"
        transform="translate(2.445 12.872)"
    /><path
        d="M0 1.874S.979 0 2.358 0H-.484s-.76 1.874.484 1.874"
        style="fill:#ffce00;fill-rule:nonzero"
        transform="translate(3.171 7.118)"
    /><path
        d="M0-17.599s6.097 4.014 6.786 8.363C7.48-4.885 4.709-3.985 2.77-4.402.831-4.818.251-9.309 3.447-9.596l-1.163-1.047s-2.701.908-2.909 4.164c-.208 3.255 6.234 6.514 9.629.831 3.394-5.68-6.372-11.986-6.372-11.986L0-17.599Z"
        style="fill:#ffce00;fill-rule:nonzero"
        transform="translate(6.637 24.753)"
    /><path
        d="M0-1.87s1.439-1.662 5.296-1.178c3.857.488 7.182 5.542 10.298 4.712 3.119-.831 2.495-6.028-2.701-6.028H1.738S.007-4.224-1.03-2.49L0-1.87Z"
        style="fill:#ffce00;fill-rule:nonzero"
        transform="translate(11.061 11.483)"
    /><path
        d="M-2.702-2.701a2.7 2.7 0 1 1-2.7 2.703 2.7 2.7 0 0 1 2.7-2.703"
        style="fill:#fcfae6;fill-rule:nonzero"
        transform="matrix(0 -1 -1 0 79.096 29.148)"
    /><path
        d="M0 13.751s1.33-2.444 2.854-4.175c1.524-1.731 1.941-4.018 1.317-7.345C3.549-1.092.707-3.171-1.095-1.232L-2.824-1.3s.275-1.455 2.492-1.663c2.217-.208 5.681 1.731 6.374 6.028.691 4.294.423 11.986-1.729 13.857L0 13.751Z"
        style="fill:#fcfae6;fill-rule:nonzero"
        transform="translate(76.726 16.802)"
    /><path
        d="M0 6.03s-.764-.207-.693-1.387c.068-1.177 3.046-2.145 3.185.694.138 2.839-4.087 4.018-5.82 1.938-1.729-2.076-.483-9.903 6.929-12.538H.899s-4.99 2.149-6.719 8.66c-1.732 6.512 5.611 7.896 8.036 6.061 2.424-1.835 1.385-6.405-.141-7.375 0 0-3.117-.903-3.948 1.246C-2.703 5.475-.971 6.445 0 6.03"
        style="fill:#fcfae6;fill-rule:nonzero"
        transform="translate(73.901 12.382)"
    /><path
        d="M0-.309s-5.404-3.048-9.248 0c-3.844 3.05-4.986 3.357-6.86 2.841-1.868-.519-1.868-4.505 2.496-5.681h10.597s4.12-.035 4.713 1.318L0-.309Z"
        style="fill:#fcfae6;fill-rule:nonzero"
        transform="translate(72.203 10.303)"
    /><path
        d="M0 2.393V0h-2.701S0 .935 0 2.393"
        style="fill:#fcfae6;fill-rule:nonzero"
        transform="translate(80.723 7.118)"
    /><path
        d="M0 19.192s5.127.137 5.611-4.712c.485-4.85-2.493-8.451-3.809-9.837C.486 3.257.555.764 1.731-.136c1.178-.901 6.167-.693 5.891 9.663C7.344 19.883 2.701 20.229 0 19.192"
        style="fill:#ffce00;fill-rule:nonzero"
        transform="translate(75.354 61.636)"
    /><path
        d="M0-5.606s-1.316 0-.971 1.384c.347 1.387 2.287 1.664 3.049 0 .761-1.661-2.633-5.125-5.335-2.771-2.701 2.356.07 8.658 4.364 11.015 4.294 2.354 4.92-.692 4.92-.692v1.939S2.978 6.653-.208 4.852c-3.188-1.8-5.681-5.888-6.098-9.905C-6.722-9.071.97-12.259 3.186-6.37 5.401-.481-.277-.549-1.87-2.42-3.465-4.293-1.595-7.061 0-5.606"
        style="fill:#ffce00;fill-rule:nonzero"
        transform="translate(74.247 83.178)"
    /><path
        d="M0 1.802s-.142 2.447-3.394 2.447h-5.127s-6.927.116-8.938-3.348c-2.008-3.464 5.404-3.255 7.898-.279 2.497 2.981 7.9 2.844 8.731.279l.83.901Z"
        style="fill:#ffce00;fill-rule:nonzero"
        transform="translate(72.792 84.705)"
    /><path
        d="M2.842-2.838a2.841 2.841 0 1 0-.002 5.682 2.841 2.841 0 0 0 .002-5.682"
        style="fill:#134a8c;fill-rule:nonzero"
        transform="matrix(0 1 1 0 132.791 82.766)"
    /><path
        d="M0 10.963s-1.653 2.485-5.948 1.932c-4.293-.553-7.275-8.382 1.455-14.964L0-2.485 1.325-.269-.059 1.118l-2.287-.14s-1.748.625-2.051 3.464c-.304 2.841.988 1.871 2.051 2.08C-1.281 6.731 0 10.963 0 10.963"
        style="fill:#134a8c;fill-rule:nonzero"
        transform="translate(135.139 76.244)"
    /><path
        d="M0 36.71s-6.512-2.839-6.512-7.411c0-4.572-.831-9.42-.831-9.42H.344s6.651-.14 9.494 6.788c0 0 .969-.275.831-2.009-.141-1.732-1.249-4.436-2.703-5.264-1.454-.833-2.701-1.943-1.939-2.772.762-.832 1.869-2.079 1.523-4.018-.345-1.94-2.7-2.218-2.633-3.326.069-1.106 3.256-2.145 4.988-1.59 1.734.553.97 2.351-.208 2.146-1.177-.21-.553 2.977 2.91 2.701 3.464-.277 4.71-4.088 3.949-6.72-.761-2.632-7.552-7.135-13.162-.278 0 0-1.594 1.594-1.731.416-.142-1.176-.14-2.976-1.456-3.186-1.315-.209-3.742.278-3.463 1.384.277 1.109.621.764 1.661.626C-.556 4.638 0 6.953-1.871 8.6c-1.87 1.649-5.681 4.489-9.907.956-4.224-3.533-3.809-4.643-7.55-5.333V1.912h-3.88v2.104h-2.231v3.253h1.262s1.038.072 1.594 1.665c.554 1.594 2.491 4.433 4.225 5.403 1.731.97 3.462 5.474 2.079 8.867-1.386 3.396-4.989 3.81-5.681 3.465-.693-.348.068-2.427-1.456-2.566-1.521-.138-2.076 2.77-.898 3.603 1.175.83 4.007 1.288 3.249 1.994-.755.706 2.62 2.56 2.62 2.56s1.194-.396 2.027 1.336c.831 1.732 4.987 1.869 6.027-.349 0 0 1.108-.485 1.593.554.485 1.041 3.253 4.229 6.443 3.951C.831 37.475 0 36.71 0 36.71"
        style="fill:#134a8c;fill-rule:nonzero"
        transform="translate(150.458 45.5)"
    /><path
        d="M-2.842-2.839a2.84 2.84 0 1 1 .004 5.68 2.84 2.84 0 0 1-.004-5.68"
        style="fill:#134a8c;fill-rule:nonzero"
        transform="matrix(0 -1 -1 0 118.075 82.766)"
    /><path
        d="M0 10.963s1.653 2.485 5.947 1.932c4.295-.553 7.275-8.382-1.454-14.964L0-2.485-1.325-.269.059 1.118l2.288-.14s1.747.625 2.05 3.464c.304 2.841-.988 1.871-2.05 2.08C1.282 6.731 0 10.963 0 10.963"
        style="fill:#134a8c;fill-rule:nonzero"
        transform="translate(115.728 76.244)"
    /><path
        d="M0 36.71s6.512-2.839 6.512-7.411c0-4.572.83-9.42.83-9.42H-.346s-6.65-.14-9.489 6.788c0 0-.972-.275-.833-2.009.14-1.732 1.247-4.436 2.701-5.264 1.456-.833 2.703-1.943 1.94-2.772-.762-.832-1.869-2.079-1.523-4.018.346-1.94 2.702-2.218 2.631-3.326-.068-1.106-3.255-2.145-4.987-1.59-1.733.553-.968 2.351.21 2.146 1.175-.21.552 2.977-2.911 2.701-3.462-.277-4.711-4.088-3.948-6.72.76-2.632 7.55-7.135 13.162-.278 0 0 1.594 1.594 1.732.416.14-1.176.138-2.976 1.452-3.186 1.317-.209 3.743.278 3.466 1.384-.278 1.109-.624.764-1.661.626C.556 4.638 0 6.953 1.87 8.6c1.871 1.649 5.681 4.489 9.906.956 4.226-3.533 3.81-4.643 7.551-5.333V1.912h3.881v2.104h2.231v3.253h-1.263s-1.038.072-1.592 1.665c-.555 1.594-2.493 4.433-4.227 5.403-1.731.97-3.462 5.474-2.077 8.867 1.386 3.396 4.987 3.81 5.682 3.465.689-.348-.069-2.427 1.453-2.566 1.522-.138 2.077 2.77.9 3.603-1.177.83-4.005 1.288-3.252 1.994.757.706-2.617 2.56-2.617 2.56s-1.197-.396-2.029 1.336c-.831 1.732-4.987 1.869-6.026-.349 0 0-1.107-.485-1.593.554-.485 1.041-3.256 4.229-6.441 3.951C-.833 37.475 0 36.71 0 36.71"
        style="fill:#134a8c;fill-rule:nonzero"
        transform="translate(100.409 45.5)"
    /><path
        d="M2.839-2.841a2.84 2.84 0 1 1 0 5.68 2.84 2.84 0 0 1 0-5.68"
        style="fill:#134a8c;fill-rule:nonzero"
        transform="matrix(0 1 1 0 132.793 7.154)"
    /><path
        d="M0-10.961s-1.653-2.486-5.948-1.933c-4.293.556-7.275 8.386 1.455 14.964L0 2.486 1.325.271-.059-1.116l-2.287.138S-4.094-1.6-4.397-4.44c-.304-2.839.988-1.872 2.051-2.079C-1.281-6.727 0-10.961 0-10.961"
        style="fill:#134a8c;fill-rule:nonzero"
        transform="translate(135.139 19.353)"
    /><path
        d="M0-36.716s-6.512 2.841-6.512 7.414c0 4.57-.831 9.42-.831 9.42H.344s6.651.139 9.494-6.79c0 0 .969.277.831 2.011-.141 1.729-1.249 4.432-2.703 5.264-1.454.831-2.701 1.939-1.939 2.771.762.83 1.869 2.079 1.523 4.018-.345 1.938-2.7 2.217-2.633 3.326.069 1.108 3.256 2.144 4.988 1.593 1.734-.554.97-2.357-.208-2.149-1.177.207-.553-2.98 2.91-2.701 3.464.277 4.71 4.087 3.949 6.719-.761 2.631-7.552 7.137-13.162.279 0 0-1.594-1.595-1.731-.418-.142 1.178-.14 2.978-1.456 3.188-1.315.206-3.742-.277-3.463-1.388.277-1.107.621-.76 1.661-.622C-.556-4.642 0-6.956-1.871-8.606c-1.87-1.648-5.681-4.489-9.907-.954-4.224 3.532-3.809 4.643-7.55 5.332v2.31h-3.88V-4.02h-2.231v-3.257h1.262s1.038-.068 1.594-1.661c.554-1.592 2.491-4.434 4.225-5.403 1.731-.971 3.462-5.474 2.079-8.867-1.386-3.394-4.989-3.809-5.681-3.464-.693.346.068 2.426-1.456 2.562-1.521.138-2.076-2.771-.898-3.6 1.175-.833 4.007-1.288 3.249-1.993-.755-.707 2.62-2.562 2.62-2.562s1.194.396 2.027-1.335c.831-1.732 4.987-1.87 6.027.347 0 0 1.108.482 1.593-.556.485-1.037 3.253-4.224 6.443-3.946C.831-37.478 0-36.716 0-36.716"
        style="fill:#134a8c;fill-rule:nonzero"
        transform="translate(150.458 50.104)"
    /><path
        d="M-2.84-2.841A2.842 2.842 0 0 0-5.681-.002 2.84 2.84 0 1 0-2.84-2.841"
        style="fill:#134a8c;fill-rule:nonzero"
        transform="matrix(0 -1 -1 0 118.073 7.154)"
    /><path
        d="M0-10.961s1.653-2.486 5.947-1.933c4.295.556 7.275 8.386-1.454 14.964L0 2.486-1.325.271.059-1.116l2.288.138S4.094-1.6 4.397-4.44c.304-2.839-.988-1.872-2.05-2.079C1.282-6.727 0-10.961 0-10.961"
        style="fill:#134a8c;fill-rule:nonzero"
        transform="translate(115.728 19.353)"
    /><path
        d="M0-36.716s6.512 2.841 6.512 7.414c0 4.57.83 9.42.83 9.42H-.346s-6.65.139-9.489-6.79c0 0-.972.277-.833 2.011.14 1.729 1.247 4.432 2.701 5.264 1.456.831 2.703 1.939 1.94 2.771-.762.83-1.869 2.079-1.523 4.018.346 1.938 2.702 2.217 2.631 3.326-.068 1.108-3.255 2.144-4.987 1.593-1.733-.554-.968-2.357.21-2.149 1.175.207.552-2.98-2.911-2.701-3.462.277-4.711 4.087-3.948 6.719.76 2.631 7.55 7.137 13.162.279 0 0 1.594-1.595 1.732-.418.14 1.178.138 2.978 1.452 3.188 1.317.206 3.743-.277 3.466-1.388-.278-1.107-.624-.76-1.661-.622C.556-4.642 0-6.956 1.87-8.606c1.871-1.648 5.681-4.489 9.906-.954 4.226 3.532 3.81 4.643 7.551 5.332v2.31h3.881V-4.02h2.231v-3.257h-1.263s-1.038-.068-1.592-1.661c-.555-1.592-2.493-4.434-4.227-5.403-1.731-.971-3.462-5.474-2.077-8.867 1.386-3.394 4.987-3.809 5.682-3.464.689.346-.069 2.426 1.453 2.562 1.522.138 2.077-2.771.9-3.6-1.177-.833-4.005-1.288-3.252-1.993.757-.707-2.617-2.562-2.617-2.562s-1.197.396-2.029-1.335c-.831-1.732-4.987-1.87-6.026.347 0 0-1.107.482-1.593-.556-.485-1.037-3.256-4.224-6.441-3.946C-.833-37.478 0-36.716 0-36.716"
        style="fill:#134a8c;fill-rule:nonzero"
        transform="translate(100.409 50.104)"
    /><path
        d="M2.563-2.563a2.563 2.563 0 1 0 0 5.126 2.562 2.562 0 1 0 0-5.126"
        style="fill:#ffce00;fill-rule:nonzero"
        transform="matrix(0 1 1 0 162.926 28.595)"
    /><path
        d="M0 19.989s1.851-2.051 2.397-8.145C2.944 5.746-1.421 0-5.715.76c-4.296.76-2.908 4.986-1.592 5.056 0 0-.707-2.216.276-3.601.985-1.386 5.337-.554 6.442 2.494 1.108 3.046.046 8.649-2.85 11.528L0 19.989Z"
        style="fill:#ffce00;fill-rule:nonzero"
        transform="translate(164.831 12.872)"
    /><path
        d="M0 1.874S-.979 0-2.361 0H.483S1.243 1.874 0 1.874"
        style="fill:#ffce00;fill-rule:nonzero"
        transform="translate(164.107 7.118)"
    /><path
        d="M0-17.599s-6.096 4.014-6.787 8.363c-.694 4.351 2.075 5.251 4.016 4.834 1.941-.416 2.519-4.907-.677-5.194l1.163-1.047S.414-9.735.624-6.479C.832-3.224-5.61.035-9.005-5.648c-3.394-5.68 6.373-11.986 6.373-11.986L0-17.599Z"
        style="fill:#ffce00;fill-rule:nonzero"
        transform="translate(160.641 24.753)"
    /><path
        d="M0-1.87s-1.439-1.662-5.295-1.178c-3.855.488-7.182 5.542-10.298 4.712-3.119-.831-2.494-6.028 2.701-6.028h11.155s1.731.14 2.77 1.874L0-1.87Z"
        style="fill:#ffce00;fill-rule:nonzero"
        transform="translate(156.214 11.483)"
    /><path
        d="M2.701-2.701a2.7 2.7 0 1 0 0 5.402 2.7 2.7 0 1 0 0-5.402"
        style="fill:#fcfae6;fill-rule:nonzero"
        transform="matrix(0 1 1 0 88.18 29.148)"
    /><path
        d="M0 13.751s-1.33-2.444-2.854-4.175C-4.38 7.845-4.795 5.558-4.171 2.231c.624-3.323 3.466-5.402 5.266-3.463L2.826-1.3S2.549-2.755.331-2.963c-2.216-.208-5.68 1.731-6.373 6.028-.691 4.294-.423 11.986 1.729 13.857L0 13.751Z"
        style="fill:#fcfae6;fill-rule:nonzero"
        transform="translate(90.551 16.802)"
    /><path
        d="M0 6.03s.76-.207.691-1.387c-.068-1.177-3.045-2.145-3.186.694-.137 2.839 4.088 4.018 5.819 1.938 1.733-2.076.487-9.903-6.927-12.538h2.702s4.99 2.149 6.719 8.66C7.55 9.909.207 11.293-2.218 9.458s-1.385-6.405.139-7.375c0 0 3.117-.903 3.948 1.246C2.701 5.475.969 6.445 0 6.03"
        style="fill:#fcfae6;fill-rule:nonzero"
        transform="translate(93.377 12.382)"
    /><path
        d="M0-.309s5.402-3.048 9.25 0c3.844 3.05 4.987 3.357 6.856 2.841 1.872-.519 1.872-4.505-2.494-5.681H3.015s-4.122-.035-4.711 1.318L0-.309Z"
        style="fill:#fcfae6;fill-rule:nonzero"
        transform="translate(95.073 10.303)"
    /><path
        d="M0 2.393V0h2.701S0 .935 0 2.393"
        style="fill:#fcfae6;fill-rule:nonzero"
        transform="translate(86.554 7.118)"
    /><path
        d="M0 19.192s-5.125.137-5.609-4.712C-6.093 9.63-3.116 6.029-1.8 4.643-.482 3.257-.553.764-1.729-.136c-1.18-.901-6.167-.693-5.889 9.663C-7.34 19.883-2.701 20.229 0 19.192"
        style="fill:#ffce00;fill-rule:nonzero"
        transform="translate(91.92 61.636)"
    /><path
        d="M0-5.606s1.314 0 .969 1.384c-.347 1.387-2.288 1.664-3.049 0-.76-1.661 2.633-5.125 5.335-2.771 2.701 2.356-.069 8.658-4.366 11.015-4.294 2.354-4.916-.692-4.916-.692v1.939s3.048 1.384 6.233-.417c3.189-1.8 5.681-5.888 6.098-9.905.416-4.018-7.276-7.206-9.49-1.317C-5.405-.481.275-.549 1.869-2.42 3.463-4.293 1.593-7.061 0-5.606"
        style="fill:#ffce00;fill-rule:nonzero"
        transform="translate(93.031 83.178)"
    /><path
        d="M0 1.802s.14 2.447 3.394 2.447h5.127s6.927.116 8.936-3.348c2.008-3.464-5.403-3.255-7.896-.279C7.066 3.603 1.663 3.466.832.901L0 1.802Z"
        style="fill:#ffce00;fill-rule:nonzero"
        transform="translate(94.484 84.705)"
    /><path
        d="M0 5.402A2.701 2.701 0 1 0-.002 0 2.701 2.701 0 0 0 0 5.402"
        style="fill:#fcfae6;fill-rule:nonzero"
        transform="translate(142.546 82.485)"
    /><path
        d="M0-3.903s2.444 1.327 4.177 2.852C5.907.475 8.193.89 11.518.266 14.844-.358 16.922-3.198 14.982-5l.07-1.73s1.454.276 1.662 2.495c.208 2.215-1.734 5.68-6.026 6.372-4.294.69-11.991.422-13.857-1.728L0-3.903Z"
        style="fill:#fcfae6;fill-rule:nonzero"
        transform="translate(143.843 86.72)"
    /><path
        d="M0 2.913s.209-.762 1.387-.693c1.176.07 2.146 3.048-.695 3.188-2.84.137-4.018-4.092-1.938-5.822C.831-2.145 8.659-.897 11.292 6.515V3.812S9.144-1.174 2.633-2.907C-3.879-4.641-5.263 2.705-3.43 5.131c1.837 2.423 6.409 1.384 7.38-.141 0 0 .898-3.116-1.248-3.946C.556.21-.415 1.943 0 2.913"
        style="fill:#fcfae6;fill-rule:nonzero"
        transform="translate(155.984 77.077)"
    /><path
        d="M0 16.278s3.05-5.402 0-9.246C-3.05 3.186-3.358 2.044-2.841.173c.519-1.871 4.505-1.871 5.682 2.495v10.597s.033 4.121-1.319 4.711L0 16.278Z"
        style="fill:#fcfae6;fill-rule:nonzero"
        transform="translate(164.402 62.013)"
    /><path
        d="M0 2.701h2.39V0S1.453 2.701 0 2.701"
        style="fill:#fcfae6;fill-rule:nonzero"
        transform="translate(164.887 84.11)"
    /><path
        d="M-.003-5.402A2.702 2.702 0 1 0 0 .001a2.702 2.702 0 0 0-.003-5.403"
        style="fill:#fcfae6;fill-rule:nonzero"
        transform="matrix(-1 0 0 1 142.543 96.762)"
    /><path
        d="M0 3.906s2.444-1.33 4.177-2.854C5.907-.472 8.193-.887 11.518-.265c3.326.623 5.404 3.465 3.464 5.267l.07 1.731s1.454-.278 1.662-2.496c.208-2.216-1.734-5.68-6.026-6.372C6.394-2.827-1.303-2.557-3.169-.407L0 3.906Z"
        style="fill:#fcfae6;fill-rule:nonzero"
        transform="translate(143.843 92.525)"
    /><path
        d="M0-2.906s.209.759 1.387.69c1.176-.068 2.146-3.047-.695-3.186-2.84-.138-4.018 4.089-1.938 5.82C.831 2.15 8.659.904 11.292-6.51v2.702S9.144 1.18 2.633 2.911c-6.512 1.732-7.896-5.61-6.063-8.037 1.837-2.423 6.409-1.384 7.38.14 0 0 .898 3.119-1.248 3.948C.556-.206-.415-1.936 0-2.906"
        style="fill:#fcfae6;fill-rule:nonzero"
        transform="translate(155.984 102.164)"
    /><path
        d="M0-16.279s3.05 5.401 0 9.247C-3.05-3.188-3.358-2.043-2.841-.174c.519 1.87 4.505 1.87 5.682-2.493v-10.598s.033-4.122-1.319-4.71L0-16.279Z"
        style="fill:#fcfae6;fill-rule:nonzero"
        transform="translate(164.402 117.233)"
    /><path
        d="M0-2.702h2.39V0S1.453-2.702 0-2.702"
        style="fill:#fcfae6;fill-rule:nonzero"
        transform="translate(164.887 95.136)"
    /></svg>
