<svg
    xmlns="http://www.w3.org/2000/svg"
    xml:space="preserve"
    style="fill-rule:evenodd;clip-rule:evenodd;stroke-linejoin:round;stroke-miterlimit:2"
    viewBox="0 0 168 181"
><path d="M0 179.973h168V360H0z" style="fill:#fcfae6" transform="translate(0 -179.973)" /><path
        d="M0-50.364s-11.25-12.82-58.22-4.47c0 0-4.709 41.723 1.945 53.627l-.003.001s3.121 5.787 6.753 8.317l.056.036c4.225 3.533 9.656 5.673 15.595 5.673 11.712 0 21.491-8.272 23.818-19.292 11.544-1.908 20.35-11.932 20.35-24.016 0-8.209-4.067-15.466-10.294-19.876"
        style="fill:#ef4848;fill-rule:nonzero"
        transform="translate(80.626 82.588)"
    /><path
        d="M0-7.186s-2.262-6.029-17.451-3.553c0 0-2.478 13.933 3.232 16.768H0V-7.186Z"
        style="fill:#ffce00;fill-rule:nonzero"
        transform="translate(84.026 83.255)"
    /><path
        d="M0-23.7s-3.771 2.585-2.585 3.985c1.185 1.401 7.755 3.56 8.294 7.597C6.248-8.08 1.831-3.879-.323-3.34c-2.155.538-3.77 3.232.43 5.494 0 0-6.894 1.832-9.695 0s-3.221-7.148-2.046-9.372c0 0-6.679-1.831-7.433-3.554 0 0 3.015-3.125 6.894-4.202 0 0-.431-7.541 4.201-10.126C-3.339-27.686 0-23.7 0-23.7"
        style="fill:#1b59b2;fill-rule:nonzero"
        transform="translate(19.067 100.845)"
    /><path
        d="M0-23.592s-2.585 4.739 2.37 6.463c4.955 1.725 5.818 2.909 6.032 5.495.216 2.584-4.631 3.774-6.57 5.551C-.108-4.309-2.047-2.155.539 0c0 0-3.664 0-3.987-3.986-.323-3.985 1.617-5.168 0-5.438-1.615-.271-3.986-2.372-3.986-2.372s1.617-2.316 5.495-2.639c0 0-4.956-5.386 1.939-9.157"
        style="fill:#ffce00;fill-rule:nonzero"
        transform="translate(13.681 101.491)"
    /><path
        d="M-3.178-3.178a3.178 3.178 0 1 0 0 6.356 3.178 3.178 0 0 0 0-6.356"
        style="fill:#1b59b2;fill-rule:nonzero"
        transform="matrix(0 -1 -1 0 13.304 64.219)"
    /><path
        d="M-2.444-2.443a2.443 2.443 0 1 0 0 4.886 2.443 2.443 0 0 0 0-4.886"
        style="fill:#ffce00;fill-rule:nonzero"
        transform="matrix(0 -1 -1 0 13.305 56.03)"
    /><path
        d="M-3.177-3.179a3.178 3.178 0 1 1-.002 6.356 3.178 3.178 0 0 1 .002-6.356"
        style="fill:#1b59b2;fill-rule:nonzero"
        transform="matrix(0 -1 -1 0 13.303 109.598)"
    /><path
        d="M-2.443-2.443a2.443 2.443 0 1 1 0 4.885 2.443 2.443 0 0 1 0-4.885"
        style="fill:#ffce00;fill-rule:nonzero"
        transform="matrix(0 -1 -1 0 13.304 119.255)"
    /><path
        d="M-3.177-3.179a3.178 3.178 0 1 1-.002 6.356 3.178 3.178 0 0 1 .002-6.356"
        style="fill:#1b59b2;fill-rule:nonzero"
        transform="matrix(0 -1 -1 0 155.587 109.598)"
    /><path
        d="M-2.443-2.443a2.444 2.444 0 1 1-.001 4.885 2.444 2.444 0 0 1 .001-4.885"
        style="fill:#ffce00;fill-rule:nonzero"
        transform="matrix(0 -1 -1 0 155.587 119.255)"
    /><path
        d="M-13.357-32.802s7.328 12.474-.376 20.861c0 0 7.211 7.089.375 17.38L5.758-14.14l-19.115-18.662Z"
        style="fill:#ef4848;fill-rule:nonzero"
        transform="scale(-1 1) rotate(-44.314 20.24 0)"
    /><path
        d="M0-50.364s11.251-12.82 58.219-4.47c0 0 4.71 41.723-1.944 53.627l.002.001s-3.121 5.787-6.753 8.317a.792.792 0 0 1-.057.036c-4.223 3.533-9.654 5.673-15.594 5.673-11.712 0-21.49-8.272-23.817-19.292C-1.488-8.38-10.295-18.404-10.295-30.488c0-8.209 4.069-15.466 10.295-19.876"
        style="fill:#ef4848;fill-rule:nonzero"
        transform="translate(87.373 82.588)"
    /><path
        d="M0-7.186s2.263-6.029 17.452-3.553c0 0 2.478 13.933-3.231 16.768H0V-7.186Z"
        style="fill:#ffce00;fill-rule:nonzero"
        transform="translate(83.972 83.255)"
    /><path
        d="M0-23.7s3.77 2.585 2.587 3.985c-1.186 1.401-7.757 3.56-8.297 7.597C-6.249-8.08-1.831-3.879.324-3.34c2.154.538 3.77 3.232-.431 5.494 0 0 6.894 1.832 9.694 0 2.801-1.832 3.223-7.148 2.048-9.372 0 0 6.678-1.831 7.433-3.554 0 0-3.018-3.125-6.895-4.202 0 0 .431-7.541-4.201-10.126C3.341-27.686 0-23.7 0-23.7"
        style="fill:#1b59b2;fill-rule:nonzero"
        transform="translate(148.932 100.845)"
    /><path
        d="M0-23.592s2.586 4.739-2.37 6.463c-4.956 1.725-5.817 2.909-6.032 5.495-.215 2.584 4.631 3.774 6.571 5.551C.108-4.309 2.047-2.155-.538 0c0 0 3.663 0 3.986-3.986.323-3.985-1.615-5.168 0-5.438 1.614-.271 3.986-2.372 3.986-2.372s-1.616-2.316-5.496-2.639c0 0 4.957-5.386-1.938-9.157"
        style="fill:#ffce00;fill-rule:nonzero"
        transform="translate(154.317 101.491)"
    /><path
        d="M3.177-3.177a3.177 3.177 0 1 1 0 6.354 3.177 3.177 0 1 1 0-6.354"
        style="fill:#1b59b2;fill-rule:nonzero"
        transform="matrix(0 1 1 0 154.696 64.22)"
    /><path
        d="M2.444-2.443A2.442 2.442 0 0 1 4.887.001a2.444 2.444 0 1 1-2.443-2.444"
        style="fill:#ffce00;fill-rule:nonzero"
        transform="matrix(0 1 1 0 154.695 56.03)"
    /><path
        d="M0-12.817s2.585 3.769 3.986 2.584c1.4-1.184 3.558-7.756 7.596-8.294 4.039-.539 8.239 3.878 8.779 6.032.537 2.155 3.231 3.77 5.493-.43 0 0 1.831 6.893 0 9.696-1.831 2.801-7.148 3.221-9.371 2.046 0 0-1.832 6.677-3.556 7.432 0 0-3.124-3.015-4.201-6.894 0 0-7.541.432-10.126-4.201C-3.986-9.478 0-12.817 0-12.817"
        style="fill:#1b59b2;fill-rule:nonzero"
        transform="translate(71.059 167.836)"
    /><path
        d="M0 1.184S4.739 3.77 6.463-1.185c1.725-4.956 2.909-5.817 5.495-6.033 2.585-.216 3.774 4.632 5.549 6.572 1.776 1.937 3.93 3.877 6.085 1.291 0 0 0 3.664-3.986 3.987-3.986.323-5.167-1.616-5.438 0-.272 1.616-2.372 3.986-2.372 3.986S9.48 7.002 9.157 3.123c0 0-5.386 4.957-9.157-1.939"
        style="fill:#ffce00;fill-rule:nonzero"
        transform="translate(71.813 159.22)"
    /><path
        d="M0-6.357A3.178 3.178 0 1 0 0 .001a3.178 3.178 0 0 0 0-6.358"
        style="fill:#1b59b2;fill-rule:nonzero"
        transform="matrix(-1 0 0 1 61.31 163.96)"
    /><path
        d="M0-4.887A2.445 2.445 0 0 0 0 0a2.445 2.445 0 0 0 0-4.887"
        style="fill:#ffce00;fill-rule:nonzero"
        transform="matrix(-1 0 0 1 52.388 163.224)"
    /><path
        d="M0-6.357A3.178 3.178 0 1 1 0 0a3.18 3.18 0 0 1 0-6.357"
        style="fill:#1b59b2;fill-rule:nonzero"
        transform="matrix(-1 0 0 1 106.689 163.96)"
    /><path
        d="M0-4.887A2.444 2.444 0 1 1-.002.001 2.444 2.444 0 0 1 0-4.887"
        style="fill:#ffce00;fill-rule:nonzero"
        transform="matrix(-1 0 0 1 115.611 163.224)"
    /><path
        d="M0-6.356A3.178 3.178 0 1 1 0 0a3.178 3.178 0 0 1 0-6.356"
        style="fill:#1b59b2;fill-rule:nonzero"
        transform="matrix(-1 0 0 1 106.689 21.675)"
    /><path
        d="M0-4.887A2.443 2.443 0 1 1 0 0a2.443 2.443 0 1 1 0-4.887"
        style="fill:#ffce00;fill-rule:nonzero"
        transform="matrix(-1 0 0 1 115.611 20.94)"
    /><path
        d="M0 12.821s2.585-3.772 3.986-2.586c1.4 1.186 3.558 7.755 7.596 8.295 4.039.538 8.239-3.878 8.779-6.032.537-2.155 3.231-3.771 5.493.43 0 0 1.831-6.895 0-9.696S18.706.011 16.483 1.187c0 0-1.832-6.681-3.556-7.434 0 0-3.124 3.016-4.201 6.894 0 0-7.541-.43-10.126 4.201C-3.986 9.481 0 12.821 0 12.821"
        style="fill:#1b59b2;fill-rule:nonzero"
        transform="translate(71.059 12.333)"
    /><path
        d="M0-1.187s4.739-2.585 6.463 2.371c1.725 4.955 2.909 5.817 5.495 6.032 2.585.216 3.774-4.632 5.549-6.57 1.776-1.94 3.93-3.879 6.085-1.293 0 0 0-3.664-3.986-3.987-3.986-.323-5.167 1.616-5.438 0-.272-1.615-2.372-3.985-2.372-3.985S9.48-7.003 9.157-3.125c0 0-5.386-4.956-9.157 1.938"
        style="fill:#ffce00;fill-rule:nonzero"
        transform="translate(71.813 20.954)"
    /><path
        d="M0 6.355A3.177 3.177 0 1 0 0 0a3.178 3.178 0 1 0 0 6.355"
        style="fill:#1b59b2;fill-rule:nonzero"
        transform="translate(61.31 16.213)"
    /><path
        d="M0 4.886A2.443 2.443 0 1 0 0-.001a2.443 2.443 0 0 0 0 4.887"
        style="fill:#ffce00;fill-rule:nonzero"
        transform="translate(52.388 16.948)"
    /><path
        d="M13.359-32.803s-7.329 12.475.374 20.863c0 0-7.21 7.088-.374 17.38L-5.758-14.138l19.117-18.665Z"
        style="fill:#ef4848;fill-rule:nonzero"
        transform="scale(-1 1) rotate(44.316 -104.238 -206.27)"
    /><path
        d="M0 50.363s11.251 12.819 58.219 4.471c0 0 4.71-41.723-1.944-53.629l.002-.001s-3.121-5.788-6.753-8.316c-.02-.016-.035-.022-.057-.036a24.215 24.215 0 0 0-15.594-5.671c-11.712 0-21.49 8.27-23.817 19.29-11.544 1.908-20.351 11.931-20.351 24.016 0 8.209 4.069 15.465 10.295 19.876"
        style="fill:#ef4848;fill-rule:nonzero"
        transform="translate(87.373 94.68)"
    /><path
        d="M0 50.363s-11.25 12.819-58.22 4.471c0 0-4.709-41.723 1.945-53.629l-.003-.001s3.121-5.788 6.753-8.316c.021-.016.036-.022.056-.036 4.225-3.533 9.656-5.671 15.595-5.671 11.712 0 21.491 8.27 23.818 19.29 11.544 1.908 20.35 11.931 20.35 24.016 0 8.209-4.067 15.465-10.294 19.876"
        style="fill:#ef4848;fill-rule:nonzero"
        transform="translate(80.626 94.68)"
    /><path
        d="M-2.37-2.37a2.37 2.37 0 1 1 0 4.74 2.37 2.37 0 0 1 0-4.74"
        style="fill:#fcfae6;fill-rule:nonzero"
        transform="matrix(0 -1 -1 0 66.575 123.714)"
    /><path
        d="M0-4.525s-1.67.055-2.371.916c-.7.86-5.17 0-5.602-4.094-.43-4.093 7.973-10.234 15.729-3.501C15.512-4.47 10.88 8.403-3.017 10.664c-13.897 2.264-30.056-.54-30.056-.54l-4.309 4.418s16.591 2.478 34.257.968C14.542 14.005 18.312-1.187 16.266-8.617 14.219-16.052.215-21.545-5.709-17.022c-5.926 4.525-6.464 5.388-6.464 5.388s-2.909 4.631.538 9.479C-8.188 2.694-.322 1.402 1.724-.539L0-4.525Z"
        style="fill:#fcfae6;fill-rule:nonzero"
        transform="translate(66.575 128.239)"
    /><path
        d="M0-4.74A2.37 2.37 0 1 0 0 0a2.37 2.37 0 0 0 0-4.74"
        style="fill:#fcfae6;fill-rule:nonzero"
        transform="matrix(-1 0 0 1 46.104 107.983)"
    /><path
        d="M0-19.067s-.054 1.669-.915 2.37c-.862.7 0 5.17 4.093 5.601 4.094.432 10.235-7.971 3.502-15.729-6.734-7.756-19.607-3.122-21.869 10.774-2.262 13.895.538 30.056.538 30.056l-4.416 4.309s-2.478-16.59-.97-34.256c1.509-17.669 16.698-21.439 24.131-19.392 7.433 2.046 12.927 16.052 8.402 21.976C7.973-7.433 7.11-6.895 7.11-6.895s-4.632 2.909-9.48-.538c-4.847-3.447-3.556-11.312-1.617-13.358L0-19.067Z"
        style="fill:#fcfae6;fill-rule:nonzero"
        transform="translate(48.474 124.68)"
    /><path
        d="M0 7.186s-2.262 6.029-17.451 3.553c0 0-2.478-13.934 3.232-16.768H0V7.186Z"
        style="fill:#ffce00;fill-rule:nonzero"
        transform="translate(84.026 94.874)"
    /><path
        d="M-13.358-5.439s-7.327 12.475.376 20.861c0 0-7.212 7.088-.376 17.379l-19.115-19.577 19.115-18.663Z"
        style="fill:#ef4848;fill-rule:nonzero"
        transform="scale(1 -1) rotate(44.315 221.043 -43.53)"
    /><path
        d="M2.379-2.375A2.38 2.38 0 0 0-.001.001a2.379 2.379 0 0 0 4.756 0 2.377 2.377 0 0 0-2.376-2.376"
        style="fill:#fcfae6;fill-rule:nonzero"
        transform="matrix(0 1 1 0 101.391 123.777)"
    /><path
        d="M0-4.525s1.669.055 2.371.916c.699.86 5.169 0 5.6-4.094C8.403-11.796 0-17.937-7.756-11.204-15.512-4.47-10.88 8.403 3.017 10.664c13.896 2.264 30.055-.54 30.055-.54l4.309 4.418s-16.59 2.478-34.256.968C-14.544 14.005-18.313-1.187-16.266-8.617c2.045-7.435 16.05-12.928 21.975-8.405 5.925 4.525 6.463 5.388 6.463 5.388s2.909 4.631-.538 9.479C8.187 2.694.322 1.402-1.726-.539L0-4.525Z"
        style="fill:#fcfae6;fill-rule:nonzero"
        transform="translate(101.424 128.239)"
    /><path
        d="M.003-4.753A2.377 2.377 0 1 1 .002 0a2.377 2.377 0 0 1 .001-4.753"
        style="fill:#fcfae6;fill-rule:nonzero"
        transform="matrix(-1 0 0 1 121.928 107.996)"
    /><path
        d="M0-19.067s.055 1.669.917 2.37c.86.7 0 5.17-4.095 5.601-4.094.432-10.234-7.971-3.5-15.729 6.733-7.756 19.606-3.122 21.868 10.774 2.263 13.895-.539 30.056-.539 30.056l4.417 4.309s2.478-16.59.969-34.256C18.529-33.611 3.34-37.381-4.093-35.334c-7.433 2.046-12.928 16.052-8.403 21.976 4.525 5.925 5.387 6.463 5.387 6.463s4.632 2.909 9.479-.538c4.849-3.447 3.557-11.312 1.616-13.358L0-19.067Z"
        style="fill:#fcfae6;fill-rule:nonzero"
        transform="translate(119.524 124.68)"
    /><path
        d="M0 7.186s2.263 6.029 17.452 3.553c0 0 2.478-13.934-3.231-16.768H0V7.186Z"
        style="fill:#ffce00;fill-rule:nonzero"
        transform="translate(83.972 94.874)"
    /><path
        d="M13.359-5.44s7.327 12.476-.375 20.863c0 0 7.21 7.088.375 17.379l19.115-19.577L13.359-5.44Z"
        style="fill:#ef4848;fill-rule:nonzero"
        transform="scale(1 -1) rotate(-44.317 -137.031 -249.794)"
    /><path
        d="M2.372-2.37a2.37 2.37 0 1 1-.003 4.743 2.37 2.37 0 0 1 .003-4.743"
        style="fill:#fcfae6;fill-rule:nonzero"
        transform="matrix(0 1 1 0 101.424 48.813)"
    /><path
        d="M0 4.523s1.669-.054 2.371-.915c.699-.861 5.169 0 5.6 4.094.432 4.093-7.971 10.234-15.727 3.5-7.756-6.733-3.124-19.604 10.773-21.867 13.896-2.263 30.055.539 30.055.539l4.309-4.418s-16.59-2.478-34.256-.969C-14.544-14.005-18.313 1.184-16.266 8.619c2.045 7.431 16.05 12.926 21.975 8.401 5.925-4.525 6.463-5.386 6.463-5.386s2.909-4.633-.538-9.48C8.187-2.694.322-1.402-1.726.538L0 4.523Z"
        style="fill:#fcfae6;fill-rule:nonzero"
        transform="translate(101.424 49.03)"
    /><path
        d="M0 4.741A2.372 2.372 0 0 1 0 0a2.37 2.37 0 1 1 0 4.741"
        style="fill:#fcfae6;fill-rule:nonzero"
        transform="translate(121.894 69.285)"
    /><path
        d="M0 19.066s.055-1.67.917-2.369c.86-.701 0-5.172-4.095-5.602-4.094-.432-10.234 7.971-3.5 15.727C.055 34.579 12.928 29.947 15.19 16.05c2.263-13.897-.539-30.056-.539-30.056l4.417-4.307s2.478 16.587.969 34.256C18.529 33.608 3.34 37.379-4.093 35.333c-7.433-2.047-12.928-16.052-8.403-21.977 4.525-5.923 5.387-6.463 5.387-6.463s4.632-2.908 9.479.54C7.219 10.88 5.927 18.745 3.986 20.79L0 19.066Z"
        style="fill:#fcfae6;fill-rule:nonzero"
        transform="translate(119.524 52.588)"
    /><path
        d="M-2.371-2.369A2.369 2.369 0 0 0-4.74.001a2.368 2.368 0 0 0 2.369 2.37A2.371 2.371 0 0 0 0 .001a2.372 2.372 0 0 0-2.371-2.37"
        style="fill:#fcfae6;fill-rule:nonzero"
        transform="matrix(0 -1 -1 0 66.576 48.813)"
    /><path
        d="M0 4.523s-1.67-.054-2.371-.915c-.7-.861-5.17 0-5.602 4.094-.43 4.093 7.973 10.234 15.729 3.5C15.512 4.469 10.88-8.402-3.017-10.665c-13.897-2.263-30.056.539-30.056.539l-4.309-4.418s16.591-2.478 34.257-.969C14.542-14.005 18.312 1.184 16.266 8.619 14.219 16.05.215 21.545-5.709 17.02c-5.926-4.525-6.464-5.386-6.464-5.386s-2.909-4.633.538-9.48C-8.188-2.694-.322-1.402 1.724.538L0 4.523Z"
        style="fill:#fcfae6;fill-rule:nonzero"
        transform="translate(66.575 49.03)"
    /><path
        d="M0 4.741A2.371 2.371 0 1 0-.002-.001 2.371 2.371 0 0 0 0 4.741"
        style="fill:#fcfae6;fill-rule:nonzero"
        transform="translate(46.104 69.285)"
    /><path
        d="M0 19.066s-.054-1.67-.915-2.369c-.862-.701 0-5.172 4.093-5.602 4.094-.432 10.235 7.971 3.502 15.727-6.734 7.757-19.607 3.125-21.869-10.772-2.262-13.897.538-30.056.538-30.056l-4.416-4.307s-2.478 16.587-.97 34.256c1.509 17.665 16.698 21.436 24.131 19.39 7.433-2.047 12.927-16.052 8.402-21.977C7.973 7.433 7.11 6.893 7.11 6.893s-4.632-2.908-9.48.54C-7.217 10.88-5.926 18.745-3.987 20.79L0 19.066Z"
        style="fill:#fcfae6;fill-rule:nonzero"
        transform="translate(48.474 52.588)"
    /><path
        d="M0-13.324v8.833L6.787 0h7.109v-6.214l-4.955-7.11H0Z"
        style="fill:#1b59b2;fill-rule:nonzero"
        transform="translate(70.13 89.284)"
    /><path
        d="M0-13.324v8.833L-6.787 0h-7.109v-6.214l4.955-7.11H0Z"
        style="fill:#1b59b2;fill-rule:nonzero"
        transform="translate(97.869 89.284)"
    /><path
        d="M0 13.324V4.491L6.787 0h7.109v6.213l-4.955 7.111H0Z"
        style="fill:#1b59b2;fill-rule:nonzero"
        transform="translate(70.13 88.845)"
    /><path
        d="M0 13.324V4.491L-6.787 0h-7.109v6.213l4.955 7.111H0Z"
        style="fill:#1b59b2;fill-rule:nonzero"
        transform="translate(97.869 88.845)"
    /><path
        d="M-3.338-3.342a3.34 3.34 0 1 0 0 6.68 3.34 3.34 0 0 0 0-6.68"
        style="fill:#ef4848;fill-rule:nonzero"
        transform="matrix(0 -1 -1 0 84.025 85.389)"
    /></svg>
