<svg
    xmlns="http://www.w3.org/2000/svg"
    xml:space="preserve"
    style="fill-rule:evenodd;clip-rule:evenodd;stroke-linejoin:round;stroke-miterlimit:2"
    viewBox="0 0 169 181"
><path d="M335.999 179.973H504V360H335.999z" style="fill:#ffce00" transform="translate(-335.998 -179.973)" /><path
        d="M417.968 257.826h3.683v25.99h-3.683z"
        style="fill:#ef4848"
        transform="matrix(-1 0 0 1 503.621 -181.642)"
    /><path
        d="M-5.149-5.15a5.15 5.15 0 1 0 0 10.299 5.15 5.15 0 0 0 0-10.299"
        style="fill:#ef4848;fill-rule:nonzero"
        transform="matrix(0 -1 -1 0 5.149 150.233)"
    /><path
        d="M-5.151-5.146A5.147 5.147 0 0 0-10.297.003 5.148 5.148 0 1 0 0 .003a5.148 5.148 0 0 0-5.151-5.149"
        style="fill:#ef4848;fill-rule:nonzero"
        transform="matrix(0 -1 -1 0 18.24 163.32)"
    /><path
        d="M0 13.306s-.321 4.397-2.79 2.895c-2.468-1.501-7.401-5.794-8.368-8.046-.964-2.251.029-3.298 1.622-3.044 1.597.256 3.766-9.56 3.766-9.56s-3.887-2.629-7.319.804v21.669s.752 2.36 3.432 2.36H6.542s3.755-2.574 3.755-7.078c0-4.507-10.297 0-10.297 0"
        style="fill:#ef4848;fill-rule:nonzero"
        transform="translate(13.089 155.165)"
    /><path
        d="M-6.275-6.275A6.277 6.277 0 0 0-12.551.001a6.274 6.274 0 0 0 6.276 6.274 6.274 6.274 0 1 0 0-12.55"
        style="fill:#fcfae6;fill-rule:nonzero"
        transform="matrix(0 -1 -1 0 20.812 128.081)"
    /><path
        d="M0-4.599s.964-1.67-1.934-2.098C-4.83-7.126-14.271-2.085-15.665 8.535V-2.836s2.467-4.077 7.186-7.188c4.722-3.11 19.312-1.502 19.901 9.012 0 0-10.023.978-11.422-3.587"
        style="fill:#fcfae6;fill-rule:nonzero"
        transform="translate(15.665 135.368)"
    /><path
        d="M-.004-12.551A6.275 6.275 0 1 1-.004 0a6.275 6.275 0 0 1-6.273-6.275 6.274 6.274 0 0 1 6.273-6.276"
        style="fill:#fcfae6;fill-rule:nonzero"
        transform="matrix(-1 0 0 1 38.526 158.563)"
    /><path
        d="M0-4.242s1.669-.963 2.097 1.933c.431 2.898-4.61 12.336-15.232 13.731h11.369s4.078-2.468 7.19-7.187c3.111-4.722 1.502-19.31-9.01-19.899 0 0-.982 10.026 3.586 11.422"
        style="fill:#fcfae6;fill-rule:nonzero"
        transform="translate(42.116 161.676)"
    /><path
        d="M-8.94-5.162S-7.004-.22 5.529 9.048L-8.94 3.042s-7.232-6.784-6.558-15.47l6.558 7.266Z"
        style="fill:#fcfae6;fill-rule:nonzero"
        transform="scale(-1 1) rotate(-22.542 410.089 158.38)"
    /><path
        d="M0-.716s-.645-2.575-3.72-2.502c-3.076.07-3.575 7.938-3.575 7.938v-8.439s1.215-1.717 4.292-1.717C.071-5.436.572-1.429 0-.716"
        style="fill:#ef4848;fill-rule:nonzero"
        transform="translate(7.295 116.764)"
    /><path
        d="M4.864-12.109s-1.431 5.436-7.025 6.73c0 0 5.321 1.933 7.025 7.333 0 0-.341-2.942 4.292-6.687 0 0-3.989-2.614-4.292-7.376"
        style="fill:#1b59b2;fill-rule:nonzero"
        transform="scale(-1 1) rotate(43.773 -203.826 41.23)"
    /><path
        d="M0-6.967s2.362.534 2.254 2.038C2.147-3.431.645-.641-2.897-.962c-3.54-.322-7.723 1.716-7.938 3.111H3.648S2.682.864.967.864c0 0 3.539-1.159 3.432-4.604C4.291-7.184.106-9.116 0-6.967"
        style="fill:#ef4848;fill-rule:nonzero"
        transform="translate(57.5 173.4)"
    /><path
        d="M0-81.101s2.217 1.787 2.147 3.147c0 0 6.649-.5 10.082 3.147 3.434 3.648 5.292 6.08 5.292 6.08s16.593-3.292 16.878 14.375c0 0 5.008 2.575 5.008 13.159 0 0 8.08-1.002 12.588 5.007 0 0 6.292-.287 11.082 3.432 4.794 3.72 3.078 12.946 3.078 12.946s10.082 4.361 9.655 15.304c0 0 4.72 1.5 5.648 4.504h-6.937s-.286-2.111-3.074-2.452c0 0 2.073-11.421-11.229-15.426 0 0 5.148-5.862 1.001-10.585-4.149-4.721-10.727-3.791-10.727-3.791s-5.937-8.653-16.805-3.432c0 0 3.93-12.731-3.794-16.734 0 0 2.217-7.439-3.36-11.086-5.579-3.648-10.8.858-10.8.858s.859-5.222-7.436-10.157C0-77.739 0-73.09 0-73.09v-8.011Z"
        style="fill:#1b59b2;fill-rule:nonzero"
        transform="translate(0 175.549)"
    /><path
        d="M0-53.425s5.149 3.432 4.935 10.084C4.72-36.69 3.753-18.813 18.988-19.222c0 0-.215 13.428 13.301 14.931C45.808-2.791 49.133-5.578 54.28.75c0 0-3.219-6.544-7.939-7.404-4.72-.856-22.848 2.43-23.49-12.568 0 0 9.33-1.804 11.261-10.388 0 0 4.615 1.073 6.545 4.077 1.931 3.004 1.288 8.689-1.501 9.868-2.79 1.182-6.114-3.432-2.682-5.577 0 0-1.932-1.608-4.504 0-2.579 1.609-2.685 8.689 3.538 10.192 6.223 1.5 15.553-10.513 5.043-19.955 0 0 9.976-2.252 13.729-9.761v-13.409H41.3s-9.87 5.792-9.443 13.946c0 0-3.214-4.4-10.08-4.506-6.866-.107-11.478 5.685-9.655 11.264 1.824 5.578 12.766 4.506 10.729-2.79 0 0-3.22 4.292-5.794 1.823-2.574-2.466-.646-5.791 1.394-7.294 2.037-1.5 11.695 1.073 11.051 7.832 0 0-9.656 4.828-9.119 11.262 0 0-9.085.216-11.355-7.508C6.76-37.871 11.907-49.24 0-53.425"
        style="fill:#ef4848;fill-rule:nonzero"
        transform="translate(29.502 143.154)"
    /><path
        d="M-2.387-5.384c.531 0 .965 1.443.964 3.218.003 1.781-.432 3.22-.964 3.221-.535-.002-.967-1.443-.963-3.221-.004-1.777.431-3.214.963-3.218"
        style="fill:#1b59b2;fill-rule:nonzero"
        transform="scale(-1 1) rotate(-47.814 105.283 118.11)"
    /><path
        d="M-3.167-3.165a3.166 3.166 0 1 0 .003 6.333 3.166 3.166 0 0 0-.003-6.333"
        style="fill:#fcfae6;fill-rule:nonzero"
        transform="matrix(0 -1 -1 0 83.73 162.46)"
    /><path
        d="M-3.166-3.166a3.166 3.166 0 1 0 .002 6.332 3.166 3.166 0 0 0-.002-6.332"
        style="fill:#fcfae6;fill-rule:nonzero"
        transform="matrix(0 -1 -1 0 83.729 154.523)"
    /><path
        d="M-3.165-3.167a3.166 3.166 0 1 0-.001 6.333 3.166 3.166 0 0 0 .001-6.333"
        style="fill:#fcfae6;fill-rule:nonzero"
        transform="matrix(0 -1 -1 0 83.728 146.011)"
    /><path
        d="M-2.673-2.674a2.674 2.674 0 1 0 0 5.346 2.674 2.674 0 0 0 0-5.346"
        style="fill:#fcfae6;fill-rule:nonzero"
        transform="matrix(0 -1 -1 0 76.863 149.177)"
    /><path
        d="M-1.984-1.985a1.985 1.985 0 1 0-.001 3.967 1.985 1.985 0 0 0 .001-3.967"
        style="fill:#fcfae6;fill-rule:nonzero"
        transform="matrix(0 -1 -1 0 70.642 149.866)"
    /><path
        d="M2.672-2.673a2.672 2.672 0 1 1 0 5.345 2.673 2.673 0 1 1 0-5.345"
        style="fill:#fcfae6;fill-rule:nonzero"
        transform="matrix(0 1 1 0 91.226 149.178)"
    /><path
        d="M1.985-1.986a1.986 1.986 0 1 1 0 3.973 1.986 1.986 0 0 1 0-3.973"
        style="fill:#fcfae6;fill-rule:nonzero"
        transform="matrix(0 1 1 0 97.448 149.864)"
    /><path
        d="M5.15-5.151A5.15 5.15 0 0 1 10.299 0 5.149 5.149 0 1 1 .002 0 5.148 5.148 0 0 1 5.15-5.151"
        style="fill:#ef4848;fill-rule:nonzero"
        transform="matrix(0 1 1 0 162.689 150.232)"
    /><path
        d="M5.153-5.148a5.15 5.15 0 0 1 0 10.301 5.151 5.151 0 1 1 0-10.301"
        style="fill:#ef4848;fill-rule:nonzero"
        transform="matrix(0 1 1 0 149.599 163.318)"
    /><path
        d="M0 13.306s.319 4.397 2.787 2.895c2.469-1.501 7.403-5.794 8.371-8.046.967-2.251-.03-3.298-1.625-3.044-1.595.256-3.765-9.56-3.765-9.56s3.889-2.629 7.32.804v21.669s-.748 2.36-3.431 2.36h-16.2S-10.3 17.81-10.3 13.306c0-4.507 10.3 0 10.3 0"
        style="fill:#ef4848;fill-rule:nonzero"
        transform="translate(154.751 155.165)"
    /><path
        d="M6.276-6.276a6.274 6.274 0 0 1 6.276 6.274A6.275 6.275 0 1 1 0-.002a6.275 6.275 0 0 1 6.276-6.274"
        style="fill:#fcfae6;fill-rule:nonzero"
        transform="matrix(0 1 1 0 147.028 128.08)"
    /><path
        d="M0-4.599s-.963-1.67 1.934-2.098c2.897-.429 12.337 4.612 13.731 15.232V-2.836s-2.466-4.077-7.187-7.188c-4.721-3.11-19.308-1.502-19.9 9.012 0 0 10.024.978 11.422-3.587"
        style="fill:#fcfae6;fill-rule:nonzero"
        transform="translate(152.174 135.368)"
    /><path
        d="M.002-12.551a6.275 6.275 0 1 0 0 12.552 6.275 6.275 0 0 0 0-12.552"
        style="fill:#fcfae6;fill-rule:nonzero"
        transform="matrix(-1 0 0 1 129.313 158.563)"
    /><path
        d="M0-4.242s-1.669-.963-2.099 1.933C-2.527.589 2.516 10.027 13.135 11.422H1.764s-4.077-2.468-7.188-7.187c-3.11-4.722-1.502-19.31 9.012-19.899 0 0 .978 10.026-3.588 11.422"
        style="fill:#fcfae6;fill-rule:nonzero"
        transform="translate(125.723 161.676)"
    /><path
        d="M8.935-5.161S7-.219-5.529 9.048L8.935 3.043s7.234-6.786 6.558-15.471L8.935-5.161Z"
        style="fill:#fcfae6;fill-rule:nonzero"
        transform="scale(-1 1) rotate(22.548 -493.885 -262.597)"
    /><path
        d="M0-.716s.643-2.575 3.719-2.502c3.075.07 3.575 7.938 3.575 7.938v-8.439s-1.216-1.717-4.29-1.717C-.073-5.436-.573-1.429 0-.716"
        style="fill:#ef4848;fill-rule:nonzero"
        transform="translate(160.545 116.764)"
    /><path
        d="M-4.863-12.108s1.43 5.434 7.024 6.728c0 0-5.318 1.935-7.024 7.333 0 0 .341-2.941-4.293-6.686 0 0 3.991-2.613 4.293-7.375"
        style="fill:#1b59b2;fill-rule:nonzero"
        transform="scale(-1 1) rotate(-43.767 119.935 250.158)"
    /><path
        d="M0-6.967s-2.359.534-2.255 2.038C-2.146-3.431-.643-.641 2.896-.962c3.541-.322 7.725 1.716 7.938 3.111H-3.649S-2.681.864-.965.864c0 0-3.542-1.159-3.433-4.604C-4.292-7.184-.107-9.116 0-6.967"
        style="fill:#ef4848;fill-rule:nonzero"
        transform="translate(110.339 173.4)"
    /><path
        d="M0-81.101s-2.218 1.787-2.145 3.147c0 0-6.652-.5-10.085 3.147-3.433 3.648-5.291 6.08-5.291 6.08s-16.593-3.292-16.878 14.375c0 0-5.005 2.575-5.005 13.159 0 0-8.084-1.002-12.589 5.007 0 0-6.292-.287-11.086 3.432-4.79 3.72-3.077 12.946-3.077 12.946s-10.082 4.361-9.653 15.304c0 0-4.718 1.5-5.651 4.504h6.939s.285-2.111 3.075-2.452c0 0-2.075-11.421 11.227-15.426 0 0-5.149-5.862-1.003-10.585 4.152-4.721 10.73-3.791 10.73-3.791s5.938-8.653 16.807-3.432c0 0-3.932-12.731 3.79-16.734 0 0-2.214-7.439 3.363-11.086 5.579-3.648 10.796.858 10.796.858s-.857-5.222 7.44-10.157C0-77.739 0-73.09 0-73.09v-8.011Z"
        style="fill:#1b59b2;fill-rule:nonzero"
        transform="translate(167.839 175.549)"
    /><path
        d="M0-53.425s-5.147 3.432-4.933 10.084c.213 6.651 1.18 24.528-14.053 24.119 0 0 .215 13.428-13.304 14.931-13.516 1.5-16.843-1.287-21.988 5.041 0 0 3.215-6.544 7.934-7.404 4.72-.856 22.852 2.43 23.496-12.568 0 0-9.334-1.804-11.264-10.388 0 0-4.613 1.073-6.544 4.077-1.931 3.004-1.288 8.689 1.5 9.868 2.79 1.182 6.116-3.432 2.683-5.577 0 0 1.933-1.608 4.506 0 2.574 1.609 2.682 8.689-3.54 10.192-6.222 1.5-15.556-10.513-5.044-19.955 0 0-9.977-2.252-13.727-9.761v-13.409h12.977s9.869 5.792 9.441 13.946c0 0 3.219-4.4 10.084-4.506 6.867-.107 11.479 5.685 9.655 11.264-1.823 5.578-12.768 4.506-10.727-2.79 0 0 3.217 4.292 5.794 1.823 2.575-2.466.642-5.791-1.395-7.294-2.039-1.5-11.696 1.073-11.051 7.832 0 0 9.656 4.828 9.119 11.262 0 0 9.086.216 11.355-7.508C-6.757-37.871-11.906-49.24 0-53.425"
        style="fill:#ef4848;fill-rule:nonzero"
        transform="translate(138.337 143.154)"
    /><path
        d="M2.387-5.384c-.533.003-.965 1.442-.967 3.221.001 1.777.432 3.219.967 3.217.533 0 .964-1.439.963-3.219.003-1.777-.429-3.217-.963-3.219"
        style="fill:#1b59b2;fill-rule:nonzero"
        transform="scale(-1 1) rotate(47.808 -189.222 -71.221)"
    /><path
        d="M-3.164-3.168A3.165 3.165 0 0 1-.002-.002a3.165 3.165 0 1 1-3.162-3.166"
        style="fill:#fcfae6;fill-rule:nonzero"
        transform="matrix(0 -1 -1 0 83.727 9.838)"
    /><path
        d="M-3.167-3.165a3.166 3.166 0 1 1 0 6.332 3.166 3.166 0 0 1 0-6.332"
        style="fill:#fcfae6;fill-rule:nonzero"
        transform="matrix(0 -1 -1 0 83.73 17.776)"
    /><path
        d="M-3.167-3.165a3.167 3.167 0 0 1 0 6.332A3.164 3.164 0 0 1-6.331.001a3.164 3.164 0 0 1 3.164-3.166"
        style="fill:#fcfae6;fill-rule:nonzero"
        transform="matrix(0 -1 -1 0 83.73 26.288)"
    /><path
        d="M-2.673-2.674a2.674 2.674 0 1 1 0 5.348 2.674 2.674 0 0 1 0-5.348"
        style="fill:#fcfae6;fill-rule:nonzero"
        transform="matrix(0 -1 -1 0 76.863 24.108)"
    /><path
        d="M-1.984-1.985a1.985 1.985 0 1 1 0 3.968 1.985 1.985 0 0 1 0-3.968"
        style="fill:#fcfae6;fill-rule:nonzero"
        transform="matrix(0 -1 -1 0 70.642 24.797)"
    /><path
        d="M2.672-2.673a2.673 2.673 0 1 0 0 5.344 2.673 2.673 0 0 0 0-5.344"
        style="fill:#fcfae6;fill-rule:nonzero"
        transform="matrix(0 1 1 0 91.226 24.108)"
    /><path
        d="M1.985-1.986a1.985 1.985 0 1 0 0 3.973 1.985 1.985 0 0 0 0-3.973"
        style="fill:#fcfae6;fill-rule:nonzero"
        transform="matrix(0 1 1 0 97.448 24.795)"
    /><path
        d="M0 6.33a3.163 3.163 0 0 1-3.163-3.165A3.164 3.164 0 1 1 0 6.33"
        style="fill:#fcfae6;fill-rule:nonzero"
        transform="translate(6.31 86.106)"
    /><path
        d="M0 6.33A3.165 3.165 0 1 1-.002 0 3.165 3.165 0 0 1 0 6.33"
        style="fill:#fcfae6;fill-rule:nonzero"
        transform="translate(14.25 86.106)"
    /><path
        d="M0 6.33a3.163 3.163 0 0 1-3.164-3.165A3.164 3.164 0 1 1 0 6.33"
        style="fill:#fcfae6;fill-rule:nonzero"
        transform="translate(22.762 86.106)"
    /><path
        d="M0 5.348a2.672 2.672 0 0 1-2.673-2.673A2.673 2.673 0 1 1 0 5.348"
        style="fill:#fcfae6;fill-rule:nonzero"
        transform="translate(20.089 79.731)"
    /><path
        d="M0 3.968a1.98 1.98 0 0 1-1.984-1.983 1.983 1.983 0 1 1 3.967 0c0 1.097-.89 1.983-1.983 1.983"
        style="fill:#fcfae6;fill-rule:nonzero"
        transform="translate(20.089 74.199)"
    /><path
        d="M0-5.347A2.673 2.673 0 1 1 0-.001a2.673 2.673 0 0 1 0-5.346"
        style="fill:#fcfae6;fill-rule:nonzero"
        transform="matrix(-1 0 0 1 20.089 99.44)"
    /><path
        d="M-.001-3.972c1.098 0 1.984.89 1.984 1.987a1.985 1.985 0 1 1-3.967 0c0-1.097.89-1.987 1.983-1.987"
        style="fill:#fcfae6;fill-rule:nonzero"
        transform="matrix(-1 0 0 1 20.088 104.975)"
    /><path
        d="M0 6.33A3.165 3.165 0 1 0 .003 0 3.165 3.165 0 0 0 0 6.33"
        style="fill:#fcfae6;fill-rule:nonzero"
        transform="translate(160.794 86.106)"
    /><path
        d="M0 6.33A3.165 3.165 0 1 0 .002 0 3.165 3.165 0 0 0 0 6.33"
        style="fill:#fcfae6;fill-rule:nonzero"
        transform="translate(152.856 86.106)"
    /><path
        d="M0 6.33A3.165 3.165 0 1 0 .003 0 3.165 3.165 0 0 0 0 6.33"
        style="fill:#fcfae6;fill-rule:nonzero"
        transform="translate(144.344 86.106)"
    /><path
        d="M0 5.348A2.674 2.674 0 1 0 .002 0 2.674 2.674 0 0 0 0 5.348"
        style="fill:#fcfae6;fill-rule:nonzero"
        transform="translate(147.017 79.731)"
    /><path
        d="M0 3.968A1.984 1.984 0 1 0 .002 0 1.984 1.984 0 0 0 0 3.968"
        style="fill:#fcfae6;fill-rule:nonzero"
        transform="translate(147.017 74.199)"
    /><path
        d="M.002-5.347a2.675 2.675 0 1 0 0 5.35 2.675 2.675 0 0 0 0-5.35"
        style="fill:#fcfae6;fill-rule:nonzero"
        transform="matrix(-1 0 0 1 147.019 99.44)"
    /><path
        d="M.002-3.972A1.986 1.986 0 0 0 .002 0a1.987 1.987 0 0 0 0-3.972"
        style="fill:#fcfae6;fill-rule:nonzero"
        transform="matrix(-1 0 0 1 147.019 104.975)"
    /><path
        d="M-5.149-5.15a5.15 5.15 0 1 1 0 10.297 5.15 5.15 0 0 1 0-10.297"
        style="fill:#ef4848;fill-rule:nonzero"
        transform="matrix(0 -1 -1 0 5.149 18.02)"
    /><path
        d="M-5.148-5.149A5.15 5.15 0 1 1-10.299 0a5.15 5.15 0 0 1 5.151-5.149"
        style="fill:#ef4848;fill-rule:nonzero"
        transform="matrix(0 -1 -1 0 18.236 4.934)"
    /><path
        d="M0-13.301s-.321-4.399-2.79-2.896c-2.468 1.501-7.401 5.794-8.368 8.048-.964 2.25.029 3.295 1.622 3.04 1.597-.255 3.766 9.561 3.766 9.561s-3.887 2.63-7.319-.804v-21.67s.752-2.361 3.432-2.361H6.542s3.755 2.575 3.755 7.082c0 4.506-10.297 0-10.297 0"
        style="fill:#ef4848;fill-rule:nonzero"
        transform="translate(13.089 23.383)"
    /><path
        d="M-6.277-6.273a6.274 6.274 0 1 1 0 12.55 6.276 6.276 0 0 1 0-12.55"
        style="fill:#fcfae6;fill-rule:nonzero"
        transform="matrix(0 -1 -1 0 20.814 37.919)"
    /><path
        d="M0 4.598s.964 1.669-1.934 2.099c-2.896.429-12.337-4.613-13.731-15.234V2.835s2.467 4.077 7.186 7.186c4.722 3.114 19.312 1.504 19.901-9.009 0 0-10.023-.98-11.422 3.586"
        style="fill:#fcfae6;fill-rule:nonzero"
        transform="translate(15.665 43.184)"
    /><path
        d="M0 12.552A6.277 6.277 0 1 1 0 0a6.276 6.276 0 0 1 6.273 6.277A6.274 6.274 0 0 1 0 12.552"
        style="fill:#fcfae6;fill-rule:nonzero"
        transform="translate(38.53 19.987)"
    /><path
        d="M0 4.243s1.669.962 2.097-1.935c.431-2.895-4.61-12.335-15.232-13.73h11.369s4.078 2.468 7.19 7.188C8.535.485 6.926 15.075-3.586 15.665c0 0-.982-10.026 3.586-11.422"
        style="fill:#fcfae6;fill-rule:nonzero"
        transform="translate(42.116 16.874)"
    /><path
        d="M-1.029-1.781S-2.965 3.165-15.5 12.43l14.471-6.002S6.205-.353 5.531-9.044l-6.56 7.263Z"
        style="fill:#fcfae6;fill-rule:nonzero"
        transform="scale(1 -1) rotate(22.529 41.39 95.867)"
    /><path
        d="M0 .713s-.645 2.574-3.72 2.505c-3.076-.073-3.575-7.94-3.575-7.94v8.439s1.215 1.718 4.292 1.718C.071 5.435.572 1.43 0 .713"
        style="fill:#ef4848;fill-rule:nonzero"
        transform="translate(7.295 61.79)"
    /><path
        d="M4.864-1.954s1.434 5.435 7.026 6.73c0 0-5.321 1.933-7.026 7.333 0 0 .341-2.942-4.292-6.686 0 0 3.991-2.616 4.292-7.377"
        style="fill:#1b59b2;fill-rule:nonzero"
        transform="scale(1 -1) rotate(-43.773 -26.182 -30.859)"
    /><path
        d="M0 6.975s2.362-.538 2.254-2.039C2.147 3.434.645.644-2.897.967c-3.54.321-7.723-1.717-7.938-3.112H3.648S2.682-.858.967-.858c0 0 3.539 1.158 3.432 4.603C4.291 7.189.106 9.12 0 6.975"
        style="fill:#ef4848;fill-rule:nonzero"
        transform="translate(57.5 5.145)"
    /><path
        d="M0 81.103s2.217-1.788 2.147-3.147c0 0 6.649.501 10.082-3.147 3.434-3.648 5.292-6.079 5.292-6.079s16.593 3.289 16.878-14.376c0 0 5.008-2.574 5.008-13.158 0 0 8.08 1.001 12.588-5.006 0 0 6.292.287 11.082-3.434 4.794-3.718 3.078-12.945 3.078-12.945s10.082-4.362 9.655-15.305c0 0 4.72-1.502 5.648-4.506h-6.937s-.286 2.114-3.074 2.452c0 0 2.073 11.424-11.229 15.429 0 0 5.148 5.863 1.001 10.584-4.149 4.722-10.727 3.79-10.727 3.79s-5.937 8.653-16.805 3.434c0 0 3.93 12.729-3.794 16.735 0 0 2.217 7.438-3.36 11.084-5.579 3.648-10.8-.859-10.8-.859s.859 5.224-7.436 10.158C0 77.741 0 73.093 0 73.093v8.01Z"
        style="fill:#1b59b2;fill-rule:nonzero"
        transform="translate(0 3)"
    /><path
        d="M0 53.426s5.149-3.434 4.935-10.084c-.215-6.653-1.182-24.529 14.053-24.119 0 0-.215-13.428 13.301-14.931C45.808 2.79 49.133 5.58 54.28-.75c0 0-3.219 6.545-7.939 7.402-4.72.857-22.848-2.428-23.49 12.571 0 0 9.33 1.805 11.261 10.388 0 0 4.615-1.074 6.545-4.078 1.931-3.003 1.288-8.689-1.501-9.87-2.79-1.179-6.114 3.435-2.682 5.579 0 0-1.932 1.61-4.504 0-2.579-1.609-2.685-8.69 3.538-10.191 6.223-1.502 15.553 10.513 5.043 19.954 0 0 9.976 2.251 13.729 9.761v13.41H41.3s-9.87-5.792-9.443-13.945c0 0-3.214 4.397-10.08 4.504-6.866.109-11.478-5.684-9.655-11.263 1.824-5.579 12.766-4.506 10.729 2.789 0 0-3.22-4.292-5.794-1.824-2.574 2.467-.646 5.794 1.394 7.294 2.037 1.503 11.695-1.072 11.051-7.83 0 0-9.656-4.827-9.119-11.263 0 0-9.085-.215-11.355 7.509C6.76 37.87 11.907 49.24 0 53.426"
        style="fill:#ef4848;fill-rule:nonzero"
        transform="translate(29.502 35.397)"
    /><path
        d="M-2.386-1.059c-.533-.001-.966 1.442-.963 3.218-.003 1.78.432 3.219.963 3.219.535-.002.968-1.442.965-3.218.001-1.78-.434-3.216-.965-3.219"
        style="fill:#1b59b2;fill-rule:nonzero"
        transform="scale(1 -1) rotate(47.834 98.57 36.349)"
    /><path
        d="M-6.297-2.577s-5.534 6.969-6.257 14.778c-.723 7.806 2.648 11.416 6.257 4.633 3.608-6.786 2.641-14.431 1.65-18.905 0 0 .287-3.362-1.65-.506"
        style="fill:#fcfae6;fill-rule:nonzero"
        transform="scale(1 -1) rotate(33.046 184.82 103.888)"
    /><path
        d="M5.15-5.151A5.15 5.15 0 1 0 5.151 5.15 5.15 5.15 0 0 0 5.15-5.15"
        style="fill:#ef4848;fill-rule:nonzero"
        transform="matrix(0 1 1 0 162.69 18.02)"
    /><path
        d="M5.149-5.151A5.153 5.153 0 0 0-.001.001a5.152 5.152 0 0 0 10.302 0 5.154 5.154 0 0 0-5.152-5.152"
        style="fill:#ef4848;fill-rule:nonzero"
        transform="matrix(0 1 1 0 149.602 4.933)"
    /><path
        d="M0-13.301s.319-4.399 2.787-2.896c2.469 1.501 7.403 5.794 8.371 8.048.967 2.25-.03 3.295-1.625 3.04-1.595-.255-3.765 9.561-3.765 9.561s3.889 2.63 7.32-.804v-21.67s-.748-2.361-3.431-2.361h-16.2s-3.757 2.575-3.757 7.082c0 4.506 10.3 0 10.3 0"
        style="fill:#ef4848;fill-rule:nonzero"
        transform="translate(154.751 23.383)"
    /><path
        d="M6.278-6.274A6.276 6.276 0 1 0 12.551 0a6.274 6.274 0 0 0-6.273-6.274"
        style="fill:#fcfae6;fill-rule:nonzero"
        transform="matrix(0 1 1 0 147.026 37.918)"
    /><path
        d="M0 4.598s-.963 1.669 1.934 2.099c2.897.429 12.337-4.613 13.731-15.234V2.835s-2.466 4.077-7.187 7.186c-4.721 3.114-19.308 1.504-19.9-9.009 0 0 10.024-.98 11.422 3.586"
        style="fill:#fcfae6;fill-rule:nonzero"
        transform="translate(152.174 43.184)"
    /><path
        d="M0 12.552A6.276 6.276 0 0 0 0 0a6.274 6.274 0 0 0-6.273 6.277A6.273 6.273 0 0 0 0 12.552"
        style="fill:#fcfae6;fill-rule:nonzero"
        transform="translate(129.311 19.987)"
    /><path
        d="M0 4.243s-1.669.962-2.099-1.935c-.428-2.895 4.615-12.335 15.234-13.73H1.764s-4.077 2.468-7.188 7.188C-8.534.485-6.926 15.075 3.588 15.665c0 0 .978-10.026-3.588-11.422"
        style="fill:#fcfae6;fill-rule:nonzero"
        transform="translate(125.723 16.874)"
    /><path
        d="M1.029-1.78s1.934 4.946 14.465 14.211L1.029 6.429S-6.207-.354-5.53-9.045L1.029-1.78Z"
        style="fill:#fcfae6;fill-rule:nonzero"
        transform="scale(1 -1) rotate(-22.535 42.536 -325.385)"
    /><path
        d="M0 .713s.643 2.574 3.719 2.505c3.075-.073 3.575-7.94 3.575-7.94v8.439s-1.216 1.718-4.29 1.718C-.073 5.435-.573 1.43 0 .713"
        style="fill:#ef4848;fill-rule:nonzero"
        transform="translate(160.545 61.79)"
    /><path
        d="M-4.863-1.953s-1.432 5.432-7.025 6.728c0 0 5.319 1.936 7.025 7.333 0 0-.342-2.941 4.292-6.686 0 0-3.992-2.613-4.292-7.375"
        style="fill:#1b59b2;fill-rule:nonzero"
        transform="scale(1 -1) rotate(43.767 110.108 178.069)"
    /><path
        d="M0 6.975s-2.359-.538-2.255-2.039C-2.146 3.434-.643.644 2.896.967c3.541.321 7.725-1.717 7.938-3.112H-3.649S-2.681-.858-.965-.858c0 0-3.542 1.158-3.433 4.603C-4.292 7.189-.107 9.12 0 6.975"
        style="fill:#ef4848;fill-rule:nonzero"
        transform="translate(110.339 5.145)"
    /><path
        d="M0 81.103s-2.218-1.788-2.145-3.147c0 0-6.652.501-10.085-3.147-3.433-3.648-5.291-6.079-5.291-6.079s-16.593 3.289-16.878-14.376c0 0-5.005-2.574-5.005-13.158 0 0-8.084 1.001-12.589-5.006 0 0-6.292.287-11.086-3.434-4.79-3.718-3.077-12.945-3.077-12.945s-10.082-4.362-9.653-15.305c0 0-4.718-1.502-5.651-4.506h6.939s.285 2.114 3.075 2.452c0 0-2.075 11.424 11.227 15.429 0 0-5.149 5.863-1.003 10.584 4.152 4.722 10.73 3.79 10.73 3.79s5.938 8.653 16.807 3.434c0 0-3.932 12.729 3.79 16.735 0 0-2.214 7.438 3.363 11.084 5.579 3.648 10.796-.859 10.796-.859s-.857 5.224 7.44 10.158C0 77.741 0 73.093 0 73.093v8.01Z"
        style="fill:#1b59b2;fill-rule:nonzero"
        transform="translate(167.839 3)"
    /><path
        d="M0 53.426s-5.147-3.434-4.933-10.084c.213-6.653 1.18-24.529-14.053-24.119 0 0 .215-13.428-13.304-14.931C-45.806 2.79-49.133 5.58-54.278-.75c0 0 3.215 6.545 7.934 7.402 4.72.857 22.852-2.428 23.496 12.571 0 0-9.334 1.805-11.264 10.388 0 0-4.613-1.074-6.544-4.078-1.931-3.003-1.288-8.689 1.5-9.87 2.79-1.179 6.116 3.435 2.683 5.579 0 0 1.933 1.61 4.506 0 2.574-1.609 2.682-8.69-3.54-10.191-6.222-1.502-15.556 10.513-5.044 19.954 0 0-9.977 2.251-13.727 9.761v13.41h12.977s9.869-5.792 9.441-13.945c0 0 3.219 4.397 10.084 4.504 6.867.109 11.479-5.684 9.655-11.263-1.823-5.579-12.768-4.506-10.727 2.789 0 0 3.217-4.292 5.794-1.824 2.575 2.467.642 5.794-1.395 7.294-2.039 1.503-11.696-1.072-11.051-7.83 0 0 9.656-4.827 9.119-11.263 0 0 9.086-.215 11.355 7.509C-6.757 37.87-11.906 49.24 0 53.426"
        style="fill:#ef4848;fill-rule:nonzero"
        transform="translate(138.337 35.397)"
    /><path
        d="M2.385-1.059c.535.001.965 1.441.966 3.22 0 1.777-.432 3.219-.966 3.216-.533 0-.965-1.439-.965-3.217 0-1.779.433-3.218.965-3.219"
        style="fill:#1b59b2;fill-rule:nonzero"
        transform="scale(1 -1) rotate(-47.828 -14.662 -152.895)"
    /><path
        d="M6.298-2.577s5.533 6.968 6.255 14.778c.723 7.806-2.648 11.416-6.255 4.633C2.69 10.049 3.655 2.402 4.65-2.07c0 0-.288-3.363 1.648-.507"
        style="fill:#fcfae6;fill-rule:nonzero"
        transform="scale(1 -1) rotate(-33.048 -100.888 -178.994)"
    /><path
        d="M-8.688-21.226s5.533 6.97 6.256 14.779C-1.71 1.36-5.08 4.969-8.688-1.815c-3.61-6.784-2.641-14.431-1.65-18.906 0 0-.285-3.364 1.65-.505"
        style="fill:#fcfae6;fill-rule:nonzero"
        transform="scale(-1 1) rotate(-33.046 140.068 158.58)"
    /><path
        d="M8.688-21.226S3.156-14.257 2.433-6.448C1.711 1.359 5.081 4.968 8.688-1.815c3.609-6.784 2.643-14.432 1.647-18.905 0 0 .287-3.365-1.647-.506"
        style="fill:#fcfae6;fill-rule:nonzero"
        transform="scale(-1 1) rotate(33.048 -223.972 -124.3)"
    /></svg>
