<svg xmlns="http://www.w3.org/2000/svg" xml:space="preserve" style="fill-rule:evenodd;clip-rule:evenodd;stroke-linejoin:round;stroke-miterlimit:2" viewBox="0 0 168 180"><path d="M0 0h168v179.973H0z" style="fill:#ffce00"/><path d="M-1.472-1.474c-4.886 0-8.846.658-8.846 1.473 0 .815 3.96 1.473 8.846 1.473 4.885 0 8.844-.658 8.844-1.473 0-.815-3.959-1.473-8.844-1.473" style="fill:#1b59b2;fill-rule:nonzero" transform="matrix(0 -1 -1 0 83.764 67.549)"/><path d="M-1.708-1.709c-.988 0-1.791.765-1.791 1.708s.803 1.709 1.791 1.709C-.721 1.708.081.942.081-.001c0-.943-.802-1.708-1.789-1.708" style="fill:#fcfae6;fill-rule:nonzero" transform="matrix(0 -1 -1 0 83.763 88.053)"/><path d="M0-17.899s-4.351 6.668-9.685 7.793c-5.335 1.122-7.861 4.21-6.597 7.158C-15.02 0-1.824-1.965 0-17.899" style="fill:#ef4848;fill-rule:nonzero" transform="translate(80.536 81.023)"/><path d="M0 6.737s4.209-2.034 6.878-5.473c2.667-3.44 5.615-3.791 7.23-2.668C15.721-.282 14.037 9.264 0 6.737" style="fill:#1b59b2;fill-rule:nonzero" transform="translate(64.815 80.04)"/><path d="M-5.897-1.474h5.195s2.176-.632 2.176-2.387c0-1.757-2.249-2.036-3.442-.774-1.194 1.265-2.666 2.598-3.929 3.161" style="fill:#ef4848;fill-rule:nonzero" transform="matrix(0 1 1 0 84.188 86.36)"/><path d="M.002-2.948c-4.885 0-8.845.66-8.845 1.476C-8.843-.661-4.883 0 .002 0c4.886 0 8.843-.661 8.843-1.472 0-.816-3.957-1.476-8.843-1.476" style="fill:#ef4848;fill-rule:nonzero" transform="matrix(-1 0 0 1 62.85 91.411)"/><path d="M-4.318-4.315c-2.296 0-4.157 1.933-4.157 4.316 0 2.385 1.861 4.317 4.157 4.317 2.296 0 4.16-1.932 4.16-4.317 0-2.383-1.864-4.316-4.16-4.316" style="fill:#1b59b2;fill-rule:nonzero" transform="matrix(0 -1 -1 0 65.798 52.51)"/><path d="M0-3.323s-1.006-1.443 0-2.076C1.004-6.031 4.479-3.818 3.953.075c-.527 3.895-8.845 10.843-18.424 0-9.582-10.843-6.32-17.055-6.32-17.055s-3.053 5.791.108 13.371C-17.526 3.97-4.152 13.657 4.006 8.498c8.159-5.158 5.528-15.896 0-17.583-5.528-1.683-11.424.528-12.056 7.846 0 0 6.622 2.416 8.05-2.084" style="fill:#1b59b2;fill-rule:nonzero" transform="translate(69.53 58.066)"/><path d="M0 8.633c2.294 0 4.158-1.933 4.158-4.317C4.158 1.933 2.294 0 0 0c-2.299 0-4.162 1.933-4.162 4.316C-4.162 6.7-2.299 8.633 0 8.633" style="fill:#1b59b2;fill-rule:nonzero" transform="translate(50.816 67.493)"/><path d="M0 11.886s-1.443-1.006-2.075 0c-.631 1.007 1.58 4.479 5.474 3.955 3.897-.527 10.845-8.845 0-18.424C-7.442-12.165-13.656-8.9-13.656-8.9s5.792-3.054 13.372.103c7.58 3.161 17.266 16.533 12.108 24.689-5.16 8.159-15.899 5.53-17.583 0-1.683-5.527.527-11.424 7.845-12.054 0 0 2.413 6.62-2.086 8.048" style="fill:#1b59b2;fill-rule:nonzero" transform="translate(48.73 63.655)"/><path d="M0-21.795S2.875-14.32-3.021-9.581c-5.896 4.737-12.95.526-14.951-1.368-1.999-1.897-5.473-3.264-7.791-.949C-28.078-9.581-24.604-.843-13.971-.421-3.337 0 2.347-8.107 2.98-14.213 3.612-20.319 0-21.795 0-21.795" style="fill:#fcfae6;fill-rule:nonzero" transform="translate(78.715 46.246)"/><path d="M-3.685-3.687A3.688 3.688 0 0 0-7.371-.001a3.686 3.686 0 1 0 3.686-3.686" style="fill:#1b59b2;fill-rule:nonzero" transform="matrix(0 -1 -1 0 83.764 14.871)"/><path d="M-2.474-2.475a2.475 2.475 0 1 0 0 4.95 2.475 2.475 0 0 0 0-4.95" style="fill:#1b59b2;fill-rule:nonzero" transform="matrix(0 -1 -1 0 83.765 6.239)"/><path d="M-6.369-6.369a6.368 6.368 0 1 0 0 12.738 6.37 6.37 0 0 0 0-12.738" style="fill:#ef4848;fill-rule:nonzero" transform="matrix(0 -1 -1 0 70.114 21.4)"/><path d="M0-27.745s-7.158 4.421-9.476 8.634c-2.315 4.21-1.96 7.726-1.093 7.332C-9.703-12.177-8.857 0-8.857 0s-6.092-.161-8.409-4.372c-2.316-4.212-1.896-11.161 4.949-17.161C-5.473-27.534 0-27.745 0-27.745" style="fill:#ef4848;fill-rule:nonzero" transform="translate(77.588 33.984)"/><path d="M0-23.267s-6.665 3.895-8.35 12.423C-10.034-2.317-13.297 0-17.718-1.686-22.142-3.369-20.503-22.004 0-23.267" style="fill:#1b59b2;fill-rule:nonzero" transform="translate(63.934 33.086)"/><path d="M-9.65-17.769s.8 5.336-2.033 11.125C-14.514-.852-12.47 3.421-9.65 3.705c2.821.287 7.814-5.136 4.997-11.025L-9.65-17.769Z" style="fill:#fcfae6;fill-rule:nonzero" transform="scale(-1 1) rotate(-64.437 -12.336 30.758)"/><path d="M0-18.424S-4.843-13.06-5.264-8.318C-5.686-3.58-9.581 0-13.897-2.106-18.214-4.211-16.845-16.317 0-18.424" style="fill:#ef4848;fill-rule:nonzero" transform="translate(37.055 26.557)"/><path d="M-11.666-30.297s3.969 5.026 2.108 12.205c-1.864 7.182-4.871 13.381-2.108 15.669 2.765 2.286 10.085-.616 10.324-8.344.238-7.726-6.646-16.977-10.324-19.53" style="fill:#1b59b2;fill-rule:nonzero" transform="scale(-1 1) rotate(-8.024 317.85 228.993)"/><path d="M-1.253-14.476c1.548-1.505 3.788 4.713 3.33 13.019a3.179 3.179 0 0 1-3.33 3.023 3.18 3.18 0 0 1-3.023-3.329s1.474-11.208 3.023-12.713" style="fill:#fcfae6;fill-rule:nonzero" transform="scale(-1 1) rotate(-2.755 1035.948 1743.383)"/><path d="M0 24.468s7.476 2.873 12.212-3.022c4.739-5.895.529-12.95-1.368-14.952-1.894-1.998-3.263-5.472-.946-7.789C12.212-3.61 20.953-.137 21.374 10.496c.421 10.635-7.686 16.321-13.793 16.951C1.473 28.078 0 24.468 0 24.468" style="fill:#fcfae6;fill-rule:nonzero" transform="translate(18.213 60.165)"/><path d="M0 7.369A3.684 3.684 0 1 0 0 0a3.684 3.684 0 0 0 0 7.369" style="fill:#1b59b2;fill-rule:nonzero" transform="translate(12.317 85.999)"/><path d="M0 4.948A2.474 2.474 0 1 0-.001-.001 2.474 2.474 0 0 0 0 4.948" style="fill:#1b59b2;fill-rule:nonzero" transform="translate(2.474 87.209)"/><path d="M0 12.738A6.37 6.37 0 0 0 0 0a6.37 6.37 0 0 0 0 12.738" style="fill:#ef4848;fill-rule:nonzero" transform="translate(21.53 69.663)"/><path d="M0 19.583s4.421-7.159 8.633-9.475c4.212-2.316 7.727-1.962 7.331-1.093-.398.865 11.782 1.711 11.782 1.711s-.162-6.092-4.374-8.409C19.161 0 12.212.421 6.212 7.266.211 14.109 0 19.583 0 19.583" style="fill:#ef4848;fill-rule:nonzero" transform="translate(0 63.922)"/><path d="M0 22.141s3.895-6.664 12.422-8.35c8.529-1.682 10.845-4.946 9.161-9.369C19.897 0 1.263 1.639 0 22.141" style="fill:#1b59b2;fill-rule:nonzero" transform="translate(3.58 47.71)"/><path d="M5.069-1.501S4.269 3.834 7.1 9.624c2.834 5.789.791 10.062-2.031 10.348-2.821.284-7.813-5.138-4.997-11.026L5.069-1.501Z" style="fill:#fcfae6;fill-rule:nonzero" transform="scale(1 -1) rotate(-25.56 -127.754 -22.565)"/><path d="M0 18.215s5.364-4.843 10.104-5.267c4.742-.42 8.322-4.315 6.214-8.632C14.213 0 2.106 1.367 0 18.215" style="fill:#ef4848;fill-rule:nonzero" transform="translate(1.895 24.759)"/><path d="M19.51-8.664s-3.969 5.029-2.105 12.21c1.864 7.177 4.87 13.377 2.105 15.666C16.748 21.5 9.428 18.6 9.188 10.871 8.949 3.142 15.832-6.108 19.51-8.664" style="fill:#1b59b2;fill-rule:nonzero" transform="scale(1 -1) rotate(-81.97 -8.352 -25.286)"/><path d="M0-9.356C.076-3.271 5.116 0 8.201-.715 9.373-3.681 6.198-9.105 0-9.356" style="fill:#ef4848;fill-rule:nonzero" transform="translate(31.615 46.911)"/><path d="M7.676-6.453C6.129-7.96 3.889-1.736 4.346 6.568a3.18 3.18 0 0 0 6.352-.306S9.223-4.945 7.676-6.453" style="fill:#fcfae6;fill-rule:nonzero" transform="scale(1 -1) rotate(-87.246 -24.65 -60.775)"/><path d="M0-17.899s4.353 6.668 9.687 7.793c5.333 1.122 7.86 4.21 6.597 7.158C15.02 0 1.826-1.965 0-17.899" style="fill:#ef4848;fill-rule:nonzero" transform="translate(87.415 81.023)"/><path d="M0 6.737s-4.21-2.034-6.878-5.473c-2.669-3.44-5.615-3.791-7.23-2.668C-15.723-.282-14.038 9.264 0 6.737" style="fill:#1b59b2;fill-rule:nonzero" transform="translate(103.137 80.04)"/><path d="M-1.474-5.898h5.195s2.177.633 2.177 2.388-2.25 2.036-3.443.773C1.261-4.002-.211-5.336-1.474-5.898" style="fill:#ef4848;fill-rule:nonzero" transform="matrix(0 1 1 0 91.136 81.936)"/><path d="M.001-2.948c4.887 0 8.843.66 8.843 1.476C8.844-.661 4.888 0 .001 0c-4.884 0-8.844-.661-8.844-1.472 0-.816 3.96-1.476 8.844-1.476" style="fill:#ef4848;fill-rule:nonzero" transform="matrix(-1 0 0 1 105.103 91.411)"/><path d="M4.319-4.316c2.296 0 4.157 1.933 4.157 4.317 0 2.386-1.861 4.318-4.157 4.318-2.296 0-4.16-1.932-4.16-4.318 0-2.384 1.864-4.317 4.16-4.317" style="fill:#1b59b2;fill-rule:nonzero" transform="matrix(0 1 1 0 102.153 52.508)"/><path d="M0-3.323s1.007-1.443 0-2.076C-1.004-6.031-4.48-3.818-3.953.075c.526 3.895 8.844 10.843 18.424 0 9.582-10.843 6.318-17.055 6.318-17.055s3.052 5.791-.105 13.371C17.526 3.97 4.151 13.657-4.005 8.498c-8.16-5.158-5.531-15.896 0-17.583 5.526-1.683 11.422.528 12.055 7.846 0 0-6.622 2.416-8.05-2.084" style="fill:#1b59b2;fill-rule:nonzero" transform="translate(98.422 58.066)"/><path d="M0 8.633c-2.297 0-4.158-1.933-4.158-4.317C-4.158 1.933-2.297 0 0 0c2.295 0 4.159 1.933 4.159 4.316C4.159 6.7 2.295 8.633 0 8.633" style="fill:#1b59b2;fill-rule:nonzero" transform="translate(117.137 67.493)"/><path d="M0 11.886s1.445-1.006 2.075 0c.633 1.007-1.58 4.479-5.474 3.955-3.896-.527-10.844-8.845 0-18.424C7.446-12.165 13.657-8.9 13.657-8.9s-5.79-3.054-13.371.103C-7.295-5.636-16.98 7.736-11.821 15.892c5.158 8.159 15.898 5.53 17.582 0 1.685-5.527-.527-11.424-7.844-12.054 0 0-2.416 6.62 2.083 8.048" style="fill:#1b59b2;fill-rule:nonzero" transform="translate(119.221 63.655)"/><path d="M0-21.795S-2.873-14.32 3.024-9.581c5.895 4.737 12.95.526 14.95-1.368 2.001-1.897 5.474-3.264 7.79-.949C28.082-9.581 24.607-.843 13.973-.421 3.339 0-2.347-8.107-2.977-14.213-3.61-20.319 0-21.795 0-21.795" style="fill:#fcfae6;fill-rule:nonzero" transform="translate(89.234 46.246)"/><path d="M6.37-6.37a6.37 6.37 0 1 1 0 12.74 6.37 6.37 0 0 1 0-12.74" style="fill:#ef4848;fill-rule:nonzero" transform="matrix(0 1 1 0 97.838 21.399)"/><path d="M0-27.745s7.16 4.421 9.475 8.634c2.316 4.21 1.961 7.726 1.095 7.332C9.703-12.177 8.858 0 8.858 0s6.092-.161 8.408-4.372c2.318-4.212 1.896-11.161-4.948-17.161C5.474-27.534 0-27.745 0-27.745" style="fill:#ef4848;fill-rule:nonzero" transform="translate(90.363 33.984)"/><path d="M0-23.267s6.662 3.895 8.348 12.423C10.033-2.317 13.297 0 17.718-1.686 22.14-3.369 20.501-22.004 0-23.267" style="fill:#1b59b2;fill-rule:nonzero" transform="translate(104.019 33.086)"/><path d="M9.647-17.766s-.8 5.334 2.033 11.124c2.832 5.789.788 10.062-2.033 10.348-2.82.283-7.814-5.137-4.997-11.025l4.997-10.447Z" style="fill:#fcfae6;fill-rule:nonzero" transform="scale(-1 1) rotate(64.435 -71.642 -102.5)"/><path d="M0-18.424S4.843-13.06 5.264-8.318C5.686-3.58 9.581 0 13.897-2.106 18.214-4.211 16.846-16.317 0-18.424" style="fill:#ef4848;fill-rule:nonzero" transform="translate(130.895 26.557)"/><path d="M11.666-30.298s-3.968 5.027-2.105 12.206c1.863 7.181 4.869 13.38 2.105 15.669C8.903-.137 1.582-3.038 1.343-10.767c-.239-7.726 6.644-16.977 10.323-19.531" style="fill:#1b59b2;fill-rule:nonzero" transform="scale(-1 1) rotate(8.028 -401.654 -967.783)"/><path d="M0 24.468s-7.476 2.873-12.213-3.022c-4.737-5.895-.526-12.95 1.369-14.952 1.895-1.998 3.263-5.472.947-7.789-2.316-2.315-11.055 1.158-11.476 11.791-.419 10.635 7.685 16.321 13.792 16.951C-1.474 28.078 0 24.468 0 24.468" style="fill:#fcfae6;fill-rule:nonzero" transform="translate(149.738 60.165)"/><path d="M0 7.369a3.685 3.685 0 1 1-.002-7.37A3.685 3.685 0 0 1 0 7.37" style="fill:#1b59b2;fill-rule:nonzero" transform="translate(155.635 85.999)"/><path d="M0 4.948A2.474 2.474 0 1 1 0 0a2.474 2.474 0 0 1 0 4.948" style="fill:#1b59b2;fill-rule:nonzero" transform="translate(165.477 87.209)"/><path d="M0 12.738a6.37 6.37 0 0 1-6.368-6.37A6.367 6.367 0 0 1 0 0a6.37 6.37 0 0 1 0 12.738" style="fill:#ef4848;fill-rule:nonzero" transform="translate(146.42 69.663)"/><path d="M0 19.583s-4.423-7.159-8.633-9.475c-4.211-2.316-7.728-1.962-7.331-1.093.397.865-11.784 1.711-11.784 1.711s.164-6.092 4.374-8.409C-19.162 0-12.214.421-6.212 7.266-.211 14.109 0 19.583 0 19.583" style="fill:#ef4848;fill-rule:nonzero" transform="translate(167.952 63.922)"/><path d="M0 22.141s-3.893-6.664-12.42-8.35c-8.529-1.682-10.845-4.946-9.162-9.369C-19.897 0-1.262 1.639 0 22.141" style="fill:#1b59b2;fill-rule:nonzero" transform="translate(164.37 47.71)"/><path d="M-5.067-1.501s.798 5.336-2.032 11.125c-2.834 5.788-.791 10.061 2.032 10.348 2.818.285 7.81-5.137 4.995-11.024L-5.067-1.501Z" style="fill:#fcfae6;fill-rule:nonzero" transform="scale(1 -1) rotate(25.553 211.77 347.757)"/><path d="M0 18.215s-5.363-4.843-10.104-5.267c-4.74-.42-8.319-4.315-6.214-8.632C-14.213 0-2.107 1.367 0 18.215" style="fill:#ef4848;fill-rule:nonzero" transform="translate(166.057 24.759)"/><path d="M-19.511-8.664s3.97 5.028 2.106 12.208c-1.865 7.181-4.87 13.38-2.106 15.669 2.763 2.287 10.083-.616 10.323-8.341.238-7.728-6.645-16.98-10.323-19.536" style="fill:#1b59b2;fill-rule:nonzero" transform="scale(1 -1) rotate(81.97 92.327 71.368)"/><path d="M0-9.356C-.075-3.271-5.115 0-8.201-.715-9.373-3.681-6.198-9.105 0-9.356" style="fill:#ef4848;fill-rule:nonzero" transform="translate(136.336 46.911)"/><path d="M-7.674-6.452c1.547-1.507 3.786 4.716 3.33 13.021a3.182 3.182 0 0 1-3.33 3.022 3.179 3.179 0 0 1-3.023-3.327S-9.222-4.945-7.674-6.452" style="fill:#fcfae6;fill-rule:nonzero" transform="scale(1 -1) rotate(87.245 108.628 27.337)"/><path d="M-1.474-1.472c4.886 0 8.844.658 8.844 1.473 0 .815-3.958 1.473-8.844 1.473-4.886 0-8.842-.658-8.842-1.473 0-.815 3.956-1.473 8.842-1.473" style="fill:#1b59b2;fill-rule:nonzero" transform="matrix(0 -1 -1 0 83.766 109.493)"/><path d="M0 17.899s-4.351-6.669-9.685-7.791c-5.335-1.124-7.861-4.214-6.597-7.16C-15.02 0-1.824 1.966 0 17.899" style="fill:#ef4848;fill-rule:nonzero" transform="translate(80.536 98.965)"/><path d="M0-6.733s4.209 2.032 6.878 5.475c2.667 3.438 5.615 3.787 7.23 2.664C15.721.286 14.037-9.262 0-6.733" style="fill:#1b59b2;fill-rule:nonzero" transform="translate(64.815 99.943)"/><path d="M-5.896 1.473h5.193s2.176.632 2.176 2.387c0 1.757-2.247 2.036-3.44.774-1.192-1.265-2.666-2.598-3.929-3.161" style="fill:#ef4848;fill-rule:nonzero" transform="matrix(0 -1 -1 0 84.187 93.63)"/><path d="M-4.317-4.316C-2.019-4.316-.158-2.383-.158 0c0 2.385-1.861 4.317-4.159 4.317-2.296 0-4.158-1.932-4.158-4.317 0-2.383 1.862-4.316 4.158-4.316" style="fill:#1b59b2;fill-rule:nonzero" transform="matrix(0 -1 -1 0 65.797 118.845)"/><path d="M0 3.323s-1.006 1.443 0 2.076c1.004.632 4.479-1.579 3.953-5.475-.527-3.896-8.845-10.844-18.424 0-9.582 10.844-6.32 17.056-6.32 17.056s-3.053-5.791.108-13.371C-17.526-3.972-4.152-13.657 4.006-8.498c8.159 5.16 5.528 15.896 0 17.581-5.528 1.685-11.424-.528-12.056-7.842 0 0 6.622-2.416 8.05 2.082" style="fill:#1b59b2;fill-rule:nonzero" transform="translate(69.53 121.922)"/><path d="M-.004-8.633c-2.294 0-4.158 1.933-4.158 4.317C-4.162-1.931-2.298 0-.004 0c2.299 0 4.162-1.931 4.162-4.316 0-2.384-1.863-4.317-4.162-4.317" style="fill:#1b59b2;fill-rule:nonzero" transform="matrix(-1 0 0 1 50.812 112.495)"/><path d="M0-11.884s-1.443 1.005-2.075 0c-.631-1.006 1.58-4.48 5.474-3.954 3.897.527 10.845 8.843 0 18.424-10.841 9.58-17.055 6.317-17.055 6.317s5.792 3.054 13.372-.106c7.58-3.158 17.266-16.53 12.108-24.69-5.16-8.157-15.899-5.528-17.583 0-1.683 5.528.527 11.426 7.845 12.056 0 0 2.413-6.622-2.086-8.047" style="fill:#1b59b2;fill-rule:nonzero" transform="translate(48.73 116.332)"/><path d="M0 21.795s2.875-7.477-3.021-12.214c-5.896-4.739-12.95-.526-14.951 1.368-1.999 1.897-5.473 3.264-7.791.949C-28.078 9.581-24.604.841-13.971.421-3.337 0 2.347 8.108 2.98 14.213 3.612 20.319 0 21.795 0 21.795" style="fill:#fcfae6;fill-rule:nonzero" transform="translate(78.715 133.741)"/><path d="M-3.685-3.686a3.687 3.687 0 0 1 0 7.371 3.686 3.686 0 0 1 0-7.371" style="fill:#1b59b2;fill-rule:nonzero" transform="matrix(0 -1 -1 0 83.765 157.745)"/><path d="M-2.475-2.474a2.475 2.475 0 1 1 0 4.95 2.475 2.475 0 0 1 0-4.95" style="fill:#1b59b2;fill-rule:nonzero" transform="matrix(0 -1 -1 0 83.766 168.801)"/><path d="M-6.369-6.369a6.368 6.368 0 1 1 0 12.738 6.37 6.37 0 0 1 0-12.738" style="fill:#ef4848;fill-rule:nonzero" transform="matrix(0 -1 -1 0 70.114 145.85)"/><path d="M0 27.746s-7.158-4.421-9.476-8.634c-2.315-4.212-1.96-7.726-1.093-7.331C-9.703 12.18-8.857 0-8.857 0s-6.092.162-8.409 4.373c-2.316 4.212-1.896 11.159 4.949 17.163C-5.473 27.535 0 27.746 0 27.746" style="fill:#ef4848;fill-rule:nonzero" transform="translate(77.588 146.003)"/><path d="M0 23.267s-6.665-3.895-8.35-12.424C-10.034 2.317-13.297 0-17.718 1.684-22.142 3.369-20.503 22.004 0 23.267" style="fill:#1b59b2;fill-rule:nonzero" transform="translate(63.934 146.902)"/><path d="M-11.198-6.082S-12-.747-9.166 5.043c2.832 5.792.788 10.065-2.032 10.349-2.821.287-7.814-5.136-4.997-11.025l4.997-10.449Z" style="fill:#fcfae6;fill-rule:nonzero" transform="scale(1 -1) rotate(64.437 153.988 -36.851)"/><path d="M0 18.426s-4.843-5.364-5.264-10.104C-5.686 3.578-9.581 0-13.897 2.108-18.214 4.213-16.845 16.319 0 18.426" style="fill:#ef4848;fill-rule:nonzero" transform="translate(37.055 153.429)"/><path d="M-2.125-.818S-6.094 4.21-4.233 11.39c1.864 7.181 4.871 13.38 2.108 15.668-2.765 2.285-10.085-.616-10.324-8.344-.237-7.726 6.646-16.979 10.324-19.532" style="fill:#1b59b2;fill-rule:nonzero" transform="scale(1 -1) rotate(8.024 1168.564 252.071)"/><path d="M-.348-.03c-1.548-1.505-3.788 4.715-3.33 13.021a3.178 3.178 0 0 0 3.33 3.021 3.18 3.18 0 0 0 3.024-3.327S1.201 1.475-.348-.03" style="fill:#fcfae6;fill-rule:nonzero" transform="scale(1 -1) rotate(2.755 3006.58 1693.905)"/><path d="M0-24.47s7.476-2.873 12.212 3.022c4.739 5.897.529 12.952-1.368 14.952-1.894 2-3.263 5.472-.946 7.792C12.212 3.61 20.953.137 21.374-10.498c.421-10.631-7.686-16.319-13.793-16.949C1.473-28.08 0-24.47 0-24.47" style="fill:#fcfae6;fill-rule:nonzero" transform="translate(18.213 119.825)"/><path d="M0-12.738a6.368 6.368 0 0 0-6.368 6.37A6.366 6.366 0 0 0 0 0a6.366 6.366 0 0 0 6.368-6.368c0-3.518-2.85-6.37-6.368-6.37" style="fill:#ef4848;fill-rule:nonzero" transform="matrix(-1 0 0 1 21.53 110.325)"/><path d="M0-19.583s4.421 7.16 8.633 9.475c4.212 2.316 7.727 1.962 7.331 1.095-.398-.867 11.782-1.713 11.782-1.713s-.162 6.094-4.374 8.409C19.161 0 12.212-.422 6.212-7.266.211-14.108 0-19.583 0-19.583" style="fill:#ef4848;fill-rule:nonzero" transform="translate(0 116.066)"/><path d="M0-22.138s3.895 6.662 12.422 8.348c8.529 1.685 10.845 4.948 9.161 9.371C19.897 0 1.263-1.64 0-22.138" style="fill:#1b59b2;fill-rule:nonzero" transform="translate(3.58 132.277)"/><path d="M6.619-22.344s.8 5.335-2.033 11.123C1.752-5.432 3.797-1.157 6.619-.871c2.819.282 7.811-5.14 4.996-11.028L6.619-22.344Z" style="fill:#fcfae6;fill-rule:nonzero" transform="scale(-1 1) rotate(25.56 -309.097 31.246)"/><path d="M0-18.213s5.364 4.843 10.104 5.263c4.742.423 8.322 4.317 6.214 8.633C14.213 0 2.106-1.367 0-18.213" style="fill:#ef4848;fill-rule:nonzero" transform="translate(1.895 155.229)"/><path d="M9.972-22.456s3.969 5.029 2.105 12.21C10.213-3.069 7.207 3.131 9.972 5.42c2.762 2.288 10.082-.612 10.322-8.341.241-7.728-6.644-16.979-10.322-19.535" style="fill:#1b59b2;fill-rule:nonzero" transform="scale(-1 1) rotate(81.97 -88.425 40.846)"/><path d="M0 9.356C.076 3.271 5.116 0 8.201.715 9.373 3.681 6.198 9.107 0 9.356" style="fill:#ef4848;fill-rule:nonzero" transform="translate(31.615 133.077)"/><path d="M0 17.899s4.353-6.669 9.687-7.791c5.333-1.124 7.86-4.214 6.597-7.16C15.02 0 1.826 1.966 0 17.899" style="fill:#ef4848;fill-rule:nonzero" transform="translate(87.415 98.965)"/><path d="M0-6.733s-4.21 2.032-6.878 5.475c-2.669 3.438-5.615 3.787-7.23 2.664C-15.723.286-14.038-9.262 0-6.733" style="fill:#1b59b2;fill-rule:nonzero" transform="translate(103.137 99.943)"/><path d="M-1.473 5.896H3.72s2.176-.633 2.176-2.388-2.247-2.035-3.44-.772C1.265 4-.21 5.334-1.473 5.896" style="fill:#ef4848;fill-rule:nonzero" transform="matrix(0 -1 -1 0 91.135 98.053)"/><path d="M4.318-4.317C2.02-4.317.159-2.384.159 0c0 2.386 1.861 4.318 4.159 4.318 2.296 0 4.158-1.932 4.158-4.318 0-2.384-1.862-4.317-4.158-4.317" style="fill:#1b59b2;fill-rule:nonzero" transform="matrix(0 1 1 0 102.154 118.845)"/><path d="M0 3.323s1.007 1.443 0 2.076c-1.004.632-4.48-1.579-3.953-5.475.526-3.896 8.844-10.844 18.424 0 9.582 10.844 6.318 17.056 6.318 17.056s3.052-5.791-.105-13.371C17.526-3.972 4.151-13.657-4.005-8.498c-8.16 5.16-5.531 15.896 0 17.581C1.521 10.768 7.417 8.555 8.05 1.241c0 0-6.622-2.416-8.05 2.082" style="fill:#1b59b2;fill-rule:nonzero" transform="translate(98.422 121.922)"/><path d="M.001-8.633c2.297 0 4.158 1.933 4.158 4.317C4.159-1.931 2.298 0 .001 0c-2.295 0-4.159-1.931-4.159-4.316 0-2.384 1.864-4.317 4.159-4.317" style="fill:#1b59b2;fill-rule:nonzero" transform="matrix(-1 0 0 1 117.138 112.495)"/><path d="M0-11.884s1.445 1.005 2.075 0c.633-1.006-1.58-4.48-5.474-3.954-3.896.527-10.844 8.843 0 18.424 10.845 9.58 17.056 6.317 17.056 6.317S7.867 11.957.286 8.797c-7.581-3.158-17.266-16.53-12.107-24.69 5.158-8.157 15.898-5.528 17.582 0 1.685 5.528-.527 11.426-7.844 12.056 0 0-2.416-6.622 2.083-8.047" style="fill:#1b59b2;fill-rule:nonzero" transform="translate(119.221 116.332)"/><path d="M0 21.795s-2.873-7.477 3.024-12.214c5.895-4.739 12.95-.526 14.95 1.368 2.001 1.897 5.474 3.264 7.79.949C28.082 9.581 24.607.841 13.973.421 3.339 0-2.347 8.108-2.977 14.213-3.61 20.319 0 21.795 0 21.795" style="fill:#fcfae6;fill-rule:nonzero" transform="translate(89.234 133.741)"/><path d="M6.37-6.37a6.37 6.37 0 1 0 0 12.74 6.37 6.37 0 0 0 0-12.74" style="fill:#ef4848;fill-rule:nonzero" transform="matrix(0 1 1 0 97.838 145.849)"/><path d="M0 27.746s7.16-4.421 9.475-8.634c2.316-4.212 1.961-7.726 1.095-7.331C9.703 12.18 8.858 0 8.858 0s6.092.162 8.408 4.373c2.318 4.212 1.896 11.159-4.948 17.163C5.474 27.535 0 27.746 0 27.746" style="fill:#ef4848;fill-rule:nonzero" transform="translate(90.363 146.003)"/><path d="M0 23.267s6.662-3.895 8.348-12.424C10.033 2.317 13.297 0 17.718 1.684 22.14 3.369 20.501 22.004 0 23.267" style="fill:#1b59b2;fill-rule:nonzero" transform="translate(104.019 146.902)"/><path d="M11.196-6.079s.802 5.334-2.032 11.123c-2.833 5.79-.789 10.063 2.032 10.349 2.82.283 7.814-5.137 4.997-11.025L11.196-6.079Z" style="fill:#fcfae6;fill-rule:nonzero" transform="scale(1 -1) rotate(-64.435 -70.02 -170.111)"/><path d="M0 18.426s4.843-5.364 5.264-10.104C5.686 3.578 9.581 0 13.897 2.108 18.214 4.213 16.846 16.319 0 18.426" style="fill:#ef4848;fill-rule:nonzero" transform="translate(130.895 153.429)"/><path d="M2.126-.819S6.094 4.21 4.231 11.389C2.368 18.57-.638 24.769 2.126 27.058c2.763 2.285 10.084-.615 10.322-8.344.24-7.726-6.644-16.979-10.322-19.533" style="fill:#1b59b2;fill-rule:nonzero" transform="scale(1 -1) rotate(-8.028 -1084.002 -944.832)"/><path d="M0-24.47s-7.476-2.873-12.213 3.022c-4.737 5.897-.526 12.952 1.369 14.952s3.263 5.472.947 7.792C-12.213 3.61-20.952.137-21.373-10.498c-.419-10.631 7.685-16.319 13.792-16.949C-1.474-28.08 0-24.47 0-24.47" style="fill:#fcfae6;fill-rule:nonzero" transform="translate(149.738 119.825)"/><path d="M.002-12.738A6.369 6.369 0 1 1 0 0a6.369 6.369 0 0 1 .002-12.738" style="fill:#ef4848;fill-rule:nonzero" transform="matrix(-1 0 0 1 146.422 110.325)"/><path d="M0-19.583s-4.423 7.16-8.633 9.475c-4.211 2.316-7.728 1.962-7.331 1.095.397-.867-11.784-1.713-11.784-1.713s.164 6.094 4.374 8.409C-19.162 0-12.214-.422-6.212-7.266-.211-14.108 0-19.583 0-19.583" style="fill:#ef4848;fill-rule:nonzero" transform="translate(167.952 116.066)"/><path d="M0-22.138s-3.893 6.662-12.42 8.348c-8.529 1.685-10.845 4.948-9.162 9.371C-19.897 0-1.262-1.64 0-22.138" style="fill:#1b59b2;fill-rule:nonzero" transform="translate(164.37 132.277)"/><path d="M-6.618-22.344s-.799 5.336 2.033 11.123c2.834 5.788.789 10.063-2.033 10.35-2.817.283-7.81-5.139-4.995-11.026l4.995-10.447Z" style="fill:#fcfae6;fill-rule:nonzero" transform="scale(-1 1) rotate(-25.553 225.212 401.565)"/><path d="M0-18.213s-5.363 4.843-10.104 5.263c-4.74.423-8.319 4.317-6.214 8.633C-14.213 0-2.107-1.367 0-18.213" style="fill:#ef4848;fill-rule:nonzero" transform="translate(166.057 155.229)"/><path d="M-9.972-22.456s-3.97 5.028-2.106 12.208c1.865 7.181 4.87 13.38 2.106 15.669-2.763 2.287-10.083-.616-10.323-8.341-.24-7.728 6.645-16.98 10.323-19.536" style="fill:#1b59b2;fill-rule:nonzero" transform="scale(-1 1) rotate(-81.97 4.448 137.499)"/><path d="M0 9.356C-.075 3.271-5.115 0-8.201.715-9.373 3.681-6.198 9.107 0 9.356" style="fill:#ef4848;fill-rule:nonzero" transform="translate(136.336 133.077)"/></svg>