<svg
    xmlns="http://www.w3.org/2000/svg"
    xml:space="preserve"
    style="fill-rule:evenodd;clip-rule:evenodd;stroke-linejoin:round;stroke-miterlimit:2"
    viewBox="0 0 169 181"
><path d="M168 179.973h168.001V360H168z" style="fill:#1b59b2" transform="matrix(-1 0 0 1 336.001 -179.973)" /><path
        d="M3.431-3.432a3.43 3.43 0 1 1 0 6.862 3.43 3.43 0 0 1 0-6.862"
        style="fill:#ffce00;fill-rule:nonzero"
        transform="matrix(0 1 1 0 83.57 86.695)"
    /><path
        d="M0 40.512s4.398.902 8.933-1.314c-2.096 4.463-1.217 8.731-1.217 8.731C9.5 32.919 22.152 32.491 24.153 35.563c2.002 3.074-.716 5.575-1.787 5.503-1.073-.072-.358-1.402-.358-1.402l-.013-.002c.23-.401.371-.855.371-1.347 0-1.519-1.248-2.752-2.788-2.752-1.538 0-2.787 1.233-2.787 2.752.287 8.326 10.363 6.11 10.793 0 .378-5.405-5.725-8.93-12.035-5.833 2.563-5.465.188-10.719-4.035-11.691 4.617-1.063 7.021-7.245 3.181-13.221 6.6 3.872 13.285.275 12.889-5.372-.43-6.113-10.506-8.329-10.793-.002 0 1.519 1.249 2.751 2.787 2.751 1.54 0 2.788-1.232 2.788-2.751 0-.492-.141-.947-.371-1.345l.013-.005s-.715-1.331.358-1.4c1.071-.073 3.789 2.43 1.787 5.501C22.152 8.021 9.5 7.593 7.716-7.417c0 0-1.085 5.287 2.048 10.246C4.952.055 0 1.07 0 1.07c15.01 1.786 15.438 14.436 12.367 16.439-3.073 1.999-5.573-.716-5.503-1.789.071-1.072 1.403-.357 1.403-.357l.002-.014a2.67 2.67 0 0 0 1.346.371c1.519 0 2.752-1.247 2.752-2.787 0-1.539-1.233-2.787-2.752-2.787-7.894.271-6.312 9.337-.92 10.645-5.392 1.309-6.974 10.373.92 10.645 1.519 0 2.752-1.249 2.752-2.788 0-1.539-1.233-2.787-2.752-2.787-.493 0-.947.14-1.346.37l-.002-.013s-1.332.715-1.403-.357c-.07-1.072 2.43-3.788 5.503-1.789C15.438 26.075 15.01 38.726 0 40.512"
        style="fill:#fcfae6;fill-rule:nonzero"
        transform="translate(55.969 69.5)"
    /><path
        d="M3.431-3.432A3.43 3.43 0 0 1 6.862.001a3.43 3.43 0 1 1-6.861 0 3.431 3.431 0 0 1 3.43-3.433"
        style="fill:#ffce00;fill-rule:nonzero"
        transform="matrix(0 1 1 0 26.173 86.695)"
    /><path
        d="M0-36.115c-.43-6.113-10.508-8.329-10.795-.002 0 1.519 1.248 2.751 2.789 2.751 1.539 0 2.787-1.232 2.787-2.751 0-.492-.14-.947-.371-1.345l.013-.005s-.715-1.331.358-1.4c1.071-.073 3.787 2.43 1.787 5.501-2.002 3.074-14.651 2.646-16.44-12.364 0 0-1.115 5.436 2.182 10.454-3.243-1.999-6.593-2.214-8.507-2.132v.411c13.426 2.469 13.719 14.265 10.759 16.193-3.071 1.999-5.575-.716-5.502-1.789.07-1.072 1.401-.357 1.401-.357l.003-.014c.4.231.855.371 1.347.371 1.519 0 2.751-1.247 2.751-2.787 0-1.539-1.232-2.787-2.751-2.787-7.896.271-6.311 9.337-.917 10.645-5.394 1.309-6.979 10.373.917 10.645 1.519 0 2.751-1.249 2.751-2.788 0-1.539-1.232-2.787-2.751-2.787-.492 0-.947.14-1.347.37l-.003-.013s-1.331.715-1.401-.357c-.073-1.072 2.431-3.788 5.502-1.789 2.96 1.929 2.667 13.727-10.759 16.193v.413c1.739.076 4.664-.099 7.614-1.626-2.184 4.516-1.289 8.876-1.289 8.876C-18.083-5.394-5.434-5.823-3.432-2.75c2 3.074-.716 5.575-1.787 5.503-1.073-.072-.358-1.402-.358-1.402l-.013-.002c.231-.401.371-.855.371-1.347 0-1.519-1.248-2.752-2.787-2.752-1.541 0-2.789 1.233-2.789 2.752.287 8.326 10.365 6.11 10.795 0 .384-5.49-5.917-9.038-12.331-5.687 2.677-5.515.301-10.856-3.959-11.837 4.669-1.075 7.077-7.393 3.038-13.435C-6.538-26.738.402-30.365 0-36.115"
        style="fill:#fcfae6;fill-rule:nonzero"
        transform="translate(26.377 107.814)"
    /><path
        d="M0-37.881v-.411c-1.864-.081-5.087.122-8.247 1.974 3.172-4.972 2.081-10.295 2.081-10.295-1.788 15.009-14.438 15.438-16.436 12.363-2.002-3.07.712-5.574 1.784-5.501 1.074.069.361 1.401.361 1.401l.01.004a2.669 2.669 0 0 0-.371 1.345c0 1.519 1.25 2.751 2.789 2.751 1.54 0 2.786-1.232 2.786-2.751-.285-8.327-10.361-6.111-10.79.002-.398 5.673 6.35 9.279 12.981 5.318-3.89 5.994-1.484 12.211 3.144 13.276-4.232.973-6.61 6.25-4.015 11.727-6.336-3.162-12.491.368-12.11 5.797.429 6.109 10.505 8.326 10.79 0 0-1.52-1.246-2.753-2.786-2.753-1.539 0-2.789 1.233-2.789 2.753 0 .491.14.945.371 1.346l-.01.002s.713 1.33-.361 1.402c-1.072.072-3.786-2.429-1.784-5.503C-20.604-6.706-7.954-6.278-6.166 8.732c0 0 .883-4.292-1.233-8.768C-4.522 1.389-1.697 1.553 0 1.481v-.412c-13.424-2.467-13.72-14.265-10.762-16.194 3.076-1.999 5.576.717 5.506 1.789-.071 1.072-1.404.357-1.404.357l-.002.013a2.682 2.682 0 0 0-1.347-.37c-1.517 0-2.753 1.248-2.753 2.787 0 1.54 1.236 2.789 2.753 2.789 7.895-.273 6.312-9.337.919-10.645 5.393-1.309 6.976-10.374-.919-10.646-1.517 0-2.753 1.248-2.753 2.788 0 1.54 1.236 2.787 2.753 2.787.493 0 .948-.14 1.347-.371l.002.013s1.333-.714 1.404.358c.07 1.073-2.43 3.787-5.506 1.788C-13.72-23.615-13.424-35.412 0-37.881"
        style="fill:#fcfae6;fill-rule:nonzero"
        transform="translate(167.37 108.697)"
    /><path
        d="M0-38.371s-4.806-.985-9.551 1.636c3.041-4.922 1.974-10.123 1.974-10.123-1.787 15.01-14.438 15.438-16.439 12.364-2.001-3.071.715-5.574 1.787-5.502 1.071.07.36 1.401.36 1.401l.01.005c-.23.398-.37.853-.37 1.345 0 1.519 1.249 2.751 2.788 2.751 1.539 0 2.786-1.232 2.786-2.751-.285-8.327-10.362-6.111-10.792.002-.39 5.582 6.138 9.163 12.665 5.502-3.722 5.936-1.314 12.037 3.266 13.091-4.197.967-6.569 6.168-4.072 11.6-6.247-2.945-12.233.571-11.859 5.924.43 6.11 10.507 8.326 10.792 0 0-1.519-1.247-2.752-2.786-2.752s-2.788 1.233-2.788 2.752c0 .492.14.946.37 1.347l-.01.002s.711 1.33-.36 1.402c-1.072.072-3.788-2.429-1.787-5.503C-22.015-6.951-9.364-6.522-7.577 8.487c0 0 .864-4.213-1.176-8.644C-4.284 1.951 0 1.071 0 1.071c-15.012-1.786-15.44-14.437-12.368-16.44 3.075-1.999 5.576.717 5.506 1.789-.074 1.072-1.404.357-1.404.357l-.002.013c-.4-.23-.855-.37-1.348-.37-1.52 0-2.752 1.248-2.752 2.787s1.232 2.788 2.752 2.788c7.895-.272 6.311-9.336.919-10.645 5.392-1.308 6.976-10.374-.919-10.645-1.52 0-2.752 1.248-2.752 2.787 0 1.54 1.232 2.787 2.752 2.787.493 0 .948-.14 1.348-.371l.002.013s1.33-.714 1.404.358c.07 1.073-2.431 3.788-5.506 1.788C-15.44-23.935-15.012-36.585 0-38.371"
        style="fill:#fcfae6;fill-rule:nonzero"
        transform="translate(53.855 108.942)"
    /><path
        d="M3.43-3.431a3.43 3.43 0 1 1 .002 6.86 3.43 3.43 0 0 1-.002-6.86"
        style="fill:#ffce00;fill-rule:nonzero"
        transform="matrix(0 1 1 0 141.12 86.696)"
    /><path
        d="M0 40.512s4.567.936 9.191-1.445c-2.172 4.51-1.278 8.862-1.278 8.862 1.786-15.01 14.436-15.438 16.437-12.366 2.002 3.074-.714 5.575-1.786 5.503-1.072-.072-.359-1.402-.359-1.402l-.011-.002c.23-.401.37-.855.37-1.347 0-1.519-1.249-2.752-2.788-2.752-1.539 0-2.787 1.233-2.787 2.752.287 8.326 10.363 6.11 10.792 0 .385-5.481-5.897-9.028-12.301-5.7 2.666-5.512.289-10.843-3.966-11.824 4.664-1.073 7.07-7.377 3.054-13.412 6.703 4.184 13.618.56 13.213-5.181-.429-6.113-10.505-8.329-10.792-.002 0 1.519 1.248 2.751 2.787 2.751s2.788-1.232 2.788-2.751c0-.492-.14-.947-.37-1.345l.011-.005s-.713-1.331.359-1.4c1.072-.073 3.788 2.43 1.786 5.501C22.349 8.021 9.699 7.593 7.913-7.417c0 0-1.116 5.421 2.167 10.432C5.171.007 0 1.07 0 1.07c15.01 1.786 15.44 14.436 12.365 16.439-3.071 1.999-5.574-.716-5.501-1.789.069-1.072 1.401-.357 1.401-.357l.004-.014a2.66 2.66 0 0 0 1.344.371c1.519 0 2.752-1.247 2.752-2.787 0-1.539-1.233-2.787-2.752-2.787-7.893.271-6.31 9.337-.918 10.645-5.392 1.309-6.975 10.373.918 10.645 1.519 0 2.752-1.249 2.752-2.788 0-1.539-1.233-2.787-2.752-2.787-.492 0-.947.14-1.344.37l-.004-.013s-1.332.715-1.401-.357c-.073-1.072 2.43-3.788 5.501-1.789C15.44 26.075 15.01 38.726 0 40.512"
        style="fill:#fcfae6;fill-rule:nonzero"
        transform="translate(113.521 69.5)"
    /><path
        d="M0-38.371s-5.213-1.07-10.143 1.986c3.316-5.023 2.198-10.473 2.198-10.473-1.788 15.01-14.442 15.438-16.44 12.364-2.002-3.071.714-5.574 1.785-5.502 1.073.07.36 1.401.36 1.401l.01.005c-.226.398-.37.853-.37 1.345 0 1.519 1.247 2.751 2.788 2.751 1.54 0 2.786-1.232 2.786-2.751-.284-8.327-10.361-6.111-10.789.002-.406 5.758 6.555 9.388 13.28 5.135-4.059 6.049-1.651 12.382 3.024 13.458-4.26.981-6.638 6.329-3.951 11.851-6.423-3.377-12.74.176-12.353 5.673.428 6.11 10.505 8.326 10.789 0 0-1.519-1.246-2.752-2.786-2.752-1.541 0-2.788 1.233-2.788 2.752 0 .492.144.946.37 1.347l-.01.002s.713 1.33-.36 1.402c-1.071.072-3.787-2.429-1.785-5.503 1.998-3.073 14.652-2.644 16.44 12.365 0 0 .895-4.369-1.294-8.888C-4.598 2.015 0 1.071 0 1.071c-15.007-1.786-15.438-14.437-12.362-16.44 3.071-1.999 5.574.717 5.503 1.789-.072 1.072-1.401.357-1.401.357l-.004.013c-.4-.23-.854-.37-1.347-.37-1.519 0-2.751 1.248-2.751 2.787s1.232 2.788 2.751 2.788c7.894-.272 6.311-9.336.918-10.645 5.393-1.308 6.976-10.374-.918-10.645-1.519 0-2.751 1.248-2.751 2.787 0 1.54 1.232 2.787 2.751 2.787.493 0 .947-.14 1.347-.371l.004.013s1.329-.714 1.401.358c.071 1.073-2.432 3.788-5.503 1.788C-15.438-23.935-15.007-36.585 0-38.371"
        style="fill:#fcfae6;fill-rule:nonzero"
        transform="translate(111.402 108.942)"
    /><path
        d="M0-35.685c-.43-6.113-10.507-8.329-10.794-.002 0 1.519 1.25 2.751 2.787 2.751 1.541 0 2.788-1.232 2.788-2.751 0-.492-.141-.947-.37-1.345l.012-.004s-.714-1.332.358-1.401c1.072-.073 3.789 2.43 1.788 5.501-2.001 3.075-14.653 2.646-16.438-12.365 0 0-1.084 5.288 2.049 10.247-4.813-2.775-9.764-1.759-9.764-1.759 15.009 1.786 15.438 14.436 12.367 16.439-3.074 1.999-5.574-.716-5.503-1.788.071-1.074 1.403-.358 1.403-.358l.002-.011c.399.228.853.369 1.346.369 1.518 0 2.752-1.249 2.752-2.787 0-1.54-1.234-2.79-2.752-2.79-7.894.273-6.313 9.339-.92 10.648-5.393 1.309-6.974 10.372.92 10.643 1.518 0 2.752-1.249 2.752-2.787 0-1.54-1.234-2.787-2.752-2.787-.493 0-.947.139-1.346.369l-.002-.011s-1.332.713-1.403-.358c-.071-1.072 2.429-3.789 5.503-1.787 3.071 2 2.642 14.652-12.367 16.438 0 0 4.812.987 9.559-1.643-1.978 3.331-2.109 6.755-1.997 8.578h.349C-17.317-4.129-5.371-4.441-3.431-1.462c2.001 3.074-.716 5.574-1.788 5.504-1.072-.071-.358-1.404-.358-1.404l-.012-.001c.229-.4.37-.854.37-1.347 0-1.519-1.247-2.752-2.788-2.752-1.537 0-2.787 1.233-2.787 2.752C-10.507 9.616-.43 7.4 0 1.29c.39-5.588-6.148-9.17-12.681-5.494 3.541-5.872 1.14-11.846-3.39-12.887 4.617-1.063 7.022-7.245 3.182-13.222 6.6 3.871 13.285.277 12.889-5.372"
        style="fill:#fcfae6;fill-rule:nonzero"
        transform="translate(83.553 164.561)"
    /><path
        d="M0-35.685c-.43-6.113-10.508-8.329-10.795-.002 0 1.519 1.248 2.751 2.789 2.751 1.539 0 2.787-1.232 2.787-2.751 0-.492-.14-.947-.371-1.345l.013-.004s-.715-1.332.358-1.401c1.071-.073 3.787 2.43 1.787 5.501-2.002 3.075-14.651 2.646-16.44-12.365 0 0-1.115 5.437 2.182 10.454-3.243-1.997-6.593-2.213-8.507-2.132v.412c13.426 2.469 13.719 14.265 10.759 16.193-3.071 1.999-5.575-.716-5.502-1.788.07-1.074 1.401-.358 1.401-.358l.003-.011c.4.228.855.369 1.347.369 1.519 0 2.751-1.249 2.751-2.787 0-1.54-1.232-2.79-2.751-2.79-7.896.273-6.311 9.339-.917 10.648-5.394 1.309-6.979 10.372.917 10.643 1.519 0 2.751-1.249 2.751-2.787 0-1.54-1.232-2.787-2.751-2.787-.492 0-.947.139-1.347.369l-.003-.011s-1.331.713-1.401-.358c-.073-1.072 2.431-3.789 5.502-1.787 2.96 1.926 2.667 13.723-10.759 16.19v.414c1.872.081 5.114-.125 8.286-1.999-2.086 3.391-2.228 6.909-2.114 8.768h.348C-17.319-4.129-5.372-4.441-3.432-1.462c2 3.074-.716 5.574-1.787 5.504-1.073-.071-.358-1.404-.358-1.404l-.013-.001c.231-.4.371-.854.371-1.347 0-1.519-1.248-2.752-2.787-2.752-1.541 0-2.789 1.233-2.789 2.752C-10.508 9.616-.43 7.4 0 1.29c.397-5.685-6.376-9.293-13.018-5.299 3.714-5.934 1.307-12.028-3.272-13.082 4.669-1.075 7.077-7.395 3.038-13.437C-6.538-26.309.402-29.935 0-35.685"
        style="fill:#fcfae6;fill-rule:nonzero"
        transform="translate(26.377 164.561)"
    /><path
        d="M0-35.685c-.43-6.113-10.505-8.329-10.792-.002 0 1.519 1.248 2.751 2.787 2.751s2.788-1.232 2.788-2.751c0-.492-.14-.947-.37-1.345l.011-.004s-.713-1.332.359-1.401c1.071-.073 3.787 2.43 1.785 5.501-2.001 3.075-14.65 2.646-16.436-12.365 0 0-1.116 5.422 2.167 10.433-4.909-3.006-10.08-1.945-10.08-1.945 15.01 1.786 15.44 14.436 12.365 16.439-3.071 1.999-5.574-.716-5.501-1.788.068-1.074 1.4-.358 1.4-.358l.004-.011c.398.228.853.369 1.345.369 1.519 0 2.752-1.249 2.752-2.787 0-1.54-1.233-2.79-2.752-2.79-7.894.273-6.311 9.339-.918 10.648-5.393 1.309-6.976 10.372.918 10.643 1.519 0 2.752-1.249 2.752-2.787 0-1.54-1.233-2.787-2.752-2.787-.492 0-.947.139-1.345.369l-.004-.011s-1.332.713-1.4-.358c-.073-1.072 2.43-3.789 5.501-1.787 3.075 2 2.645 14.652-12.365 16.438 0 0 5.018 1.031 9.861-1.814-2.075 3.384-2.217 6.894-2.102 8.749h.347C-17.316-4.129-5.37-4.441-3.432-1.462c2.002 3.074-.714 5.574-1.785 5.504-1.072-.071-.359-1.404-.359-1.404l-.011-.001c.23-.4.37-.854.37-1.347 0-1.519-1.249-2.752-2.788-2.752-1.539 0-2.787 1.233-2.787 2.752C-10.505 9.616-.43 7.4 0 1.29c.397-5.676-6.351-9.28-12.983-5.318 3.695-5.927 1.29-12.011-3.285-13.063 4.664-1.074 7.071-7.377 3.055-13.414C-6.51-26.32.404-29.945 0-35.685"
        style="fill:#fcfae6;fill-rule:nonzero"
        transform="translate(141.303 164.561)"
    /><path
        d="M-3.43-3.433a3.431 3.431 0 1 1-.004 6.862 3.431 3.431 0 0 1 .004-6.862"
        style="fill:#ffce00;fill-rule:nonzero"
        transform="matrix(0 -1 -1 0 83.567 143.873)"
    /><path
        d="M3.43-3.433a3.432 3.432 0 1 1 0 6.863 3.43 3.43 0 0 1 0-6.863"
        style="fill:#ffce00;fill-rule:nonzero"
        transform="matrix(0 1 1 0 26.175 143.873)"
    /><path
        d="M0-37.451v-.412c-1.864-.08-5.087.124-8.247 1.975 3.172-4.972 2.081-10.296 2.081-10.296-1.788 15.01-14.438 15.44-16.436 12.364-2.002-3.071.712-5.573 1.784-5.501 1.074.069.361 1.401.361 1.401l.01.004a2.666 2.666 0 0 0-.371 1.345c0 1.519 1.25 2.751 2.789 2.751 1.54 0 2.786-1.232 2.786-2.751-.285-8.326-10.361-6.111-10.79.002-.398 5.674 6.35 9.278 12.981 5.318-3.89 5.993-1.484 12.21 3.144 13.276-4.541 1.045-6.945 7.048-3.362 12.936-6.559-3.754-13.157-.168-12.763 5.445.429 6.11 10.505 8.327 10.79 0 0-1.519-1.246-2.752-2.786-2.752-1.539 0-2.789 1.233-2.789 2.752 0 .494.14.947.371 1.347l-.01.002s.713 1.332-.361 1.403c-1.072.071-3.786-2.43-1.784-5.504C-20.664-5.325-8.719-5.013-6.359 8.68h.348c.113-1.831-.023-5.278-2.025-8.624C-4.946 1.796-1.822 1.989 0 1.91v-.412C-13.424-.97-13.72-12.767-10.762-14.693c3.076-2.002 5.576.715 5.506 1.787-.071 1.072-1.404.358-1.404.358l-.002.012a2.672 2.672 0 0 0-1.347-.37c-1.517 0-2.753 1.247-2.753 2.788 0 1.538 1.236 2.786 2.753 2.786 7.895-.27 6.312-9.334.919-10.643 5.393-1.309 6.976-10.374-.919-10.647-1.517 0-2.753 1.25-2.753 2.789 0 1.539 1.236 2.788 2.753 2.788.493 0 .948-.142 1.347-.37l.002.011s1.333-.715 1.404.359c.07 1.072-2.43 3.786-5.506 1.787C-13.72-23.186-13.424-34.982 0-37.451"
        style="fill:#fcfae6;fill-rule:nonzero"
        transform="translate(167.37 165.445)"
    /><path
        d="M0-37.943s-4.806-.983-9.551 1.636C-6.51-41.229-7.577-46.43-7.577-46.43c-1.787 15.01-14.438 15.44-16.439 12.364-2.001-3.071.715-5.573 1.787-5.501 1.071.069.36 1.401.36 1.401l.01.004c-.23.398-.37.853-.37 1.345 0 1.52 1.249 2.751 2.788 2.751 1.539 0 2.786-1.231 2.786-2.751-.285-8.326-10.362-6.111-10.792.002-.39 5.582 6.138 9.164 12.665 5.503-3.722 5.934-1.314 12.036 3.266 13.091-4.498 1.035-6.896 6.935-3.457 12.768-6.464-3.484-12.86.083-12.474 5.613.43 6.11 10.507 8.327 10.792 0 0-1.519-1.247-2.752-2.786-2.752S-22.229-1.359-22.229.16c0 .494.14.947.37 1.347l-.01.002s.711 1.332-.36 1.403c-1.072.071-3.788-2.43-1.787-5.504 1.94-2.978 13.885-2.667 16.245 11.026h.348c.109-1.803-.02-5.167-1.934-8.463C-4.677 2.461 0 1.499 0 1.499-15.012-.286-15.44-12.938-12.368-14.939c3.075-2.002 5.576.715 5.506 1.787-.074 1.072-1.404.358-1.404.358l-.002.012c-.4-.231-.855-.37-1.348-.37-1.52 0-2.752 1.247-2.752 2.788 0 1.538 1.232 2.786 2.752 2.786 7.895-.27 6.311-9.334.919-10.643 5.392-1.309 6.976-10.374-.919-10.647-1.52 0-2.752 1.25-2.752 2.789 0 1.539 1.232 2.788 2.752 2.788a2.71 2.71 0 0 0 1.348-.37l.002.011s1.33-.715 1.404.359c.07 1.072-2.431 3.786-5.506 1.787C-15.44-23.506-15.012-36.157 0-37.943"
        style="fill:#fcfae6;fill-rule:nonzero"
        transform="translate(53.855 165.691)"
    /><path
        d="M3.429-3.432a3.43 3.43 0 1 1 .002 6.862 3.43 3.43 0 0 1-.002-6.862"
        style="fill:#ffce00;fill-rule:nonzero"
        transform="matrix(0 1 1 0 141.122 143.874)"
    /><path
        d="M0-37.943s-5.213-1.07-10.143 1.986C-6.827-40.98-7.945-46.43-7.945-46.43c-1.788 15.01-14.442 15.44-16.44 12.364-2.002-3.071.714-5.573 1.785-5.501 1.073.069.36 1.401.36 1.401l.01.004c-.226.398-.37.853-.37 1.345 0 1.52 1.247 2.751 2.788 2.751 1.54 0 2.786-1.231 2.786-2.751-.284-8.326-10.361-6.111-10.789.002-.406 5.76 6.555 9.388 13.28 5.136-4.059 6.049-1.651 12.381 3.024 13.458-4.583 1.056-6.988 7.16-3.26 13.097-6.653-4.02-13.445-.41-13.044 5.284.428 6.11 10.505 8.327 10.789 0 0-1.519-1.246-2.752-2.786-2.752-1.541 0-2.788 1.233-2.788 2.752 0 .494.144.947.37 1.347l-.01.002s.713 1.332-.36 1.403c-1.071.071-3.787-2.43-1.785-5.504C-22.445-5.57-10.5-5.259-8.143 8.434h.349c.114-1.86-.029-5.386-2.126-8.783C-5.057 2.54 0 1.499 0 1.499-15.007-.286-15.438-12.938-12.362-14.939c3.071-2.002 5.574.715 5.503 1.787-.072 1.072-1.401.358-1.401.358l-.004.012c-.4-.231-.854-.37-1.347-.37-1.519 0-2.751 1.247-2.751 2.788 0 1.538 1.232 2.786 2.751 2.786 7.894-.27 6.311-9.334.918-10.643 5.393-1.309 6.976-10.374-.918-10.647-1.519 0-2.751 1.25-2.751 2.789 0 1.539 1.232 2.788 2.751 2.788.493 0 .947-.142 1.347-.37l.004.011s1.329-.715 1.401.359c.071 1.072-2.432 3.786-5.503 1.787C-15.438-23.506-15.007-36.157 0-37.943"
        style="fill:#fcfae6;fill-rule:nonzero"
        transform="translate(111.402 165.691)"
    /><path
        d="M-3.432-3.431a3.432 3.432 0 1 1-.001 6.863 3.432 3.432 0 0 1 .001-6.863"
        style="fill:#ffce00;fill-rule:nonzero"
        transform="matrix(0 -1 -1 0 83.57 28.945)"
    /><path
        d="M0-36.714c-4.812-2.774-9.764-1.759-9.764-1.759C5.246-36.686 5.674-24.036 2.603-22.034-.47-20.035-2.97-22.749-2.9-23.821c.071-1.072 1.403-.359 1.403-.359l.002-.011c.399.23.853.37 1.346.37 1.519 0 2.752-1.248 2.752-2.787 0-1.542-1.233-2.788-2.752-2.788-7.894.272-6.312 9.336-.92 10.643-5.392 1.31-6.974 10.374.92 10.645 1.519 0 2.752-1.248 2.752-2.787 0-1.538-1.233-2.787-2.752-2.787-.493 0-.947.141-1.346.37l-.002-.011s-1.332.714-1.403-.359c-.07-1.072 2.43-3.788 5.503-1.788C5.674-13.467 5.246-.817-9.764.97c0 0 4.655.956 9.326-1.513-2.588 4.729-1.61 9.502-1.61 9.502C-.264-6.05 12.388-6.48 14.389-3.407c2.002 3.074-.716 5.574-1.787 5.505-1.073-.071-.358-1.404-.358-1.404l-.013-.002c.229-.399.371-.854.371-1.346 0-1.519-1.248-2.753-2.789-2.753-1.537 0-2.787 1.234-2.787 2.753.287 8.326 10.364 6.11 10.794 0 .387-5.519-5.986-9.083-12.435-5.633 3.18-5.733.786-11.447-3.635-12.466 4.617-1.061 7.021-7.244 3.181-13.22 6.6 3.872 13.285.275 12.889-5.372-.43-6.112-10.507-8.328-10.794 0 0 1.518 1.25 2.753 2.787 2.753 1.541 0 2.789-1.235 2.789-2.753a2.7 2.7 0 0 0-.371-1.348l.013-.001s-.715-1.333.358-1.405c1.071-.07 3.789 2.431 1.787 5.507C12.45-31.615.503-31.927-1.855-45.621H-2.2c-.116 1.883.03 5.472 2.2 8.907"
        style="fill:#fcfae6;fill-rule:nonzero"
        transform="translate(65.733 51.293)"
    /><path
        d="M3.432-3.431A3.43 3.43 0 0 1 6.862.002a3.43 3.43 0 0 1-6.861 0 3.431 3.431 0 0 1 3.431-3.433"
        style="fill:#ffce00;fill-rule:nonzero"
        transform="matrix(0 1 1 0 26.172 28.945)"
    /><path
        d="M0-36.298c-3.242-1.998-6.593-2.214-8.506-2.132v.413C4.919-35.55 5.213-23.753 2.252-21.826c-3.071 1.999-5.574-.715-5.502-1.787.07-1.072 1.402-.359 1.402-.359l.002-.011c.4.23.856.37 1.347.37 1.519 0 2.751-1.248 2.751-2.787 0-1.542-1.232-2.788-2.751-2.788-7.896.272-6.311 9.336-.917 10.643C-6.81-17.236-8.395-8.171-.499-7.9c1.519 0 2.751-1.248 2.751-2.787 0-1.538-1.232-2.787-2.751-2.787-.491 0-.947.141-1.347.37l-.002-.011s-1.332.714-1.402-.359c-.072-1.072 2.431-3.788 5.502-1.788C5.213-13.335 4.919-1.537-8.506.93v.412c1.821.079 4.943-.115 8.035-1.853-2.713 4.785-1.711 9.678-1.711 9.678C-.393-5.842 12.256-6.272 14.259-3.199c1.999 3.074-.717 5.574-1.787 5.505-1.073-.071-.358-1.404-.358-1.404L12.1.9c.231-.399.372-.854.372-1.346 0-1.519-1.249-2.753-2.788-2.753-1.54 0-2.788 1.234-2.788 2.753.287 8.326 10.364 6.11 10.794 0 .393-5.613-6.204-9.198-12.761-5.448 3.335-5.795.939-11.621-3.528-12.651 4.669-1.073 7.076-7.392 3.037-13.434 6.715 4.218 13.654.592 13.252-5.158-.43-6.112-10.507-8.328-10.794 0 0 1.518 1.248 2.753 2.788 2.753 1.539 0 2.788-1.235 2.788-2.753a2.68 2.68 0 0 0-.372-1.348l.014-.001s-.715-1.333.358-1.405c1.07-.07 3.786 2.431 1.787 5.507C12.318-31.407.372-31.719-1.986-45.413h-.347c-.12 1.92.034 5.617 2.333 9.115"
        style="fill:#fcfae6;fill-rule:nonzero"
        transform="translate(8.687 51.085)"
    /><path
        d="M0-39.735v-.414c-1.864-.079-5.087.122-8.247 1.975 2.202-3.45 2.349-7.065 2.234-8.957h-.346c-2.36 13.693-14.305 14.006-16.243 11.028-2.002-3.075.712-5.576 1.784-5.506 1.074.072.361 1.405.361 1.405l.01.001c-.231.4-.371.855-.371 1.347 0 1.519 1.25 2.753 2.789 2.753 1.54 0 2.786-1.234 2.786-2.753-.285-8.328-10.361-6.111-10.79 0-.398 5.675 6.35 9.278 12.981 5.32-3.89 5.992-1.484 12.208 3.144 13.273-4.431 1.022-6.823 6.761-3.611 12.509-6.475-3.525-12.903.047-12.514 5.589.429 6.111 10.505 8.326 10.79 0 0-1.518-1.246-2.752-2.786-2.752-1.539 0-2.789 1.234-2.789 2.752 0 .493.14.948.371 1.347l-.01.002s.713 1.332-.361 1.403c-1.072.07-3.786-2.43-1.784-5.504C-20.604-7.99-7.954-7.561-6.166 7.449c0 0 .984-4.803-1.634-9.545C-4.787-.477-1.778-.295 0-.374v-.414C-13.424-3.256-13.72-15.053-10.762-16.98c3.076-2 5.576.716 5.506 1.788-.071 1.073-1.404.358-1.404.358l-.002.012a2.692 2.692 0 0 0-1.347-.37c-1.517 0-2.753 1.249-2.753 2.787 0 1.539 1.236 2.787 2.753 2.787 7.895-.271 6.312-9.336.919-10.645 5.393-1.307 6.976-10.371-.919-10.643-1.517 0-2.753 1.246-2.753 2.788 0 1.538 1.236 2.787 2.753 2.787.493 0 .948-.14 1.347-.37l.002.011s1.333-.713 1.404.359c.07 1.072-2.43 3.786-5.506 1.787C-13.72-25.471-13.424-37.269 0-39.735"
        style="fill:#fcfae6;fill-rule:nonzero"
        transform="translate(167.37 52.803)"
    /><path
        d="M0-32.47c-2.001-3.075.715-5.577 1.787-5.506 1.071.072.359 1.404.359 1.404l.01.002c-.229.4-.369.854-.369 1.347 0 1.519 1.248 2.753 2.788 2.753 1.538 0 2.786-1.234 2.786-2.753-.285-8.328-10.362-6.112-10.792 0-.39 5.584 6.138 9.163 12.664 5.504C5.512-23.785 7.919-17.685 12.5-16.63 8.106-15.617 5.71-9.963 8.807-4.263 2.426-7.536-3.814-3.995-3.431 1.468c.43 6.11 10.507 8.326 10.792 0 0-1.519-1.248-2.752-2.786-2.752-1.54 0-2.788 1.233-2.788 2.752 0 .493.14.947.369 1.346l-.01.003s.712 1.332-.359 1.403C.715 4.29-2.001 1.79 0-1.284c2.001-3.073 14.651-2.644 16.438 12.365 0 0 .97-4.707-1.555-9.403 4.605 2.343 9.133 1.414 9.133 1.414C9.004 1.305 8.576-11.345 11.648-13.347c3.074-2 5.576.716 5.505 1.788-.073 1.073-1.403.358-1.403.358l-.002.011a2.711 2.711 0 0 0-1.348-.369c-1.52 0-2.752 1.248-2.752 2.787S12.88-5.985 14.4-5.985c7.894-.271 6.311-9.336.918-10.645 5.393-1.307 6.976-10.372-.918-10.644-1.52 0-2.752 1.247-2.752 2.788 0 1.539 1.232 2.787 2.752 2.787.493 0 .947-.14 1.348-.369l.002.011s1.33-.714 1.403.358c.071 1.072-2.431 3.787-5.505 1.788-3.072-2.002-2.644-14.652 12.368-16.439 0 0-4.806-.984-9.551 1.635 2.098-3.395 2.242-6.923 2.128-8.784h-.348C13.886-29.805 1.939-29.492 0-32.47"
        style="fill:#fcfae6;fill-rule:nonzero"
        transform="translate(29.839 49.17)"
    /><path
        d="M3.431-3.43a3.43 3.43 0 1 1 0 6.861 3.43 3.43 0 1 1 0-6.861"
        style="fill:#ffce00;fill-rule:nonzero"
        transform="matrix(0 1 1 0 141.12 28.946)"
    /><path
        d="M0-36.341c-4.909-3.006-10.08-1.945-10.08-1.945C4.93-36.499 5.36-23.849 2.285-21.847c-3.071 1.999-5.574-.715-5.501-1.787.069-1.072 1.401-.359 1.401-.359l.003-.011c.398.23.853.37 1.345.37 1.519 0 2.752-1.249 2.752-2.787 0-1.542-1.233-2.788-2.752-2.788-7.893.272-6.31 9.336-.918 10.643-5.392 1.309-6.975 10.374.918 10.645 1.519 0 2.752-1.248 2.752-2.787 0-1.538-1.233-2.787-2.752-2.787-.492 0-.947.141-1.345.37l-.003-.011s-1.332.714-1.401-.359c-.073-1.072 2.43-3.788 5.501-1.788C5.36-13.28 4.93-.63-10.08 1.157c0 0 4.846.994 9.611-1.673-2.699 4.78-1.698 9.662-1.698 9.662C-.381-5.863 12.269-6.293 14.27-3.22c2.001 3.074-.714 5.574-1.786 5.504-1.072-.07-.359-1.403-.359-1.403l-.011-.002c.23-.399.37-.854.37-1.346 0-1.519-1.249-2.753-2.788-2.753-1.539 0-2.787 1.234-2.787 2.753.287 8.326 10.362 6.11 10.792 0 .394-5.603-6.18-9.187-12.73-5.467 3.319-5.788.925-11.604-3.537-12.632 4.664-1.073 7.07-7.376 3.054-13.412 6.703 4.185 13.617.561 13.213-5.18-.43-6.112-10.505-8.329-10.792 0 0 1.518 1.248 2.753 2.787 2.753s2.788-1.235 2.788-2.753c0-.493-.14-.948-.37-1.348l.011-.001s-.713-1.333.359-1.405c1.072-.07 3.787 2.431 1.786 5.507C12.331-31.428.385-31.74-1.974-45.434h-.347c-.118 1.916.034 5.6 2.321 9.093"
        style="fill:#fcfae6;fill-rule:nonzero"
        transform="translate(123.602 51.106)"
    /><path
        d="M0-32.47c-2.002-3.075.714-5.577 1.785-5.506 1.072.072.36 1.404.36 1.404l.009.002c-.225.4-.369.854-.369 1.347 0 1.519 1.247 2.753 2.787 2.753 1.54 0 2.786-1.234 2.786-2.753-.283-8.328-10.36-6.112-10.788 0-.406 5.76 6.555 9.388 13.28 5.137-4.059 6.049-1.651 12.381 3.024 13.456-4.471 1.03-6.866 6.867-3.52 12.666C2.787-7.739-3.826-4.152-3.43 1.468c.428 6.11 10.505 8.326 10.788 0 0-1.519-1.246-2.752-2.786-2.752S1.785-.051 1.785 1.468c0 .493.144.947.369 1.346l-.009.003s.712 1.332-.36 1.403C.714 4.29-2.002 1.79 0-1.284c1.998-3.073 14.651-2.644 16.439 12.365 0 0 1.002-4.904-1.721-9.693 4.783 2.705 9.667 1.704 9.667 1.704C9.378 1.305 8.947-11.345 12.022-13.347c3.072-2 5.575.716 5.503 1.788-.071 1.073-1.4.358-1.4.358l-.004.011a2.706 2.706 0 0 0-1.348-.369c-1.518 0-2.751 1.248-2.751 2.787s1.233 2.787 2.751 2.787c7.895-.271 6.312-9.336.918-10.645 5.394-1.307 6.977-10.372-.918-10.644-1.518 0-2.751 1.247-2.751 2.788 0 1.539 1.233 2.787 2.751 2.787.494 0 .948-.14 1.348-.369l.004.011s1.329-.714 1.4.358c.072 1.072-2.431 3.787-5.503 1.788-3.075-2.002-2.644-14.652 12.363-16.439 0 0-5.213-1.07-10.143 1.986 2.313-3.505 2.468-7.211 2.347-9.135h-.347C13.885-29.805 1.939-29.492 0-32.47"
        style="fill:#fcfae6;fill-rule:nonzero"
        transform="translate(87.018 49.17)"
    /></svg>
