<svg
    xmlns="http://www.w3.org/2000/svg"
    xml:space="preserve"
    style="fill-rule:evenodd;clip-rule:evenodd;stroke-linejoin:round;stroke-miterlimit:2"
    viewBox="0 0 169 180"
><path d="M168 0h168v179.973H168z" style="fill:#ef4848" transform="translate(-167.952)" /><path
        d="M-5.822-5.821c-3.262 0-5.905 2.607-5.905 5.821 0 3.216 2.643 5.822 5.905 5.822C-2.561 5.822.084 3.216.084 0c0-3.214-2.645-5.821-5.906-5.821"
        style="fill:#1b59b2;fill-rule:nonzero"
        transform="matrix(0 -1 -1 0 83.443 83.823)"
    /><path
        d="M0-12.36S-1.008 3.123 34.572 27.961c0 0 29.865-23.807 33.242-35.744 0 .002.002.002.002.002s1.717-5.728 1.009-9.693c-.006-.022-.012-.036-.014-.059a22.031 22.031 0 0 0-6.384-13.68c-7.533-7.533-19.142-8.501-27.726-2.911-8.652-6.197-20.764-5.416-28.537 2.359C.881-26.485-1.168-19.203 0-12.36"
        style="fill:#fcfae6;fill-rule:nonzero"
        transform="translate(49.84 142.946)"
    /><path
        d="M0-.267-.247-.28v.026l-1.417.076s-4.492 6.465-14.494 5.387c-9.743-1.052-29.532-13.26-47.01 2.575H63.168C45.689-8.051 25.9 4.157 16.158 5.209 6.156 6.287 1.661-.178 1.661-.178L.246-.254V-.28L0-.267Z"
        style="fill:#fcfae6;fill-rule:nonzero"
        transform="translate(84.011 166.88)"
    /><path
        d="M0-19.937s5.71-5.268 9.913-2.849c4.203 2.418 2.049 8.776-.861 12.548 0 0 8.082-.216 9.052 7.759.971 7.973-16.164 15.085-23.169 4.633 0 0-1.723 6.38-19.396 9.815 0 0 2.693-16.173 10.237-18.651 0 0-7.435-7.615-.97-16.738S1.617-26.079 0-19.937"
        style="fill:#1b59b2;fill-rule:nonzero"
        transform="translate(35.007 150.215)"
    /><path
        d="M0-17.452s-8.838 7.146-12.284 4.704c-3.449-2.442.108-3.935 0-6.369-.109-2.431-4.203-3.399-6.683 1.125-2.477 4.526 2.156 12.572 6.035 11.996 3.88-.572 3.291 1.799 3.1 3.737-.189 1.939 3.366 7.323 8.97 6.786 5.603-.535 6.68-6.893 4.526-7.324-2.156-.432-5.065 3.771-7.651-.325C-6.574-7.216.969-14.327 0-17.452"
        style="fill:#fcfae6;fill-rule:nonzero"
        transform="translate(41.904 148.7)"
    /><path
        d="M0 10.884s7.649-1.938 8.62-4.848C9.589 3.125 5.711 0 3.447 2.696 1.185 5.39 0 9.916 0 10.884"
        style="fill:#fcfae6;fill-rule:nonzero"
        transform="translate(17.551 145.578)"
    /><path
        d="M-3.395-3.395a3.395 3.395 0 1 0 0 6.79 3.395 3.395 0 0 0 0-6.79"
        style="fill:#1b59b2;fill-rule:nonzero"
        transform="matrix(0 -1 -1 0 12.646 139.329)"
    /><path
        d="M-3.395-3.396A3.397 3.397 0 0 0-6.791-.001 3.395 3.395 0 1 0 0-.001a3.394 3.394 0 0 0-3.395-3.395"
        style="fill:#1b59b2;fill-rule:nonzero"
        transform="matrix(0 -1 -1 0 30.535 157.002)"
    /><path
        d="M0-7.327S-1.626-.143 9.315 6.034c0 0 9.793-6.177 9.219-13.361l-5.962-6.034H4.92L0-7.327Z"
        style="fill:#1b59b2;fill-rule:nonzero"
        transform="translate(74.449 106.642)"
    /><path
        d="m0 14.223 4.908-5.171L4.152 0h-8.547l-1.043 9.052L0 14.223Z"
        style="fill:#ffce00;fill-rule:nonzero"
        transform="translate(83.764 92.706)"
    /><path
        d="M0 68.366s15.482 1.009 40.32-34.572c0 0-23.805-29.865-35.742-33.241L4.58.549S-1.15-1.168-5.113-.458c-.024.004-.038.009-.061.014a22.022 22.022 0 0 0-13.678 6.381c-7.533 7.533-8.503 19.143-2.913 27.728-6.195 8.652-5.414 20.764 2.359 28.536 5.28 5.282 12.564 7.333 19.406 6.165"
        style="fill:#fcfae6;fill-rule:nonzero"
        transform="translate(124.284 56.114)"
    /><path
        d="M0 125.665V0c-15.377 17.394-3.305 36.994-2.264 46.677 1.077 10.001-5.387 14.494-5.387 14.494l-.075 1.415h-.027l.015.247-.015.248h.027l.075 1.415s6.464 4.491 5.387 14.494C-3.305 88.673-15.377 108.271 0 125.665"
        style="fill:#fcfae6;fill-rule:nonzero"
        transform="translate(168.048 27.476)"
    /><path
        d="M0-5.385s-5.268-5.711-2.851-9.915c2.418-4.203 8.777-2.046 12.548.862 0 0-.216-8.082 7.759-9.051 7.973-.971 15.086 16.164 4.633 23.167 0 0 6.38 1.725 9.817 19.397 0 0-16.175-2.692-18.653-10.236 0 0-7.614 7.434-16.738.969C-12.609 3.342-6.144-7.002 0-5.385"
        style="fill:#1b59b2;fill-rule:nonzero"
        transform="translate(123.977 144.699)"
    /><path
        d="M0-15.625S7.147-6.789 4.706-3.34C2.264.106.769-3.447-1.663-3.34-4.096-3.233-5.064.862-.538 3.339c4.524 2.48 12.57-2.153 11.996-6.032-.574-3.879 1.797-3.291 3.735-3.1 1.939.189 7.323-3.367 6.786-8.969-.535-5.603-6.893-6.682-7.324-4.526-.431 2.153 3.771 5.064-.323 7.651C10.236-9.051 3.125-16.596 0-15.625"
        style="fill:#fcfae6;fill-rule:nonzero"
        transform="translate(124.945 148.041)"
    /><path
        d="M0 9.592S-1.94 1.941-4.85.968C-7.759 0-10.884 3.879-8.19 6.141-5.496 8.404-.97 9.592 0 9.592"
        style="fill:#fcfae6;fill-rule:nonzero"
        transform="translate(150.161 147.18)"
    /><path
        d="M.002-6.788a3.394 3.394 0 1 0 3.394 3.393A3.392 3.392 0 0 0 .002-6.788"
        style="fill:#1b59b2;fill-rule:nonzero"
        transform="matrix(-1 0 0 1 136.423 165.068)"
    /><path
        d="M-.001-6.789a3.394 3.394 0 1 0 0 6.788 3.394 3.394 0 0 0 0-6.788"
        style="fill:#1b59b2;fill-rule:nonzero"
        transform="matrix(-1 0 0 1 154.093 147.18)"
    /><path
        d="M0 17.487s7.183 1.622 13.36-9.317c0 0-6.177-9.792-13.36-9.218l-6.035 5.961v7.651L0 17.487Z"
        style="fill:#1b59b2;fill-rule:nonzero"
        transform="translate(93.014 82.387)"
    /><path
        d="m0-.529-5.171-4.908-9.053.754v8.549l9.053 1.042L0-.529Z"
        style="fill:#ffce00;fill-rule:nonzero"
        transform="translate(100.626 91.086)"
    /><path
        d="M0-68.363s-15.482-1.008-40.321 34.572c0 0 23.807 29.865 35.742 33.242-.002 0-.002.002-.002.002S1.148 1.168 5.113.459c.022-.003.036-.007.058-.012a22.035 22.035 0 0 0 13.683-6.383c7.531-7.533 8.499-19.142 2.91-27.728 6.198-8.652 5.415-20.762-2.358-28.537C14.124-67.481 6.84-69.531 0-68.363"
        style="fill:#fcfae6;fill-rule:nonzero"
        transform="translate(43.767 124.836)"
    /><path
        d="M0-125.668V0c15.379-17.396 3.307-36.995 2.264-46.677-1.078-10.002 5.388-14.496 5.388-14.496l.074-1.413h.027l-.014-.247.014-.247h-.027l-.074-1.416S1.186-68.989 2.264-78.99C3.307-88.673 15.379-108.272 0-125.668"
        style="fill:#fcfae6;fill-rule:nonzero"
        transform="translate(0 153.477)"
    /><path
        d="M0 5.387s5.268 5.711 2.849 9.914c-2.416 4.202-8.775 2.048-12.546-.861 0 0 .214 8.082-7.758 9.051-7.976.969-15.087-16.165-4.635-23.167 0 0-6.379-1.725-9.816-19.397 0 0 16.173 2.692 18.651 10.237 0 0 7.615-7.435 16.738-.97C12.608-3.342 6.144 7.004 0 5.387"
        style="fill:#1b59b2;fill-rule:nonzero"
        transform="translate(44.074 36.252)"
    /><path
        d="M0 15.626S-7.148 6.79-4.706 3.342c2.442-3.449 3.935.107 6.369 0C4.094 3.234 5.064-.861.538-3.34c-4.526-2.478-12.572 2.155-11.997 6.034.574 3.88-1.796 3.291-3.736 3.101-1.939-.191-7.323 3.364-6.785 8.97.535 5.602 6.894 6.679 7.323 4.526.432-2.156-3.771-5.065.324-7.651C-10.239 9.053-3.125 16.595 0 15.626"
        style="fill:#fcfae6;fill-rule:nonzero"
        transform="translate(43.105 32.91)"
    /><path
        d="M0-9.59S1.94-1.939 4.849-.971c2.91.971 6.035-2.908 3.34-5.171C5.496-8.405.97-9.59 0-9.59"
        style="fill:#fcfae6;fill-rule:nonzero"
        transform="translate(17.889 33.774)"
    /><path
        d="M0 6.788A3.394 3.394 0 0 1 0 0a3.394 3.394 0 1 1 0 6.788"
        style="fill:#1b59b2;fill-rule:nonzero"
        transform="translate(31.627 15.885)"
    /><path
        d="M0 6.788A3.394 3.394 0 1 1 0 0a3.394 3.394 0 1 1 0 6.788"
        style="fill:#1b59b2;fill-rule:nonzero"
        transform="translate(13.956 33.774)"
    /><path
        d="M0-17.482s-7.184-1.627-13.362 9.317c0 0 6.178 9.792 13.362 9.218l6.034-5.962v-7.651L0-17.482Z"
        style="fill:#1b59b2;fill-rule:nonzero"
        transform="translate(75.037 98.561)"
    /><path
        d="m0 .531 5.173 4.907 9.05-.756v-8.547l-9.05-1.042L0 .531Z"
        style="fill:#ffce00;fill-rule:nonzero"
        transform="translate(67.422 89.866)"
    /><path
        d="M0 12.36S1.008-3.121-34.573-27.961c0 0-29.864 23.806-33.242 35.744h-.001s-1.716 5.728-1.007 9.691c.004.024.008.038.013.059a22.02 22.02 0 0 0 6.383 13.68c7.533 7.533 19.144 8.503 27.725 2.911 8.653 6.197 20.765 5.416 28.541-2.357C-.883 26.485 1.168 19.203 0 12.36"
        style="fill:#fcfae6;fill-rule:nonzero"
        transform="translate(117.75 37.058)"
    /><path
        d="M0-15.831C17.478 0 37.267-12.208 47.01-13.256c10.002-1.078 14.496 5.387 14.496 5.387l1.413.076v.025l.249-.013.248.013v-.025l1.413-.076s4.494-6.465 14.495-5.387c9.744 1.048 29.533 13.256 47.01-2.575H0Z"
        style="fill:#fcfae6;fill-rule:nonzero"
        transform="translate(20.413 21.174)"
    /><path
        d="M0 19.936s-5.713 5.266-9.914 2.849c-4.202-2.418-2.049-8.776.863-12.548 0 0-8.084.216-9.053-7.759-.969-7.973 16.164-15.086 23.167-4.633 0 0 1.725-6.38 19.397-9.817 0 0-2.692 16.175-10.236 18.653 0 0 7.434 7.615.969 16.738C8.727 32.544-1.617 26.078 0 19.936"
        style="fill:#1b59b2;fill-rule:nonzero"
        transform="translate(132.584 29.793)"
    /><path
        d="M0 17.452s8.836-7.147 12.284-4.706c3.449 2.444-.106 3.937 0 6.369.108 2.433 4.203 3.401 6.682-1.123 2.478-4.526-2.155-12.572-6.034-11.998-3.88.574-3.291-1.797-3.1-3.735.19-1.941-3.365-7.323-8.969-6.786-5.605.535-6.681 6.893-4.526 7.324 2.155.431 5.063-3.771 7.651.323C6.574 7.216-.969 14.329 0 17.452"
        style="fill:#fcfae6;fill-rule:nonzero"
        transform="translate(125.687 31.306)"
    /><path
        d="M0-10.882s-7.651 1.938-8.62 4.848C-9.591-3.124-5.711 0-3.447-2.694-1.186-5.388 0-9.914 0-10.882"
        style="fill:#fcfae6;fill-rule:nonzero"
        transform="translate(150.04 34.426)"
    /><path
        d="M3.396-3.395a3.395 3.395 0 1 0 0 6.79 3.395 3.395 0 0 0 0-6.79"
        style="fill:#1b59b2;fill-rule:nonzero"
        transform="matrix(0 1 1 0 154.942 33.887)"
    /><path
        d="M3.394-3.395A3.394 3.394 0 0 0 0 0a3.39 3.39 0 0 0 3.394 3.394 3.394 3.394 0 1 0 0-6.789"
        style="fill:#1b59b2;fill-rule:nonzero"
        transform="matrix(0 1 1 0 137.056 16.216)"
    /><path
        d="M0 7.328S1.627.145-9.316-6.034c0 0-9.793 6.179-9.217 13.362l5.961 6.034h7.651L0 7.328Z"
        style="fill:#1b59b2;fill-rule:nonzero"
        transform="translate(93.367 73.73)"
    /><path
        d="m0-14.224-4.908 5.171L-4.154 0h8.549l1.041-9.053L0-14.224Z"
        style="fill:#ffce00;fill-rule:nonzero"
        transform="translate(84.366 88.106)"
    /><path
        d="M1.524-3.675A2.15 2.15 0 0 0-.631-1.519a2.154 2.154 0 1 0 4.31-.003 2.15 2.15 0 0 0-2.155-2.153"
        style="fill:#ffce00;fill-rule:nonzero"
        transform="scale(-1 1) rotate(45.019 -190.361 -24.64)"
    /><path
        d="M0-19.743s1.038 1.106.934 2.114c-.103 1.001 3.325 3.325 6.236.967 2.911-2.354 1.455-11.71-7.864-12.368-9.319-.658-14.621 10.602-7.137 20.997C-.349 2.361 11.847 10.951 11.847 10.951l-.069 5.611S-.487 7.487-10.88-4.846c-10.393-12.335-3.049-24.531 3.049-27.995 6.096-3.464 18.639 2.008 19.54 8.73.899 6.722.692 7.622.692 7.622s-1.108 4.853-6.445 5.753c-5.334.9-9.562-4.99-9.63-7.552L0-19.743Z"
        style="fill:#ffce00;fill-rule:nonzero"
        transform="translate(72.6 145.65)"
    /><path
        d="M-1.525-3.676A2.157 2.157 0 1 1-1.526.633a2.157 2.157 0 0 1 .001-4.309"
        style="fill:#ffce00;fill-rule:nonzero"
        transform="scale(-1 1) rotate(-45.019 106.118 178.642)"
    /><path
        d="M0-19.743s-1.039 1.106-.936 2.114c.106 1.001-3.325 3.325-6.236.967-2.911-2.354-1.455-11.707 7.864-12.368 9.32-.658 14.622 10.602 7.138 20.997C.346 2.361-11.849 10.951-11.849 10.951l.069 5.611S.485 7.487 10.879-4.846c10.392-12.335 3.049-24.531-3.049-27.995-6.098-3.464-18.64 2.008-19.54 8.73-.9 6.722-.695 7.622-.695 7.622s1.112 4.853 6.445 5.753c5.337.9 9.565-4.99 9.633-7.552L0-19.743Z"
        style="fill:#ffce00;fill-rule:nonzero"
        transform="translate(95.884 145.65)"
    /><path
        d="M-3.379-3.375a3.377 3.377 0 1 0 .005 6.753 3.377 3.377 0 0 0-.005-6.753"
        style="fill:#ffce00;fill-rule:nonzero"
        transform="matrix(0 -1 -1 0 83.646 135.951)"
    /><path
        d="M0-3.523s5.173 1.222 5.173-2.441h3.376v8.405S7.255 2.295 7.041.355C6.825-1.584 5.961-1.44 5.604-.867 5.244-.291.79.644 0-3.523"
        style="fill:#ffce00;fill-rule:nonzero"
        transform="translate(75.094 145.295)"
    /><path
        d="M0-3.523s-5.172 1.222-5.172-2.441H-8.55v8.405s1.294-.146 1.508-2.086c.217-1.939 1.079-1.795 1.438-1.222C-5.245-.291-.791.644 0-3.523"
        style="fill:#ffce00;fill-rule:nonzero"
        transform="translate(92.192 145.295)"
    /><path
        d="M1.525-.632A2.158 2.158 0 0 0-.632 1.523a2.16 2.16 0 0 0 2.157 2.158 2.158 2.158 0 0 0 2.157-2.155A2.159 2.159 0 0 0 1.525-.632"
        style="fill:#ffce00;fill-rule:nonzero"
        transform="scale(1 -1) rotate(-45.019 -65.082 -195.166)"
    /><path
        d="M0-8.663s1.108-1.039 2.116-.934c1.003.104 3.325-3.325.969-6.238-2.356-2.909-11.711-1.453-12.37 7.866C-9.942 1.351 1.319 6.65 11.712-.832c10.393-7.484 18.984-19.68 18.984-19.68l5.611.072S27.232-8.176 14.899 2.215C2.563 12.61-9.63 5.265-13.094-.832c-3.465-6.096 2.006-18.639 8.73-19.54 6.72-.901 7.622-.693 7.622-.693s4.851 1.109 5.751 6.444c.9 5.335-4.99 9.564-7.552 9.632L0-8.663Z"
        style="fill:#ffce00;fill-rule:nonzero"
        transform="translate(119.602 110.383)"
    /><path
        d="M1.524-3.68A2.153 2.153 0 0 1 3.68-1.527 2.156 2.156 0 1 1 1.524-3.68"
        style="fill:#ffce00;fill-rule:nonzero"
        transform="scale(-1 1) rotate(45.038 -154.394 -110.223)"
    /><path
        d="M0 8.659s1.108 1.042 2.116.938c1.003-.105 3.325 3.325.969 6.236-2.356 2.909-11.709 1.454-12.37-7.865C-9.942-1.352 1.319-6.653 11.712.83c10.393 7.484 18.984 19.682 18.984 19.682l5.611-.073S27.232 8.177 14.899-2.219C2.563-12.612-9.63-5.266-13.094.83c-3.465 6.1 2.006 18.639 8.73 19.54 6.72.901 7.622.694 7.622.694s4.851-1.11 5.751-6.445c.9-5.334-4.99-9.563-7.552-9.63L0 8.659Z"
        style="fill:#ffce00;fill-rule:nonzero"
        transform="translate(119.602 69.776)"
    /><path
        d="M0-6.754A3.377 3.377 0 1 0 .001-.001 3.377 3.377 0 0 0 0-6.754"
        style="fill:#ffce00;fill-rule:nonzero"
        transform="matrix(-1 0 0 1 133.027 94.054)"
    /><path
        d="M0 8.551s1.222-5.173-2.441-5.173V0h8.405S5.82 1.294 3.88 1.51c-1.939.215-1.797 1.078-1.222 1.437.574.359 1.509 4.814-2.658 5.604M0-8.547s1.222 5.171-2.441 5.171V0h8.405S5.82-1.293 3.88-1.508c-1.939-.215-1.797-1.077-1.222-1.437C3.232-3.303 4.167-7.758 0-8.547"
        style="fill:#ffce00;fill-rule:nonzero"
        transform="translate(135.469 90.676)"
    /><path
        d="M-1.523-3.679c-1.19 0-2.155.966-2.155 2.157S-2.713.633-1.523.631a2.156 2.156 0 0 0 0-4.31"
        style="fill:#ffce00;fill-rule:nonzero"
        transform="scale(-1 1) rotate(-44.972 71.483 92.932)"
    /><path
        d="M0 8.663s-1.107 1.04-2.114.937c-1.001-.104-3.327 3.325-.969 6.233 2.355 2.911 11.711 1.458 12.369-7.861C9.945-1.35-1.316-6.65-11.71.834c-10.394 7.482-18.985 19.677-18.985 19.677l-5.611-.07s9.076-12.264 21.41-22.658C-2.562-12.61 9.633-5.266 13.096.834c3.467 6.096-2.008 18.639-8.729 19.54-6.722.899-7.623.69-7.623.69s-4.851-1.106-5.751-6.443c-.902-5.334 4.99-9.562 7.553-9.63L0 8.663Z"
        style="fill:#ffce00;fill-rule:nonzero"
        transform="translate(48.446 70.568)"
    /><path
        d="M-1.522-.631a2.154 2.154 0 1 1-2.155 2.153A2.15 2.15 0 0 1-1.522-.631"
        style="fill:#ffce00;fill-rule:nonzero"
        transform="scale(1 -1) rotate(44.972 150.215 7.262)"
    /><path
        d="M0-8.665s-1.107-1.037-2.114-.934c-1.001.106-3.327-3.325-.969-6.236 2.355-2.91 11.709-1.455 12.369 7.864C9.945 1.349-1.316 6.648-11.71-.834c-10.394-7.483-18.985-19.678-18.985-19.678l-5.611.072s9.076 12.262 21.41 22.657C-2.562 12.608 9.633 5.263 13.096-.834c3.467-6.098-2.008-18.639-8.729-19.538-6.722-.901-7.623-.693-7.623-.693s-4.851 1.108-5.751 6.442c-.902 5.337 4.99 9.563 7.553 9.634L0-8.665Z"
        style="fill:#ffce00;fill-rule:nonzero"
        transform="translate(48.446 111.179)"
    /><path
        d="M0 6.756A3.378 3.378 0 1 1 .003.001 3.378 3.378 0 0 1 0 6.756"
        style="fill:#ffce00;fill-rule:nonzero"
        transform="translate(35.023 86.897)"
    /><path
        d="M0-8.549s-1.222 5.171 2.441 5.171V0h-8.404s.144-1.294 2.083-1.51c1.94-.215 1.797-1.077 1.221-1.435C-3.232-3.303-4.168-7.759 0-8.549M0 8.549s-1.222-5.171 2.441-5.171V0h-8.404s.144 1.292 2.083 1.508c1.94.215 1.797 1.08 1.221 1.437-.573.361-1.509 4.816 2.659 5.604"
        style="fill:#ffce00;fill-rule:nonzero"
        transform="translate(32.582 90.275)"
    /><path
        d="M-1.523-.632a2.156 2.156 0 1 0 0 4.313 2.156 2.156 0 0 0 0-4.313"
        style="fill:#ffce00;fill-rule:nonzero"
        transform="scale(1 -1) rotate(45 112.801 92.82)"
    /><path
        d="M0 19.746s-1.041-1.106-.936-2.112c.104-1.005-3.326-3.327-6.235-.973-2.911 2.358-1.457 11.713 7.863 12.372 9.322.656 14.621-10.602 7.139-20.997C.347-2.358-11.849-10.95-11.849-10.95l.071-5.611S.485-7.484 10.878 4.849c10.395 12.334 3.051 24.529-3.047 27.993-6.1 3.465-18.641-2.008-19.542-8.73-.901-6.72-.691-7.622-.691-7.622s1.109-4.851 6.443-5.751c5.336-.9 9.563 4.988 9.631 7.552L0 19.746Z"
        style="fill:#ffce00;fill-rule:nonzero"
        transform="translate(94.992 34.354)"
    /><path
        d="M1.523-.632a2.152 2.152 0 0 1 2.156 2.156A2.158 2.158 0 0 1 1.523 3.68 2.158 2.158 0 0 1-.633 1.524 2.158 2.158 0 0 1 1.523-.632"
        style="fill:#ffce00;fill-rule:nonzero"
        transform="scale(1 -1) rotate(-45 -29.45 -108.407)"
    /><path
        d="M0 19.746s1.04-1.106.934-2.112c-.105-1.005 3.325-3.327 6.236-.973 2.911 2.358 1.455 11.713-7.864 12.372-9.319.656-14.619-10.602-7.137-20.997C-.347-2.358 11.847-10.95 11.847-10.95l-.071-5.611S-.487-7.484-10.882 4.849c-10.391 12.334-3.047 24.529 3.051 27.993 6.098 3.465 18.639-2.008 19.538-8.73.901-6.72.694-7.622.694-7.622s-1.109-4.851-6.443-5.751c-5.336-.9-9.563 4.988-9.632 7.552L0 19.746Z"
        style="fill:#ffce00;fill-rule:nonzero"
        transform="translate(71.709 34.354)"
    /><path
        d="M3.376-3.376a3.375 3.375 0 1 0-.001 6.75 3.375 3.375 0 0 0 .001-6.75"
        style="fill:#ffce00;fill-rule:nonzero"
        transform="matrix(0 1 1 0 83.948 37.3)"
    /><path
        d="M0 3.519s-5.173-1.222-5.173 2.443h-3.376v-8.405s1.293.144 1.51 2.084c.214 1.94 1.077 1.796 1.435 1.222C-5.246.289-.79-.646 0 3.519"
        style="fill:#ffce00;fill-rule:nonzero"
        transform="translate(92.497 34.714)"
    /><path
        d="M0 3.519s5.175-1.222 5.175 2.443h3.376v-8.405s-1.292.144-1.508 2.084c-.215 1.94-1.08 1.796-1.438 1.222C5.248.289.791-.646 0 3.519"
        style="fill:#ffce00;fill-rule:nonzero"
        transform="translate(75.397 34.714)"
    /><path
        d="M-3.922-3.922a3.923 3.923 0 1 0 0 7.846 3.923 3.923 0 0 0 0-7.846"
        style="fill:#ef4848;fill-rule:nonzero"
        transform="matrix(0 -1 -1 0 83.95 86.21)"
    /></svg>
