<?xml version="1.0" encoding="us-ascii" standalone="no"?><svg xmlns="http://www.w3.org/2000/svg" xmlns:xlink="http://www.w3.org/1999/xlink" contentStyleType="text/css" height="1612px" preserveAspectRatio="none" style="width:717px;height:1612px;background:#FFFFFF;" version="1.1" viewBox="0 0 717 1612" width="717px" zoomAndPan="magnify"><defs/><g><text fill="#000000" font-family="sans-serif" font-size="14" font-weight="bold" lengthAdjust="spacing" text-decoration="underline" textLength="218" x="242.5" y="25.1074">MINESWEEPER's Class Diagram</text><text fill="#000000" font-family="sans-serif" font-size="14" font-weight="bold" lengthAdjust="spacing" textLength="4" x="349.5" y="43.7285">&#160;</text><!--cluster daw--><g id="cluster_daw"><path d="M8.5,64.2559 L37.5,64.2559 A3.75,3.75 0 0 1 40,66.7559 L47,88.877 L707.5,88.877 A2.5,2.5 0 0 1 710,91.377 L710,1542.7559 A2.5,2.5 0 0 1 707.5,1545.2559 L8.5,1545.2559 A2.5,2.5 0 0 1 6,1542.7559 L6,66.7559 A2.5,2.5 0 0 1 8.5,64.2559 " fill="none" style="stroke:#000000;stroke-width:1.5;"/><line style="stroke:#000000;stroke-width:1.5;" x1="6" x2="47" y1="88.877" y2="88.877"/><text fill="#000000" font-family="sans-serif" font-size="14" font-weight="bold" lengthAdjust="spacing" textLength="28" x="10" y="81.3633">daw</text></g><!--cluster pr--><g id="cluster_pr"><path d="M32.5,109.2559 L48.5,109.2559 A3.75,3.75 0 0 1 51,111.7559 L58,133.877 L683.5,133.877 A2.5,2.5 0 0 1 686,136.377 L686,1518.7559 A2.5,2.5 0 0 1 683.5,1521.2559 L32.5,1521.2559 A2.5,2.5 0 0 1 30,1518.7559 L30,111.7559 A2.5,2.5 0 0 1 32.5,109.2559 " fill="none" style="stroke:#000000;stroke-width:1.5;"/><line style="stroke:#000000;stroke-width:1.5;" x1="30" x2="58" y1="133.877" y2="133.877"/><text fill="#000000" font-family="sans-serif" font-size="14" font-weight="bold" lengthAdjust="spacing" textLength="15" x="34" y="126.3633">pr</text></g><!--cluster minesweeper--><g id="cluster_minesweeper"><path d="M56.5,154.2559 L152.5,154.2559 A3.75,3.75 0 0 1 155,156.7559 L162,178.877 L659.5,178.877 A2.5,2.5 0 0 1 662,181.377 L662,1494.7559 A2.5,2.5 0 0 1 659.5,1497.2559 L56.5,1497.2559 A2.5,2.5 0 0 1 54,1494.7559 L54,156.7559 A2.5,2.5 0 0 1 56.5,154.2559 " fill="none" style="stroke:#000000;stroke-width:1.5;"/><line style="stroke:#000000;stroke-width:1.5;" x1="54" x2="162" y1="178.877" y2="178.877"/><text fill="#000000" font-family="sans-serif" font-size="14" font-weight="bold" lengthAdjust="spacing" textLength="95" x="58" y="171.3633">minesweeper</text></g><!--class App--><g id="elem_App"><rect codeLine="5" fill="#F1F1F1" height="103.8633" id="App" rx="2.5" ry="2.5" style="stroke:#181818;stroke-width:0.5;" width="143" x="194.5" y="247.2559"/><ellipse cx="249.25" cy="263.2559" fill="#ADD1B2" rx="11" ry="11" style="stroke:#181818;stroke-width:1.0;"/><path d="M252.0156,259.1309 Q252.1719,258.9121 252.3594,258.8027 Q252.5469,258.6934 252.7656,258.6934 Q253.1406,258.6934 253.375,258.959 Q253.6094,259.209 253.6094,259.8184 L253.6094,261.2715 Q253.6094,261.8809 253.375,262.1465 Q253.1406,262.4121 252.7656,262.4121 Q252.4219,262.4121 252.2188,262.209 Q252.0156,262.0215 251.9063,261.5059 Q251.8594,261.1465 251.6719,260.959 Q251.3438,260.584 250.7344,260.3652 Q250.125,260.1465 249.5,260.1465 Q248.7344,260.1465 248.0938,260.4746 Q247.4688,260.8027 246.9688,261.5527 Q246.4844,262.3027 246.4844,263.334 L246.4844,264.4277 Q246.4844,265.6621 247.375,266.4902 Q248.2656,267.3027 249.8594,267.3027 Q250.7969,267.3027 251.4531,267.0527 Q251.8438,266.8965 252.2656,266.459 Q252.5313,266.1934 252.6719,266.1152 Q252.8281,266.0371 253.0313,266.0371 Q253.3594,266.0371 253.6094,266.3027 Q253.875,266.5527 253.875,266.8965 Q253.875,267.2402 253.5313,267.6465 Q253.0313,268.2246 252.2344,268.5527 Q251.1563,269.0059 249.8594,269.0059 Q248.3438,269.0059 247.1406,268.3809 Q246.1563,267.8809 245.4688,266.8184 Q244.7813,265.7402 244.7813,264.459 L244.7813,263.3027 Q244.7813,261.9746 245.3906,260.834 Q246.0156,259.6777 247.1094,259.0684 Q248.2031,258.4434 249.4375,258.4434 Q250.1719,258.4434 250.8125,258.6152 Q251.4688,258.7715 252.0156,259.1309 Z " fill="#000000"/><text fill="#000000" font-family="sans-serif" font-size="14" lengthAdjust="spacing" textLength="25" x="269.75" y="269.0527">App</text><line style="stroke:#181818;stroke-width:0.5;" x1="195.5" x2="336.5" y1="279.2559" y2="279.2559"/><rect fill="none" height="6" style="stroke:#C82930;stroke-width:1.0;" width="6" x="202.5" y="291.0664"/><text fill="#000000" font-family="sans-serif" font-size="14" lengthAdjust="spacing" text-decoration="underline" textLength="117" x="214.5" y="298.3633">LOGGER : Logger</text><line style="stroke:#181818;stroke-width:0.5;" x1="195.5" x2="336.5" y1="305.877" y2="305.877"/><ellipse cx="205.5" cy="320.6875" fill="#84BE84" rx="3" ry="3" style="stroke:#038048;stroke-width:1.0;"/><text fill="#000000" font-family="sans-serif" font-size="14" lengthAdjust="spacing" text-decoration="underline" textLength="40" x="214.5" y="324.9844">main()</text><rect fill="#F24D5C" height="6" style="stroke:#C82930;stroke-width:1.0;" width="6" x="202.5" y="336.3086"/><text fill="#000000" font-family="sans-serif" font-size="14" lengthAdjust="spacing" text-decoration="underline" textLength="98" x="214.5" y="343.6055">logSystemInfo()</text></g><!--class Cell--><g id="elem_Cell"><rect codeLine="14" fill="#F1F1F1" height="364.5586" id="Cell" rx="2.5" ry="2.5" style="stroke:#181818;stroke-width:0.5;" width="139" x="70.5" y="681.7559"/><ellipse cx="123.75" cy="697.7559" fill="#ADD1B2" rx="11" ry="11" style="stroke:#181818;stroke-width:1.0;"/><path d="M126.5156,693.6309 Q126.6719,693.4121 126.8594,693.3027 Q127.0469,693.1934 127.2656,693.1934 Q127.6406,693.1934 127.875,693.459 Q128.1094,693.709 128.1094,694.3184 L128.1094,695.7715 Q128.1094,696.3809 127.875,696.6465 Q127.6406,696.9121 127.2656,696.9121 Q126.9219,696.9121 126.7188,696.709 Q126.5156,696.5215 126.4063,696.0059 Q126.3594,695.6465 126.1719,695.459 Q125.8438,695.084 125.2344,694.8652 Q124.625,694.6465 124,694.6465 Q123.2344,694.6465 122.5938,694.9746 Q121.9688,695.3027 121.4688,696.0527 Q120.9844,696.8027 120.9844,697.834 L120.9844,698.9277 Q120.9844,700.1621 121.875,700.9902 Q122.7656,701.8027 124.3594,701.8027 Q125.2969,701.8027 125.9531,701.5527 Q126.3438,701.3965 126.7656,700.959 Q127.0313,700.6934 127.1719,700.6152 Q127.3281,700.5371 127.5313,700.5371 Q127.8594,700.5371 128.1094,700.8027 Q128.375,701.0527 128.375,701.3965 Q128.375,701.7402 128.0313,702.1465 Q127.5313,702.7246 126.7344,703.0527 Q125.6563,703.5059 124.3594,703.5059 Q122.8438,703.5059 121.6406,702.8809 Q120.6563,702.3809 119.9688,701.3184 Q119.2813,700.2402 119.2813,698.959 L119.2813,697.8027 Q119.2813,696.4746 119.8906,695.334 Q120.5156,694.1777 121.6094,693.5684 Q122.7031,692.9434 123.9375,692.9434 Q124.6719,692.9434 125.3125,693.1152 Q125.9688,693.2715 126.5156,693.6309 Z " fill="#000000"/><text fill="#000000" font-family="sans-serif" font-size="14" lengthAdjust="spacing" textLength="24" x="144.25" y="703.5527">Cell</text><line style="stroke:#181818;stroke-width:0.5;" x1="71.5" x2="208.5" y1="713.7559" y2="713.7559"/><rect fill="none" height="6" style="stroke:#C82930;stroke-width:1.0;" width="6" x="78.5" y="725.5664"/><text fill="#000000" font-family="sans-serif" font-size="14" lengthAdjust="spacing" textLength="110" x="90.5" y="732.8633">minesAround : int</text><rect fill="none" height="6" style="stroke:#C82930;stroke-width:1.0;" width="6" x="78.5" y="744.1875"/><text fill="#000000" font-family="sans-serif" font-size="14" lengthAdjust="spacing" textLength="62" x="90.5" y="751.4844">offset : int</text><rect fill="none" height="6" style="stroke:#C82930;stroke-width:1.0;" width="6" x="78.5" y="762.8086"/><text fill="#000000" font-family="sans-serif" font-size="14" lengthAdjust="spacing" textLength="84" x="90.5" y="770.1055">position : int[]</text><line style="stroke:#181818;stroke-width:0.5;" x1="71.5" x2="208.5" y1="777.6191" y2="777.6191"/><ellipse cx="81.5" cy="792.4297" fill="#84BE84" rx="3" ry="3" style="stroke:#038048;stroke-width:1.0;"/><text fill="#000000" font-family="sans-serif" font-size="14" lengthAdjust="spacing" textLength="34" x="90.5" y="796.7266">Cell()</text><ellipse cx="81.5" cy="811.0508" fill="#84BE84" rx="3" ry="3" style="stroke:#038048;stroke-width:1.0;"/><text fill="#000000" font-family="sans-serif" font-size="14" lengthAdjust="spacing" textLength="34" x="90.5" y="815.3477">Cell()</text><ellipse cx="81.5" cy="829.6719" fill="#84BE84" rx="3" ry="3" style="stroke:#038048;stroke-width:1.0;"/><text fill="#000000" font-family="sans-serif" font-size="14" lengthAdjust="spacing" textLength="78" x="90.5" y="833.9688">getColumn()</text><ellipse cx="81.5" cy="848.293" fill="#84BE84" rx="3" ry="3" style="stroke:#038048;stroke-width:1.0;"/><text fill="#000000" font-family="sans-serif" font-size="14" lengthAdjust="spacing" textLength="113" x="90.5" y="852.5898">getMinesAround()</text><ellipse cx="81.5" cy="866.9141" fill="#84BE84" rx="3" ry="3" style="stroke:#038048;stroke-width:1.0;"/><text fill="#000000" font-family="sans-serif" font-size="14" lengthAdjust="spacing" textLength="68" x="90.5" y="871.2109">getOffset()</text><ellipse cx="81.5" cy="885.5352" fill="#84BE84" rx="3" ry="3" style="stroke:#038048;stroke-width:1.0;"/><text fill="#000000" font-family="sans-serif" font-size="14" lengthAdjust="spacing" textLength="57" x="90.5" y="889.832">getRow()</text><ellipse cx="81.5" cy="904.1563" fill="#84BE84" rx="3" ry="3" style="stroke:#038048;stroke-width:1.0;"/><text fill="#000000" font-family="sans-serif" font-size="14" lengthAdjust="spacing" textLength="111" x="90.5" y="908.4531">getStateCanvas()</text><ellipse cx="81.5" cy="922.7773" fill="#84BE84" rx="3" ry="3" style="stroke:#038048;stroke-width:1.0;"/><text fill="#000000" font-family="sans-serif" font-size="14" lengthAdjust="spacing" textLength="87" x="90.5" y="927.0742">getStateSelf()</text><ellipse cx="81.5" cy="941.3984" fill="#84BE84" rx="3" ry="3" style="stroke:#038048;stroke-width:1.0;"/><text fill="#000000" font-family="sans-serif" font-size="14" lengthAdjust="spacing" textLength="112" x="90.5" y="945.6953">setMinesAround()</text><ellipse cx="81.5" cy="960.0195" fill="#84BE84" rx="3" ry="3" style="stroke:#038048;stroke-width:1.0;"/><text fill="#000000" font-family="sans-serif" font-size="14" lengthAdjust="spacing" textLength="67" x="90.5" y="964.3164">setOffset()</text><ellipse cx="81.5" cy="978.6406" fill="#84BE84" rx="3" ry="3" style="stroke:#038048;stroke-width:1.0;"/><text fill="#000000" font-family="sans-serif" font-size="14" lengthAdjust="spacing" textLength="79" x="90.5" y="982.9375">setPosition()</text><ellipse cx="81.5" cy="997.2617" fill="#84BE84" rx="3" ry="3" style="stroke:#038048;stroke-width:1.0;"/><text fill="#000000" font-family="sans-serif" font-size="14" lengthAdjust="spacing" textLength="110" x="90.5" y="1001.5586">setStateCanvas()</text><ellipse cx="81.5" cy="1015.8828" fill="#84BE84" rx="3" ry="3" style="stroke:#038048;stroke-width:1.0;"/><text fill="#000000" font-family="sans-serif" font-size="14" lengthAdjust="spacing" textLength="86" x="90.5" y="1020.1797">setStateSelf()</text><ellipse cx="81.5" cy="1034.5039" fill="#84BE84" rx="3" ry="3" style="stroke:#038048;stroke-width:1.0;"/><text fill="#000000" font-family="sans-serif" font-size="14" lengthAdjust="spacing" textLength="59" x="90.5" y="1038.8008">toString()</text></g><!--class Difficulty--><g id="elem_Difficulty"><rect codeLine="37" fill="#F1F1F1" height="159.7266" id="Difficulty" rx="2.5" ry="2.5" style="stroke:#181818;stroke-width:0.5;" width="85" x="342.5" y="1321.2559"/><ellipse cx="357.5" cy="1337.2559" fill="#EB937F" rx="11" ry="11" style="stroke:#181818;stroke-width:1.0;"/><path d="M356.3594,1338.0527 L356.3594,1340.5527 L360.6875,1340.5527 L360.6875,1339.6309 Q360.6875,1339.0215 360.9219,1338.7559 Q361.1719,1338.4902 361.5469,1338.4902 Q361.9219,1338.4902 362.1563,1338.7559 Q362.3906,1339.0215 362.3906,1339.6309 L362.3906,1342.2559 L354.3906,1342.2559 Q353.7656,1342.2559 353.5,1342.0215 Q353.25,1341.7871 353.25,1341.3965 Q353.25,1341.0215 353.5156,1340.7871 Q353.7813,1340.5527 354.3906,1340.5527 L354.6563,1340.5527 L354.6563,1333.8965 L354.3906,1333.8965 Q353.7656,1333.8965 353.5,1333.6621 Q353.25,1333.4277 353.25,1333.0371 Q353.25,1332.6621 353.5,1332.4277 Q353.7656,1332.1934 354.3906,1332.1934 L362.0156,1332.1934 L362.0156,1334.7871 Q362.0156,1335.3965 361.7813,1335.6621 Q361.5625,1335.9121 361.1719,1335.9121 Q360.7969,1335.9121 360.5625,1335.6621 Q360.3281,1335.3965 360.3281,1334.7871 L360.3281,1333.8965 L356.3594,1333.8965 L356.3594,1336.3496 L357.8438,1336.3496 Q357.8438,1335.6934 357.9688,1335.5059 Q358.2344,1335.0996 358.7031,1335.0996 Q359.0781,1335.0996 359.3125,1335.3652 Q359.5469,1335.6152 359.5469,1336.2246 L359.5469,1338.1934 Q359.5469,1338.7402 359.4219,1338.9277 Q359.1563,1339.3184 358.7031,1339.3184 Q358.2344,1339.3184 357.9688,1338.9121 Q357.8438,1338.7246 357.8438,1338.0527 L356.3594,1338.0527 Z " fill="#000000"/><text fill="#000000" font-family="sans-serif" font-size="14" lengthAdjust="spacing" textLength="53" x="371.5" y="1343.0527">Difficulty</text><line style="stroke:#181818;stroke-width:0.5;" x1="343.5" x2="426.5" y1="1353.2559" y2="1353.2559"/><text fill="#000000" font-family="sans-serif" font-size="14" lengthAdjust="spacing" textLength="36" x="348.5" y="1372.3633">EASY</text><text fill="#000000" font-family="sans-serif" font-size="14" lengthAdjust="spacing" textLength="38" x="348.5" y="1390.9844">HARD</text><text fill="#000000" font-family="sans-serif" font-size="14" lengthAdjust="spacing" textLength="53" x="348.5" y="1409.6055">MEDIUM</text><text fill="#000000" font-family="sans-serif" font-size="14" lengthAdjust="spacing" textLength="52" x="348.5" y="1428.2266">columns</text><text fill="#000000" font-family="sans-serif" font-size="14" lengthAdjust="spacing" textLength="37" x="348.5" y="1446.8477">mines</text><text fill="#000000" font-family="sans-serif" font-size="14" lengthAdjust="spacing" textLength="29" x="348.5" y="1465.4688">rows</text><line style="stroke:#181818;stroke-width:0.5;" x1="343.5" x2="426.5" y1="1472.9824" y2="1472.9824"/></g><!--class Game--><g id="elem_Game"><rect codeLine="49" fill="#F1F1F1" height="755.6016" id="Game" rx="2.5" ry="2.5" style="stroke:#181818;stroke-width:0.5;" width="195" x="322.5" y="486.2559"/><ellipse cx="396.75" cy="502.2559" fill="#ADD1B2" rx="11" ry="11" style="stroke:#181818;stroke-width:1.0;"/><path d="M399.5156,498.1309 Q399.6719,497.9121 399.8594,497.8027 Q400.0469,497.6934 400.2656,497.6934 Q400.6406,497.6934 400.875,497.959 Q401.1094,498.209 401.1094,498.8184 L401.1094,500.2715 Q401.1094,500.8809 400.875,501.1465 Q400.6406,501.4121 400.2656,501.4121 Q399.9219,501.4121 399.7188,501.209 Q399.5156,501.0215 399.4063,500.5059 Q399.3594,500.1465 399.1719,499.959 Q398.8438,499.584 398.2344,499.3652 Q397.625,499.1465 397,499.1465 Q396.2344,499.1465 395.5938,499.4746 Q394.9688,499.8027 394.4688,500.5527 Q393.9844,501.3027 393.9844,502.334 L393.9844,503.4277 Q393.9844,504.6621 394.875,505.4902 Q395.7656,506.3027 397.3594,506.3027 Q398.2969,506.3027 398.9531,506.0527 Q399.3438,505.8965 399.7656,505.459 Q400.0313,505.1934 400.1719,505.1152 Q400.3281,505.0371 400.5313,505.0371 Q400.8594,505.0371 401.1094,505.3027 Q401.375,505.5527 401.375,505.8965 Q401.375,506.2402 401.0313,506.6465 Q400.5313,507.2246 399.7344,507.5527 Q398.6563,508.0059 397.3594,508.0059 Q395.8438,508.0059 394.6406,507.3809 Q393.6563,506.8809 392.9688,505.8184 Q392.2813,504.7402 392.2813,503.459 L392.2813,502.3027 Q392.2813,500.9746 392.8906,499.834 Q393.5156,498.6777 394.6094,498.0684 Q395.7031,497.4434 396.9375,497.4434 Q397.6719,497.4434 398.3125,497.6152 Q398.9688,497.7715 399.5156,498.1309 Z " fill="#000000"/><text fill="#000000" font-family="sans-serif" font-size="14" lengthAdjust="spacing" textLength="38" x="417.25" y="508.0527">Game</text><line style="stroke:#181818;stroke-width:0.5;" x1="323.5" x2="516.5" y1="518.2559" y2="518.2559"/><rect fill="none" height="6" style="stroke:#C82930;stroke-width:1.0;" width="6" x="330.5" y="530.0664"/><text fill="#000000" font-family="sans-serif" font-size="14" lengthAdjust="spacing" text-decoration="underline" textLength="117" x="342.5" y="537.3633">LOGGER : Logger</text><rect fill="none" height="6" style="stroke:#C82930;stroke-width:1.0;" width="6" x="330.5" y="548.6875"/><text fill="#000000" font-family="sans-serif" font-size="14" lengthAdjust="spacing" textLength="80" x="342.5" y="555.9844">cells : Cell[][]</text><rect fill="none" height="6" style="stroke:#C82930;stroke-width:1.0;" width="6" x="330.5" y="567.3086"/><text fill="#000000" font-family="sans-serif" font-size="14" lengthAdjust="spacing" textLength="129" x="342.5" y="574.6055">gameOver : boolean</text><rect fill="none" height="6" style="stroke:#C82930;stroke-width:1.0;" width="6" x="330.5" y="585.9297"/><text fill="#000000" font-family="sans-serif" font-size="14" lengthAdjust="spacing" textLength="88" x="342.5" y="593.2266">initTime : long</text><rect fill="none" height="6" style="stroke:#C82930;stroke-width:1.0;" width="6" x="330.5" y="604.5508"/><text fill="#000000" font-family="sans-serif" font-size="14" lengthAdjust="spacing" textLength="68" x="342.5" y="611.8477">moves : int</text><rect fill="none" height="6" style="stroke:#C82930;stroke-width:1.0;" width="6" x="330.5" y="623.1719"/><text fill="#000000" font-family="sans-serif" font-size="14" lengthAdjust="spacing" textLength="124" x="342.5" y="630.4688">playerName : String</text><rect fill="none" height="6" style="stroke:#C82930;stroke-width:1.0;" width="6" x="330.5" y="641.793"/><text fill="#000000" font-family="sans-serif" font-size="14" lengthAdjust="spacing" textLength="65" x="342.5" y="649.0898">points : int</text><rect fill="none" height="6" style="stroke:#C82930;stroke-width:1.0;" width="6" x="330.5" y="660.4141"/><text fill="#000000" font-family="sans-serif" font-size="14" lengthAdjust="spacing" textLength="98" x="342.5" y="667.7109">scoreValue : int</text><line style="stroke:#181818;stroke-width:0.5;" x1="323.5" x2="516.5" y1="675.2246" y2="675.2246"/><ellipse cx="333.5" cy="690.0352" fill="#84BE84" rx="3" ry="3" style="stroke:#038048;stroke-width:1.0;"/><text fill="#000000" font-family="sans-serif" font-size="14" lengthAdjust="spacing" textLength="48" x="342.5" y="694.332">Game()</text><ellipse cx="333.5" cy="708.6563" fill="#84BE84" rx="3" ry="3" style="stroke:#038048;stroke-width:1.0;"/><text fill="#000000" font-family="sans-serif" font-size="14" lengthAdjust="spacing" textLength="122" x="342.5" y="712.9531">calculateNumbers()</text><ellipse cx="333.5" cy="727.2773" fill="#84BE84" rx="3" ry="3" style="stroke:#038048;stroke-width:1.0;"/><text fill="#000000" font-family="sans-serif" font-size="14" lengthAdjust="spacing" textLength="116" x="342.5" y="731.5742">getAdjacentCells()</text><ellipse cx="333.5" cy="745.8984" fill="#84BE84" rx="3" ry="3" style="stroke:#038048;stroke-width:1.0;"/><text fill="#000000" font-family="sans-serif" font-size="14" lengthAdjust="spacing" textLength="122" x="342.5" y="750.1953">getAdjacentMines()</text><ellipse cx="333.5" cy="764.5195" fill="#84BE84" rx="3" ry="3" style="stroke:#038048;stroke-width:1.0;"/><text fill="#000000" font-family="sans-serif" font-size="14" lengthAdjust="spacing" textLength="54" x="342.5" y="768.8164">getCell()</text><ellipse cx="333.5" cy="783.1406" fill="#84BE84" rx="3" ry="3" style="stroke:#038048;stroke-width:1.0;"/><text fill="#000000" font-family="sans-serif" font-size="14" lengthAdjust="spacing" textLength="85" x="342.5" y="787.4375">getColumns()</text><ellipse cx="333.5" cy="801.7617" fill="#84BE84" rx="3" ry="3" style="stroke:#038048;stroke-width:1.0;"/><text fill="#000000" font-family="sans-serif" font-size="14" lengthAdjust="spacing" textLength="89" x="342.5" y="806.0586">getHallFame()</text><ellipse cx="333.5" cy="820.3828" fill="#84BE84" rx="3" ry="3" style="stroke:#038048;stroke-width:1.0;"/><text fill="#000000" font-family="sans-serif" font-size="14" lengthAdjust="spacing" textLength="64" x="342.5" y="824.6797">getRows()</text><ellipse cx="333.5" cy="839.0039" fill="#84BE84" rx="3" ry="3" style="stroke:#038048;stroke-width:1.0;"/><text fill="#000000" font-family="sans-serif" font-size="14" lengthAdjust="spacing" textLength="103" x="342.5" y="843.3008">getScoreValue()</text><ellipse cx="333.5" cy="857.625" fill="#84BE84" rx="3" ry="3" style="stroke:#038048;stroke-width:1.0;"/><text fill="#000000" font-family="sans-serif" font-size="14" lengthAdjust="spacing" textLength="89" x="342.5" y="861.9219">isGameOver()</text><ellipse cx="333.5" cy="876.2461" fill="#84BE84" rx="3" ry="3" style="stroke:#038048;stroke-width:1.0;"/><text fill="#000000" font-family="sans-serif" font-size="14" lengthAdjust="spacing" textLength="44" x="342.5" y="880.543">isWin()</text><ellipse cx="333.5" cy="894.8672" fill="#84BE84" rx="3" ry="3" style="stroke:#038048;stroke-width:1.0;"/><text fill="#000000" font-family="sans-serif" font-size="14" lengthAdjust="spacing" textLength="59" x="342.5" y="899.1641">leftClick()</text><ellipse cx="333.5" cy="913.4883" fill="#84BE84" rx="3" ry="3" style="stroke:#038048;stroke-width:1.0;"/><text fill="#000000" font-family="sans-serif" font-size="14" lengthAdjust="spacing" textLength="68" x="342.5" y="917.7852">rightClick()</text><ellipse cx="333.5" cy="932.1094" fill="#84BE84" rx="3" ry="3" style="stroke:#038048;stroke-width:1.0;"/><text fill="#000000" font-family="sans-serif" font-size="14" lengthAdjust="spacing" textLength="85" x="342.5" y="936.4063">saveWinner()</text><ellipse cx="333.5" cy="950.7305" fill="#84BE84" rx="3" ry="3" style="stroke:#038048;stroke-width:1.0;"/><text fill="#000000" font-family="sans-serif" font-size="14" lengthAdjust="spacing" textLength="98" x="342.5" y="955.0273">setGameOver()</text><ellipse cx="333.5" cy="969.3516" fill="#84BE84" rx="3" ry="3" style="stroke:#038048;stroke-width:1.0;"/><text fill="#000000" font-family="sans-serif" font-size="14" lengthAdjust="spacing" textLength="105" x="342.5" y="973.6484">setPlayerName()</text><ellipse cx="333.5" cy="987.9727" fill="#84BE84" rx="3" ry="3" style="stroke:#038048;stroke-width:1.0;"/><text fill="#000000" font-family="sans-serif" font-size="14" lengthAdjust="spacing" textLength="59" x="342.5" y="992.2695">toString()</text><ellipse cx="333.5" cy="1006.5938" fill="#84BE84" rx="3" ry="3" style="stroke:#038048;stroke-width:1.0;"/><text fill="#000000" font-family="sans-serif" font-size="14" lengthAdjust="spacing" textLength="107" x="342.5" y="1010.8906">uncoverAllCells()</text><ellipse cx="333.5" cy="1025.2148" fill="#84BE84" rx="3" ry="3" style="stroke:#038048;stroke-width:1.0;"/><text fill="#000000" font-family="sans-serif" font-size="14" lengthAdjust="spacing" textLength="85" x="342.5" y="1029.5117">uncoverCell()</text><ellipse cx="333.5" cy="1043.8359" fill="#84BE84" rx="3" ry="3" style="stroke:#038048;stroke-width:1.0;"/><text fill="#000000" font-family="sans-serif" font-size="14" lengthAdjust="spacing" textLength="131" x="342.5" y="1048.1328">uncoverClickedCell()</text><ellipse cx="333.5" cy="1062.457" fill="#84BE84" rx="3" ry="3" style="stroke:#038048;stroke-width:1.0;"/><text fill="#000000" font-family="sans-serif" font-size="14" lengthAdjust="spacing" textLength="131" x="342.5" y="1066.7539">uncoverClickedCell()</text><rect fill="#F24D5C" height="6" style="stroke:#C82930;stroke-width:1.0;" width="6" x="330.5" y="1078.0781"/><text fill="#000000" font-family="sans-serif" font-size="14" lengthAdjust="spacing" textLength="139" x="342.5" y="1085.375">calculateScoreValue()</text><rect fill="#F24D5C" height="6" style="stroke:#C82930;stroke-width:1.0;" width="6" x="330.5" y="1096.6992"/><text fill="#000000" font-family="sans-serif" font-size="14" lengthAdjust="spacing" textLength="67" x="342.5" y="1103.9961">fillHidden()</text><rect fill="#F24D5C" height="6" style="stroke:#C82930;stroke-width:1.0;" width="6" x="330.5" y="1115.3203"/><text fill="#000000" font-family="sans-serif" font-size="14" lengthAdjust="spacing" textLength="60" x="342.5" y="1122.6172">fillMines()</text><rect fill="#F24D5C" height="6" style="stroke:#C82930;stroke-width:1.0;" width="6" x="330.5" y="1133.9414"/><text fill="#000000" font-family="sans-serif" font-size="14" lengthAdjust="spacing" textLength="169" x="342.5" y="1141.2383">firstMoveCannotBeLoose()</text><rect fill="#F24D5C" height="6" style="stroke:#C82930;stroke-width:1.0;" width="6" x="330.5" y="1152.5625"/><text fill="#000000" font-family="sans-serif" font-size="14" lengthAdjust="spacing" textLength="115" x="342.5" y="1159.8594">generateCanvas()</text><rect fill="#F24D5C" height="6" style="stroke:#C82930;stroke-width:1.0;" width="6" x="330.5" y="1171.1836"/><text fill="#000000" font-family="sans-serif" font-size="14" lengthAdjust="spacing" textLength="75" x="342.5" y="1178.4805">isValidCell()</text><rect fill="#F24D5C" height="6" style="stroke:#C82930;stroke-width:1.0;" width="6" x="330.5" y="1189.8047"/><text fill="#000000" font-family="sans-serif" font-size="14" lengthAdjust="spacing" textLength="88" x="342.5" y="1197.1016">minesFound()</text><rect fill="#F24D5C" height="6" style="stroke:#C82930;stroke-width:1.0;" width="6" x="330.5" y="1208.4258"/><text fill="#000000" font-family="sans-serif" font-size="14" lengthAdjust="spacing" textLength="76" x="342.5" y="1215.7227">printGame()</text><rect fill="#F24D5C" height="6" style="stroke:#C82930;stroke-width:1.0;" width="6" x="330.5" y="1227.0469"/><text fill="#000000" font-family="sans-serif" font-size="14" lengthAdjust="spacing" textLength="102" x="342.5" y="1234.3438">setScoreValue()</text></g><!--class SQLDriver--><g id="elem_SQLDriver"><rect codeLine="93" fill="#F1F1F1" height="122.4844" id="SQLDriver" rx="2.5" ry="2.5" style="stroke:#181818;stroke-width:0.5;" width="183" x="462.5" y="1340.2559"/><ellipse cx="516.75" cy="1356.2559" fill="#ADD1B2" rx="11" ry="11" style="stroke:#181818;stroke-width:1.0;"/><path d="M519.5156,1352.1309 Q519.6719,1351.9121 519.8594,1351.8027 Q520.0469,1351.6934 520.2656,1351.6934 Q520.6406,1351.6934 520.875,1351.959 Q521.1094,1352.209 521.1094,1352.8184 L521.1094,1354.2715 Q521.1094,1354.8809 520.875,1355.1465 Q520.6406,1355.4121 520.2656,1355.4121 Q519.9219,1355.4121 519.7188,1355.209 Q519.5156,1355.0215 519.4063,1354.5059 Q519.3594,1354.1465 519.1719,1353.959 Q518.8438,1353.584 518.2344,1353.3652 Q517.625,1353.1465 517,1353.1465 Q516.2344,1353.1465 515.5938,1353.4746 Q514.9688,1353.8027 514.4688,1354.5527 Q513.9844,1355.3027 513.9844,1356.334 L513.9844,1357.4277 Q513.9844,1358.6621 514.875,1359.4902 Q515.7656,1360.3027 517.3594,1360.3027 Q518.2969,1360.3027 518.9531,1360.0527 Q519.3438,1359.8965 519.7656,1359.459 Q520.0313,1359.1934 520.1719,1359.1152 Q520.3281,1359.0371 520.5313,1359.0371 Q520.8594,1359.0371 521.1094,1359.3027 Q521.375,1359.5527 521.375,1359.8965 Q521.375,1360.2402 521.0313,1360.6465 Q520.5313,1361.2246 519.7344,1361.5527 Q518.6563,1362.0059 517.3594,1362.0059 Q515.8438,1362.0059 514.6406,1361.3809 Q513.6563,1360.8809 512.9688,1359.8184 Q512.2813,1358.7402 512.2813,1357.459 L512.2813,1356.3027 Q512.2813,1354.9746 512.8906,1353.834 Q513.5156,1352.6777 514.6094,1352.0684 Q515.7031,1351.4434 516.9375,1351.4434 Q517.6719,1351.4434 518.3125,1351.6152 Q518.9688,1351.7715 519.5156,1352.1309 Z " fill="#000000"/><text fill="#000000" font-family="sans-serif" font-size="14" lengthAdjust="spacing" textLength="66" x="537.25" y="1362.0527">SQLDriver</text><line style="stroke:#181818;stroke-width:0.5;" x1="463.5" x2="644.5" y1="1372.2559" y2="1372.2559"/><rect fill="none" height="6" style="stroke:#C82930;stroke-width:1.0;" width="6" x="470.5" y="1384.0664"/><text fill="#000000" font-family="sans-serif" font-size="14" lengthAdjust="spacing" text-decoration="underline" textLength="157" x="482.5" y="1391.3633">DATABASE_URL : String</text><line style="stroke:#181818;stroke-width:0.5;" x1="463.5" x2="644.5" y1="1398.877" y2="1398.877"/><ellipse cx="473.5" cy="1413.6875" fill="#84BE84" rx="3" ry="3" style="stroke:#038048;stroke-width:1.0;"/><text fill="#000000" font-family="sans-serif" font-size="14" lengthAdjust="spacing" textLength="76" x="482.5" y="1417.9844">SQLDriver()</text><ellipse cx="473.5" cy="1432.3086" fill="#84BE84" rx="3" ry="3" style="stroke:#038048;stroke-width:1.0;"/><text fill="#000000" font-family="sans-serif" font-size="14" lengthAdjust="spacing" textLength="143" x="482.5" y="1436.6055">ejecutarActualizacion()</text><ellipse cx="473.5" cy="1450.9297" fill="#84BE84" rx="3" ry="3" style="stroke:#038048;stroke-width:1.0;"/><text fill="#000000" font-family="sans-serif" font-size="14" lengthAdjust="spacing" textLength="100" x="482.5" y="1455.2266">ejecutarQuery()</text></g><!--class StateCanvas--><g id="elem_StateCanvas"><rect codeLine="103" fill="#F1F1F1" height="141.1055" id="StateCanvas" rx="2.5" ry="2.5" style="stroke:#181818;stroke-width:0.5;" width="113" x="70.5" y="1330.7559"/><ellipse cx="85.5" cy="1346.7559" fill="#EB937F" rx="11" ry="11" style="stroke:#181818;stroke-width:1.0;"/><path d="M84.3594,1347.5527 L84.3594,1350.0527 L88.6875,1350.0527 L88.6875,1349.1309 Q88.6875,1348.5215 88.9219,1348.2559 Q89.1719,1347.9902 89.5469,1347.9902 Q89.9219,1347.9902 90.1563,1348.2559 Q90.3906,1348.5215 90.3906,1349.1309 L90.3906,1351.7559 L82.3906,1351.7559 Q81.7656,1351.7559 81.5,1351.5215 Q81.25,1351.2871 81.25,1350.8965 Q81.25,1350.5215 81.5156,1350.2871 Q81.7813,1350.0527 82.3906,1350.0527 L82.6563,1350.0527 L82.6563,1343.3965 L82.3906,1343.3965 Q81.7656,1343.3965 81.5,1343.1621 Q81.25,1342.9277 81.25,1342.5371 Q81.25,1342.1621 81.5,1341.9277 Q81.7656,1341.6934 82.3906,1341.6934 L90.0156,1341.6934 L90.0156,1344.2871 Q90.0156,1344.8965 89.7813,1345.1621 Q89.5625,1345.4121 89.1719,1345.4121 Q88.7969,1345.4121 88.5625,1345.1621 Q88.3281,1344.8965 88.3281,1344.2871 L88.3281,1343.3965 L84.3594,1343.3965 L84.3594,1345.8496 L85.8438,1345.8496 Q85.8438,1345.1934 85.9688,1345.0059 Q86.2344,1344.5996 86.7031,1344.5996 Q87.0781,1344.5996 87.3125,1344.8652 Q87.5469,1345.1152 87.5469,1345.7246 L87.5469,1347.6934 Q87.5469,1348.2402 87.4219,1348.4277 Q87.1563,1348.8184 86.7031,1348.8184 Q86.2344,1348.8184 85.9688,1348.4121 Q85.8438,1348.2246 85.8438,1347.5527 L84.3594,1347.5527 Z " fill="#000000"/><text fill="#000000" font-family="sans-serif" font-size="14" lengthAdjust="spacing" textLength="81" x="99.5" y="1352.5527">StateCanvas</text><line style="stroke:#181818;stroke-width:0.5;" x1="71.5" x2="182.5" y1="1362.7559" y2="1362.7559"/><text fill="#000000" font-family="sans-serif" font-size="14" lengthAdjust="spacing" textLength="67" x="76.5" y="1381.8633">FLAGGED</text><text fill="#000000" font-family="sans-serif" font-size="14" lengthAdjust="spacing" textLength="50" x="76.5" y="1400.4844">HIDDEN</text><text fill="#000000" font-family="sans-serif" font-size="14" lengthAdjust="spacing" textLength="58" x="76.5" y="1419.1055">MARKED</text><text fill="#000000" font-family="sans-serif" font-size="14" lengthAdjust="spacing" textLength="89" x="76.5" y="1437.7266">QUESTIONED</text><text fill="#000000" font-family="sans-serif" font-size="14" lengthAdjust="spacing" textLength="73" x="76.5" y="1456.3477">REVEALED</text><line style="stroke:#181818;stroke-width:0.5;" x1="71.5" x2="182.5" y1="1463.8613" y2="1463.8613"/></g><!--class StateSelf--><g id="elem_StateSelf"><rect codeLine="114" fill="#F1F1F1" height="85.2422" id="StateSelf" rx="2.5" ry="2.5" style="stroke:#181818;stroke-width:0.5;" width="89" x="218.5" y="1358.7559"/><ellipse cx="233.5" cy="1374.7559" fill="#EB937F" rx="11" ry="11" style="stroke:#181818;stroke-width:1.0;"/><path d="M232.3594,1375.5527 L232.3594,1378.0527 L236.6875,1378.0527 L236.6875,1377.1309 Q236.6875,1376.5215 236.9219,1376.2559 Q237.1719,1375.9902 237.5469,1375.9902 Q237.9219,1375.9902 238.1563,1376.2559 Q238.3906,1376.5215 238.3906,1377.1309 L238.3906,1379.7559 L230.3906,1379.7559 Q229.7656,1379.7559 229.5,1379.5215 Q229.25,1379.2871 229.25,1378.8965 Q229.25,1378.5215 229.5156,1378.2871 Q229.7813,1378.0527 230.3906,1378.0527 L230.6563,1378.0527 L230.6563,1371.3965 L230.3906,1371.3965 Q229.7656,1371.3965 229.5,1371.1621 Q229.25,1370.9277 229.25,1370.5371 Q229.25,1370.1621 229.5,1369.9277 Q229.7656,1369.6934 230.3906,1369.6934 L238.0156,1369.6934 L238.0156,1372.2871 Q238.0156,1372.8965 237.7813,1373.1621 Q237.5625,1373.4121 237.1719,1373.4121 Q236.7969,1373.4121 236.5625,1373.1621 Q236.3281,1372.8965 236.3281,1372.2871 L236.3281,1371.3965 L232.3594,1371.3965 L232.3594,1373.8496 L233.8438,1373.8496 Q233.8438,1373.1934 233.9688,1373.0059 Q234.2344,1372.5996 234.7031,1372.5996 Q235.0781,1372.5996 235.3125,1372.8652 Q235.5469,1373.1152 235.5469,1373.7246 L235.5469,1375.6934 Q235.5469,1376.2402 235.4219,1376.4277 Q235.1563,1376.8184 234.7031,1376.8184 Q234.2344,1376.8184 233.9688,1376.4121 Q233.8438,1376.2246 233.8438,1375.5527 L232.3594,1375.5527 Z " fill="#000000"/><text fill="#000000" font-family="sans-serif" font-size="14" lengthAdjust="spacing" textLength="57" x="247.5" y="1380.5527">StateSelf</text><line style="stroke:#181818;stroke-width:0.5;" x1="219.5" x2="306.5" y1="1390.7559" y2="1390.7559"/><text fill="#000000" font-family="sans-serif" font-size="14" lengthAdjust="spacing" textLength="46" x="224.5" y="1409.8633">CLEAR</text><text fill="#000000" font-family="sans-serif" font-size="14" lengthAdjust="spacing" textLength="32" x="224.5" y="1428.4844">MINE</text><line style="stroke:#181818;stroke-width:0.5;" x1="219.5" x2="306.5" y1="1435.998" y2="1435.998"/></g><!--class WebApp--><g id="elem_WebApp"><rect codeLine="122" fill="#F1F1F1" height="215.5898" id="WebApp" rx="2.5" ry="2.5" style="stroke:#181818;stroke-width:0.5;" width="143" x="502.5" y="191.2559"/><ellipse cx="543.15" cy="207.2559" fill="#ADD1B2" rx="11" ry="11" style="stroke:#181818;stroke-width:1.0;"/><path d="M545.9156,203.1309 Q546.0719,202.9121 546.2594,202.8027 Q546.4469,202.6934 546.6656,202.6934 Q547.0406,202.6934 547.275,202.959 Q547.5094,203.209 547.5094,203.8184 L547.5094,205.2715 Q547.5094,205.8809 547.275,206.1465 Q547.0406,206.4121 546.6656,206.4121 Q546.3219,206.4121 546.1188,206.209 Q545.9156,206.0215 545.8063,205.5059 Q545.7594,205.1465 545.5719,204.959 Q545.2438,204.584 544.6344,204.3652 Q544.025,204.1465 543.4,204.1465 Q542.6344,204.1465 541.9938,204.4746 Q541.3688,204.8027 540.8688,205.5527 Q540.3844,206.3027 540.3844,207.334 L540.3844,208.4277 Q540.3844,209.6621 541.275,210.4902 Q542.1656,211.3027 543.7594,211.3027 Q544.6969,211.3027 545.3531,211.0527 Q545.7438,210.8965 546.1656,210.459 Q546.4313,210.1934 546.5719,210.1152 Q546.7281,210.0371 546.9313,210.0371 Q547.2594,210.0371 547.5094,210.3027 Q547.775,210.5527 547.775,210.8965 Q547.775,211.2402 547.4313,211.6465 Q546.9313,212.2246 546.1344,212.5527 Q545.0563,213.0059 543.7594,213.0059 Q542.2438,213.0059 541.0406,212.3809 Q540.0563,211.8809 539.3688,210.8184 Q538.6813,209.7402 538.6813,208.459 L538.6813,207.3027 Q538.6813,205.9746 539.2906,204.834 Q539.9156,203.6777 541.0094,203.0684 Q542.1031,202.4434 543.3375,202.4434 Q544.0719,202.4434 544.7125,202.6152 Q545.3688,202.7715 545.9156,203.1309 Z " fill="#000000"/><text fill="#000000" font-family="sans-serif" font-size="14" lengthAdjust="spacing" textLength="54" x="562.85" y="213.0527">WebApp</text><line style="stroke:#181818;stroke-width:0.5;" x1="503.5" x2="644.5" y1="223.2559" y2="223.2559"/><rect fill="none" height="6" style="stroke:#C82930;stroke-width:1.0;" width="6" x="510.5" y="235.0664"/><text fill="#000000" font-family="sans-serif" font-size="14" lengthAdjust="spacing" text-decoration="underline" textLength="117" x="522.5" y="242.3633">LOGGER : Logger</text><line style="stroke:#181818;stroke-width:0.5;" x1="503.5" x2="644.5" y1="249.877" y2="249.877"/><ellipse cx="513.5" cy="264.6875" fill="#84BE84" rx="3" ry="3" style="stroke:#038048;stroke-width:1.0;"/><text fill="#000000" font-family="sans-serif" font-size="14" lengthAdjust="spacing" textLength="50" x="522.5" y="268.9844">debug()</text><ellipse cx="513.5" cy="283.3086" fill="#84BE84" rx="3" ry="3" style="stroke:#038048;stroke-width:1.0;"/><text fill="#000000" font-family="sans-serif" font-size="14" lengthAdjust="spacing" textLength="41" x="522.5" y="287.6055">error()</text><ellipse cx="513.5" cy="301.9297" fill="#84BE84" rx="3" ry="3" style="stroke:#038048;stroke-width:1.0;"/><text fill="#000000" font-family="sans-serif" font-size="14" lengthAdjust="spacing" textLength="76" x="522.5" y="306.2266">gameOver()</text><ellipse cx="513.5" cy="320.5508" fill="#84BE84" rx="3" ry="3" style="stroke:#038048;stroke-width:1.0;"/><text fill="#000000" font-family="sans-serif" font-size="14" lengthAdjust="spacing" textLength="103" x="522.5" y="324.8477">getScoreValue()</text><ellipse cx="513.5" cy="339.1719" fill="#84BE84" rx="3" ry="3" style="stroke:#038048;stroke-width:1.0;"/><text fill="#000000" font-family="sans-serif" font-size="14" lengthAdjust="spacing" textLength="93" x="522.5" y="343.4688">getTableHtml()</text><ellipse cx="513.5" cy="357.793" fill="#84BE84" rx="3" ry="3" style="stroke:#038048;stroke-width:1.0;"/><text fill="#000000" font-family="sans-serif" font-size="14" lengthAdjust="spacing" textLength="43" x="522.5" y="362.0898">index()</text><ellipse cx="513.5" cy="376.4141" fill="#84BE84" rx="3" ry="3" style="stroke:#038048;stroke-width:1.0;"/><text fill="#000000" font-family="sans-serif" font-size="14" lengthAdjust="spacing" textLength="73" x="522.5" y="380.7109">revealCell()</text><ellipse cx="513.5" cy="395.0352" fill="#84BE84" rx="3" ry="3" style="stroke:#038048;stroke-width:1.0;"/><text fill="#000000" font-family="sans-serif" font-size="14" lengthAdjust="spacing" textLength="76" x="522.5" y="399.332">startGame()</text></g><!--class debug--><g id="elem_debug"><rect codeLine="137" fill="#F1F1F1" height="66.6211" id="debug" rx="2.5" ry="2.5" style="stroke:#181818;stroke-width:0.5;" width="85" x="74.5" y="265.7559"/><ellipse cx="95.35" cy="281.7559" fill="#B4A7E5" rx="11" ry="11" style="stroke:#181818;stroke-width:1.0;"/><path d="M96.3031,278.3965 L96.3031,285.0527 L98.0219,285.0527 Q98.6313,285.0527 98.8969,285.2871 Q99.1625,285.5215 99.1625,285.9121 Q99.1625,286.2871 98.8969,286.5215 Q98.6313,286.7559 98.0219,286.7559 L92.8813,286.7559 Q92.2719,286.7559 92.0063,286.5215 Q91.7406,286.2871 91.7406,285.8965 Q91.7406,285.5215 92.0063,285.2871 Q92.2719,285.0527 92.8813,285.0527 L94.6,285.0527 L94.6,278.3965 L92.8813,278.3965 Q92.2719,278.3965 92.0063,278.1621 Q91.7406,277.9277 91.7406,277.5371 Q91.7406,277.1621 92.0063,276.9277 Q92.2719,276.6934 92.8813,276.6934 L98.0219,276.6934 Q98.6313,276.6934 98.8969,276.9277 Q99.1625,277.1621 99.1625,277.5371 Q99.1625,277.9277 98.8969,278.1621 Q98.6313,278.3965 98.0219,278.3965 L96.3031,278.3965 Z " fill="#000000"/><text fill="#000000" font-family="sans-serif" font-size="14" font-style="italic" lengthAdjust="spacing" textLength="40" x="110.65" y="287.5527">debug</text><line style="stroke:#181818;stroke-width:0.5;" x1="75.5" x2="158.5" y1="297.7559" y2="297.7559"/><line style="stroke:#181818;stroke-width:0.5;" x1="75.5" x2="158.5" y1="305.7559" y2="305.7559"/><ellipse cx="85.5" cy="320.5664" fill="#84BE84" rx="3" ry="3" style="stroke:#038048;stroke-width:1.0;"/><text fill="#000000" font-family="sans-serif" font-size="14" font-style="italic" lengthAdjust="spacing" textLength="59" x="94.5" y="324.8633">toString()</text></g><!--class gameplay--><g id="elem_gameplay"><rect codeLine="144" fill="#F1F1F1" height="85.2422" id="gameplay" rx="2.5" ry="2.5" style="stroke:#181818;stroke-width:0.5;" width="95" x="372.5" y="256.7559"/><ellipse cx="388.4" cy="272.7559" fill="#B4A7E5" rx="11" ry="11" style="stroke:#181818;stroke-width:1.0;"/><path d="M389.3531,269.3965 L389.3531,276.0527 L391.0719,276.0527 Q391.6813,276.0527 391.9469,276.2871 Q392.2125,276.5215 392.2125,276.9121 Q392.2125,277.2871 391.9469,277.5215 Q391.6813,277.7559 391.0719,277.7559 L385.9313,277.7559 Q385.3219,277.7559 385.0563,277.5215 Q384.7906,277.2871 384.7906,276.8965 Q384.7906,276.5215 385.0563,276.2871 Q385.3219,276.0527 385.9313,276.0527 L387.65,276.0527 L387.65,269.3965 L385.9313,269.3965 Q385.3219,269.3965 385.0563,269.1621 Q384.7906,268.9277 384.7906,268.5371 Q384.7906,268.1621 385.0563,267.9277 Q385.3219,267.6934 385.9313,267.6934 L391.0719,267.6934 Q391.6813,267.6934 391.9469,267.9277 Q392.2125,268.1621 392.2125,268.5371 Q392.2125,268.9277 391.9469,269.1621 Q391.6813,269.3965 391.0719,269.3965 L389.3531,269.3965 Z " fill="#000000"/><text fill="#000000" font-family="sans-serif" font-size="14" font-style="italic" lengthAdjust="spacing" textLength="61" x="402.6" y="278.5527">gameplay</text><line style="stroke:#181818;stroke-width:0.5;" x1="373.5" x2="466.5" y1="288.7559" y2="288.7559"/><line style="stroke:#181818;stroke-width:0.5;" x1="373.5" x2="466.5" y1="296.7559" y2="296.7559"/><ellipse cx="383.5" cy="311.5664" fill="#84BE84" rx="3" ry="3" style="stroke:#038048;stroke-width:1.0;"/><text fill="#000000" font-family="sans-serif" font-size="14" font-style="italic" lengthAdjust="spacing" textLength="60" x="392.5" y="315.8633">leftClick()</text><ellipse cx="383.5" cy="330.1875" fill="#84BE84" rx="3" ry="3" style="stroke:#038048;stroke-width:1.0;"/><text fill="#000000" font-family="sans-serif" font-size="14" font-style="italic" lengthAdjust="spacing" textLength="69" x="392.5" y="334.4844">rightClick()</text></g><!--reverse link debug to Cell--><g id="link_debug_Cell"><path codeLine="151" d="M119.16,353.0359 C122.2,427.5659 127.91,567.3259 132.58,681.7459 " fill="none" id="debug-backto-Cell" style="stroke:#181818;stroke-width:1.0;stroke-dasharray:7.0,7.0;"/><polygon fill="none" points="112.16,353.2259,118.34,332.9559,126.15,352.6559,112.16,353.2259" style="stroke:#181818;stroke-width:1.0;"/></g><!--reverse link Cell to StateCanvas--><g id="link_Cell_StateCanvas"><path codeLine="152" d="M135.26,1060.3559 C132.97,1154.7059 130.36,1262.0559 128.7,1330.4259 " fill="none" id="Cell-backto-StateCanvas" style="stroke:#181818;stroke-width:1.0;"/><polygon fill="none" points="135.58,1047.1259,131.436,1053.0273,135.2897,1059.1223,139.4337,1053.2209,135.58,1047.1259" style="stroke:#181818;stroke-width:1.0;"/><text fill="#000000" font-family="sans-serif" font-size="13" lengthAdjust="spacing" textLength="71" x="130" y="1287.2842">stateCanvas</text></g><!--reverse link Cell to StateSelf--><g id="link_Cell_StateSelf"><path codeLine="153" d="M184.76,1059.9559 C209.76,1168.6859 238.75,1294.7859 253.43,1358.6259 " fill="none" id="Cell-backto-StateSelf" style="stroke:#181818;stroke-width:1.0;"/><polygon fill="none" points="181.81,1047.1259,179.2566,1053.8698,184.4996,1058.8206,187.0531,1052.0767,181.81,1047.1259" style="stroke:#181818;stroke-width:1.0;"/><text fill="#000000" font-family="sans-serif" font-size="13" lengthAdjust="spacing" textLength="51" x="237" y="1287.2842">stateSelf</text></g><!--reverse link debug to Game--><g id="link_debug_Game"><path codeLine="154" d="M144.48,350.5459 C154.51,368.5559 166.07,388.9259 177,407.2559 C198.28,442.9459 206.4,450.1659 227,486.2559 C259.53,543.2459 292.84,606.3259 322.43,664.3159 " fill="none" id="debug-backto-Game" style="stroke:#181818;stroke-width:1.0;stroke-dasharray:7.0,7.0;"/><polygon fill="none" points="138.23,353.7059,134.67,332.8159,150.48,346.9359,138.23,353.7059" style="stroke:#181818;stroke-width:1.0;"/></g><!--reverse link gameplay to Game--><g id="link_gameplay_Game"><path codeLine="155" d="M420,362.1359 C420,395.0259 420,438.4559 420,486.0259 " fill="none" id="gameplay-backto-Game" style="stroke:#181818;stroke-width:1.0;stroke-dasharray:7.0,7.0;"/><polygon fill="none" points="413,362.1159,420,342.1159,427,362.1159,413,362.1159" style="stroke:#181818;stroke-width:1.0;"/></g><!--reverse link Game to Difficulty--><g id="link_Game_Difficulty"><path codeLine="156" d="M394.48,1255.3459 C392.91,1279.2959 391.46,1301.5859 390.18,1321.1359 " fill="none" id="Game-backto-Difficulty" style="stroke:#181818;stroke-width:1.0;"/><polygon fill="none" points="395.34,1242.2759,390.9594,1248.0039,394.5619,1254.2506,398.9425,1248.5226,395.34,1242.2759" style="stroke:#181818;stroke-width:1.0;"/><text fill="#000000" font-family="sans-serif" font-size="13" lengthAdjust="spacing" textLength="47" x="393" y="1287.2842">difficulty</text></g><!--reverse link Game to SQLDriver--><g id="link_Game_SQLDriver"><path codeLine="157" d="M517.67,1255.2159 C525.72,1287.3459 533.01,1316.4759 538.92,1340.0459 " fill="none" id="Game-backto-SQLDriver" style="stroke:#181818;stroke-width:1.0;"/><polygon fill="none" points="514.43,1242.2759,512.0065,1249.0675,517.3435,1253.9168,519.7671,1247.1251,514.43,1242.2759" style="stroke:#181818;stroke-width:1.0;"/><text fill="#000000" font-family="sans-serif" font-size="13" lengthAdjust="spacing" textLength="17" x="526" y="1287.2842">sql</text></g><!--reverse link WebApp to Game--><g id="link_WebApp_Game"><path codeLine="158" d="M541.18,420.2359 C533.94,446.7259 525.9,476.0959 517.52,506.7359 " fill="none" id="WebApp-backto-Game" style="stroke:#181818;stroke-width:1.0;"/><polygon fill="none" points="544.67,407.4759,539.2295,412.2088,541.5059,419.0512,546.9464,414.3182,544.67,407.4759" style="stroke:#181818;stroke-width:1.0;"/><text fill="#000000" font-family="sans-serif" font-size="13" lengthAdjust="spacing" textLength="32" x="533" y="452.2842">game</text></g><text fill="#888888" font-family="sans-serif" font-size="10" lengthAdjust="spacing" textLength="3" x="504.5" y="1562.0469">&#160;</text><text fill="#888888" font-family="sans-serif" font-size="10" lengthAdjust="spacing" textLength="3" x="504.5" y="1575.3477">&#160;</text><text fill="#888888" font-family="sans-serif" font-size="10" lengthAdjust="spacing" textLength="392" x="310" y="1588.6484">PlantUML diagram generated by SketchIt! (https://bitbucket.org/pmesmeur/sketch.it)</text><text fill="#888888" font-family="sans-serif" font-size="10" lengthAdjust="spacing" textLength="394" x="309" y="1601.9492">For more information about this tool, please contact philippe.mesmeur@gmail.com</text><!--SRC=[hLVTSzeu47_dhr2VhXsAyyx3JLrmW3aW3KwQwVGwZ6olZLfPyaaoEQxD_zwrCOu_SqCIPfYHTbVx_Ll9XXaEPBjTBTQEU-SudvpD7vfCEDMQJ1cD58stsx_5O428e37eXFf00dfl9SgAcG1z3v208ZzHW10_FzTcMtQI52BPxwSsr33_WOp8ycesSpPaJ9OoYa2rHOOafaoyVTTrcCl8FMW3yKA4iX1v61p_B_Lu0fnNN1wHd6ahcOe0tMN2L7Wo33MO5ZcHcXacnP7nzLl96f9CVIMe3a84PY9v6eicTVNeI9DrbVlHf6xaVPFaOWvXGiMUwawM2poiCNI_NTrf5_UVYl2Rz3xZki-uaQvHJ4JFAp68DCPU3aFcfzmSog8wjlkbMCxjpRHOhfpfudPLRFoy0BhOvQgBjPBt-bNxROPdpuF8YFZOCnePMUzy_LRfhn69KDtL7isEYISb1oegJ2QOkM5eRumG4b6roUKUTBkFEJs0MjFynB4KjIv7wVOXxKi5dobFeS4QaYpMMe5zoh4sMFfr6dkWMZrf1zyngy9aWVOoy_viGQWNLYtHEUNyikdP4Jvja9J1rJXCpugyDyXth8u23g6PSER_g54LYtOTP4ttW0f4Gol2fTDQXhooO4_Xw4XCXOz5LpRdxUmMl5OIJ_JCLGZEOuyUgzsPnH496UTp5WGWMkHcZJEgqcQ5vd2W26a-mb9ANTSN0QQkQ-GW4ZIQPsqNSsHUDaOTjZfcppIwTvJFhMOahpKMtElbLB5zATYO3LFxnlvekyxsThDiOtD8okEr-i1ty5D3bUsR5CF_Z_hDANsIk4v17LumTYkZlWpWScdZG3lDs_bYEdNMf-5hR_ugETUtZdkpk5gNX8tpsR6NnVRPtcItI-dBPEdOcvDnV0AzQktkm3lxtJCa0NXf7Q6WbAmNCEh2VVzOGiuDzJZCJLm7AXC1_5iVGR07obk8HiTLjV7FJ16Y1bJOBMBb0LUpH3rj5FNDmukl_YVjPadCRhO-qrqpkYRG6jTLx_gUb5QQMB_-xCt34oVbQDGv8IeG6sU5EksUgIh7Hw4eMtUhoPyhpuhbVqwUglB4uHxlAq-yCGdApVcA7cSkfk4VtgsW07UFYjdnhPG5CnWCyaOXePJOZRZ5srcOszKIdSm_iCeBAY3UWRW_mFYxXNb3tkwCIVJuui9ZnalnAZMMLD55WcqVGwekT2vfCVDkS2aLljqKOCU7KiKq_-gWdamDCJkc4KQIlyTt750D-AeL1bkO93l6MPA0LIZy4E6d5hTy6Gz018Mxlm40]--></g></svg>